<svg xmlns="http://www.w3.org/2000/svg" xmlns:xlink="http://www.w3.org/1999/xlink" width="1850" height="360" viewBox="0 0 1850 360"><defs><style>.a{fill:#f07f57;}.b{clip-rule:evenodd;}.c{fill:#c9c9c9;}.d{clip-path:url(#a);}.e{fill:#c3c3c3;}.ab,.e,.f,.g,.i,.j,.k,.l,.m,.o,.p,.r,.s,.t,.v,.w,.y,.z{fill-rule:evenodd;}.f{fill:#1c1647;}.g{fill:#fbf6f1;}.h{clip-path:url(#b);}.i{fill:#ebebeb;}.j{fill:#c6c6c6;}.k{fill:#fff;}.l{fill:none;}.m{fill:#fad8ca;}.n{clip-path:url(#c);}.o{fill:#f60;}.p{fill:#b8d6c0;}.q{clip-path:url(#d);}.r{fill:#60956e;opacity:0.22;}.s{fill:#402e88;}.t{fill:#e5f3e0;}.u{clip-path:url(#e);}.v{fill:#a4c8ae;}.w{fill:#6346d6;}.x{clip-path:url(#f);}.y{fill:#1d1d1f;opacity:0.349;}.z{fill:#1a1a1a;}.aa{clip-path:url(#g);}.ab{fill:#4d4d4d;}.ac{clip-path:url(#h);}</style><clipPath id="a"><rect class="a" width="1850" height="360" transform="translate(70)"/></clipPath><clipPath id="b"><path class="b" d="M118.048,152.09c.122-2.685-.056-6.306.85-9.769a15.144,15.144,0,0,1,5.841-8.753c2.947-1.989,6.853-2.663,11.4-3.089s9.73-.6,12.872-1.687,4.243-3.071,4.4-5.14a10.343,10.343,0,0,0-1.717-5.986c-1.087-1.769-2.476-3.157-1.966-4.444s2.92-2.47,4.125-3.307,1.2-1.327.49-1.817-2.145-.98-2.88-1.593a1.343,1.343,0,0,1-.184-2.082,25.8,25.8,0,0,1,2.532-2.123c.715-.653.919-1.226.735-1.757A15.211,15.211,0,0,1,153.4,98.3a16.2,16.2,0,0,1-.572-4.329c.021-1.143.266-1.47,1.634-2.062a37.822,37.822,0,0,0,5.207-2.349,2.326,2.326,0,0,0,1.185-2.966c-.367-1.129-1.306-2.447-3.818-5.312s-6.6-7.275-8.74-10.2-2.348-4.35-2.287-5.677a7.279,7.279,0,0,1,1.048-3.6,7.113,7.113,0,0,0,1.619-5.137c-.034-3.23-1.1-8.826-3.322-11.665s-5.616-2.92-11.421-2.026a59.32,59.32,0,0,0-22.884,8.267c-8.86,5.506-18.362,14.651-21,25.163s1.6,22.393-2.284,29.4-15.9,9.14-22.77,13-8.613,9.453-7.62,16.97,4.722,16.96,8.169,23.141,6.616,9.1,11.71,10.592,12.114,1.553,17.953.559a38.645,38.645,0,0,0,13.947-5.187,22.653,22.653,0,0,0,7.014-6.372,11.274,11.274,0,0,0,1.871-6.425Z" transform="translate(-57.124 -42.477)"/></clipPath><clipPath id="c"><path class="b" d="M280.508,266.746c-2.407,7.977-7.141,21.116-9.977,28.624s-3.774,9.386-4.325,11.508a51.618,51.618,0,0,1-2.183,8.283c-1.469,3.8-4.243,9.019-8.222,9.283s-9.16-4.427-12.71-8.467-5.468-7.427-5.631-12.67,1.428-12.343,4.631-20.076,8.018-16.1,13.792-21.157,12.507-6.814,17.2-7.753,7.345-1.06,8.63.286S282.916,258.768,280.508,266.746Z" transform="translate(-237.449 -253.606)"/></clipPath><clipPath id="d"><path class="b" d="M231.739,79.416a147.222,147.222,0,0,0-13.486,6.177c-5.13,2.631-10.233,5.555-16.16,7.574s-12.678,3.137-18.844,4.306-11.748,2.392-15.468,4.438-5.582,4.918-7.788,6.964-4.757,3.269-9.435,5.661A194.906,194.906,0,0,1,130,123.955c-9.073,3.466-20.417,6.834-26.225,8.959s-6.084,3.006-5.155,12.823,3.063,28.571,4.981,51.758,3.622,50.81,7,63.391,8.446,10.12,13.86,7.308,11.18-5.976,14.836-6.821,5.2.633,9.477,3.445,11.273,6.96,14.891,9.839,3.858,4.493,4.264,19.671.98,43.925.944,61.169-.683,22.986-2.362,39.3-4.391,43.192-5.747,58.452-1.355,18.9-.749,22.094a19.908,19.908,0,0,0,3.6,8.331c1.78,2.386,4.125,4.408,9.5,5.661s13.79,1.739,27.377,2.345,32.351,1.335,43.31.971,14.113-1.82,16.7-4.327,4.611-6.065,8.6-18.856,9.955-34.812,12.165-83.74.668-124.759-.6-164.046-2.268-42.03-6.427-49.112-11.477-18.5-16.453-28.712a128.2,128.2,0,0,1-9.806-28.667c-2.2-9.468-3.953-19.412-5.641-25.679s-3.307-8.857-4.738-10.115-2.674-1.183-5.873.023Z" transform="translate(-98.218 -78.481)"/></clipPath><clipPath id="e"><path class="b" d="M237.907,63.473a73.109,73.109,0,0,0,6.866,10.676c3.792,4.615,9.224,9.211,11.957,11.857s2.769,3.343,2.8,4.126a5.255,5.255,0,0,0,.4,2.229c.331.574.957.853,12.707,6.283s34.624,16.012,46.16,21.462,11.737,5.771,11.657,6.612-.44,2.2-.5,2.945.18.861.981.8a18.679,18.679,0,0,1,3-.2c.841.1,1.162.541,2.236,3.048s2.9,7.081,5.591,18.75S348,182.5,352.538,206.74s10.082,53.972,13.245,72.846,3.95,26.9,4.557,35.012,1.032,16.318.552,22.177-1.864,9.377-8.565,28.985-18.714,55.31-26.333,77.924-10.841,32.143-12.515,37.037-1.8,5.154-1.875,4.774a22.268,22.268,0,0,0-.687-3.5,37.12,37.12,0,0,0-4.1-9.233,66.832,66.832,0,0,0-10.2-12.8c-4.181-4.076-8.908-7.468-13.91-12.389a145.3,145.3,0,0,1-13.2-15.291c-2.914-3.925-3.462-5.326-.263-11.543S289.4,403.5,293.922,391.921s6.626-23.706,7.886-31.066,1.682-9.953,1.181-15.621a158.754,158.754,0,0,0-2.89-18.393c-.969-3.983-1.488-3.206-2.184.4s-1.572,10.039-2.594,14.792-2.186,7.83-2.717,11.275-.424,7.263-.318,17.938.214,28.2.348,39.752.3,17.111.577,23.925.686,14.877.726,19.8-.282,6.693-2.217,8.951-5.483,5-15.313,11.534-25.938,16.863-36.1,23.522-14.366,9.652-17.532,11.248-5.291,1.8-6.895,1.5-2.686-1.1-4.33-2.826a37.426,37.426,0,0,1-6.014-8.439c-2.165-4.069-4.29-9.562-6.516-17.525a233.254,233.254,0,0,1-5.856-27.417c-1.3-9.019-1.58-16.624-1.912-50.982s-.719-95.468-.862-135.045-.043-57.619.343-67.891,1.056-12.772,2.276-16.034a123.793,123.793,0,0,1,7.348-15.429c4.36-8.141,11.313-20.4,15.038-28.793s4.225-12.927,4.231-16.475-.482-6.108-.513-7.6.4-1.92,2.165-3.14a71.258,71.258,0,0,0,8.049-6.1A54.113,54.113,0,0,0,238.361,97.1c2.623-4.086,4.635-8.538,4.406-13.849s-2.7-11.48-4.086-15.453-1.7-5.75-.774-4.321Z" transform="translate(-190.334 -62.984)"/></clipPath><clipPath id="f"><path class="b" d="M154.127,100.491c2.073,1.415,3.633,3.056,8.024,5.519s11.615,5.747,21.178,10.056,21.466,9.646,28.278,12.969,8.537,4.639,9.727,7.142,1.847,6.2,1.514,15.1-1.655,23.027-4.3,43.46-6.605,47.182-8.917,63.445-2.972,22.042-3.054,25.922.413,5.862.165,8.174a37.179,37.179,0,0,0-.413,12.3c.826,7.347,3.467,19.4,6.109,29.39s5.283,17.915,7.017,26.418,2.559,17.585,3.468,25.262,1.9,13.952,3.385,21.96,3.467,17.75,4.458,23.693.991,8.091-1.238,9.659-6.687,2.56-14.117,4.458-17.831,4.706-30.133,6.687-26.5,3.137-44.827,3.468-40.782-.165-58.036-1.321-29.307-2.972-36.713-4.538-10.164-2.883-11.79-4.075-2.117-2.259-1.789-3.983,1.477-4.1,3.592-19.98,5.194-45.247,7.608-65.675,4.162-31.916,5.487-45.178,2.229-28.3,2.311-43.042a216.123,216.123,0,0,0-4.65-48.364c-3.992-19.172-11.239-43.068-16.778-58.929A306.374,306.374,0,0,0,18.216,132c-2.105-4.8-2.483-6.586-2.078-7.693s1.592-1.538,12.224-5.616,30.709-11.8,47.315-16.4A172.594,172.594,0,0,1,116.71,95.8a150.1,150.1,0,0,1,26.744,1.168c6.014.922,8.6,2.11,10.673,3.525Z" transform="translate(-15.994 -95.674)"/></clipPath><clipPath id="g"><path class="b" d="M186.352,71.007c.543-1.664.867-4.528-.025-8.959a48.1,48.1,0,0,0-6.4-15.723c-3.4-5.3-8.1-9.888-15.453-14.049a92.8,92.8,0,0,0-27.882-9.834,85.484,85.484,0,0,0-31.4-.173,65.916,65.916,0,0,0-25.8,11.352A60.907,60.907,0,0,0,60.353,55.073a75.081,75.081,0,0,0-8.342,33.735c-.123,12.492,2.917,25.558,5.185,35.439s3.764,16.576,3.814,22.266-1.347,10.374-4.594,13.537-8.342,4.809-13.4,7.6a41.448,41.448,0,0,0-13.807,12c-3.739,5.26-6.205,11.835-7.4,15.286s-1.11,3.781,2.342,2.3,10.273-4.766,13.888-6.41,4.028-1.644,3.945.041a20.1,20.1,0,0,1-2.26,7.972,31.522,31.522,0,0,1-6.081,7.149c-1.849,1.767-2.917,2.836-1.562,3.083s5.137-.329,10.026-1.6a63.757,63.757,0,0,0,16.355-6.493c5.465-3.246,10.4-7.766,13.026-10.026s2.958-2.26,2.465-.041a26.276,26.276,0,0,1-4.479,10.027c-2.67,3.37-6.7,5.67-9.862,7.232s-5.465,2.383-6.287,3.041-.164,1.15,3.657,1.6A103.276,103.276,0,0,0,74,213.265a44.669,44.669,0,0,0,15.821-3.616A25.372,25.372,0,0,0,99.4,201.8a42.664,42.664,0,0,0,5.629-10.108,30.973,30.973,0,0,0,2.26-9.41c.206-3.041-.123-6.082.74-7.931s2.918-2.506,5.643-3.917a41.9,41.9,0,0,0,8.715-5.974,25.909,25.909,0,0,0,5.688-7.687,37.694,37.694,0,0,0,2.846-8.332,72.744,72.744,0,0,1,2.718-10.167c1.46-3.884,3.821-8.358,4.779-13.95s.515-12.3.721-17.619,1.064-9.25,2.958-12.717a25.681,25.681,0,0,1,8.612-8.969,114.81,114.81,0,0,1,10.851-5.782c2.418-1.279,2.608-1.837,2.811-3.275s.42-3.755.574-4.728.247-.6.556.665.834,3.43,1.22,4.65.634,1.5,1.545,1.436a21.3,21.3,0,0,0,3.986-.927,10.975,10.975,0,0,0,3.631-1.622c.711-.633.711-1.375.633-3s-.231-4.125-.247-5.3.108-1.019.556.325,1.221,3.878,1.777,5.237.9,1.545,1.807,1.5a15.4,15.4,0,0,0,3.517-.7,3.283,3.283,0,0,0,2.425-2.5Z" transform="translate(-21.123 -20.898)"/></clipPath><clipPath id="h"><path class="b" d="M177.646,24.572c-4.052,5.816-8.464,15.229-11.691,23.245a110.191,110.191,0,0,0-6.213,19.608,35.593,35.593,0,0,0-.162,12.83c.619,4.519,1.695,10.221,1.372,14.39s-2.044,6.805-3.389,9.522a26.822,26.822,0,0,0-2.609,7.693,6.245,6.245,0,0,0,1.184,5.123,16.412,16.412,0,0,0,5.014,3.716c2.082,1.123,4.42,2.162,5.419,3.123s.662,1.844.454,3.675a31.2,31.2,0,0,0-.065,6.309c.221,1.7.74,2.325.636,3.09s-.831,1.675-.688,2.713a7.391,7.391,0,0,0,1.961,3.129,5.258,5.258,0,0,1,1.544,3.9c.143,2.3-.168,6.219.546,8.984a7.548,7.548,0,0,0,4.583,5.285c2.13.909,4.648,1.116,9.4-.078a147.821,147.821,0,0,0,18.965-6.842c7.229-3.05,14.7-6.555,19.643-9.695a30.376,30.376,0,0,0,9.173-8.466,25.7,25.7,0,0,0,4.232-9.194c1.168-4.306,2.262-10.581,2.955-13.792s.985-3.357,1.423-2.481,1.022,2.773,2.773,3.43,4.671.073,8.465-1.35a30.126,30.126,0,0,0,13.025-9.011c4.561-5.327,9.012-13.718,10.763-25.212s.8-26.086-3.576-37.762A50.418,50.418,0,0,0,252.06,14.871c-8.537-5.144-17.805-6.677-28.422-6.167a136.214,136.214,0,0,0-30.415,5.45c-7.831,2.385-11.524,4.6-15.577,10.416Z" transform="translate(-154.857 -8.612)"/></clipPath></defs><g transform="translate(-70)"><rect class="a" width="1850" height="360" transform="translate(70)"/><path class="c" d="M0,0H81V24.651l9.407,19.9L78.876,165.221,0,178Z" transform="translate(1437 126)"/><g class="d"><g transform="translate(1099.999 25)"><path class="e" d="M214.77,69.333c.778,2.333.032,9.8-.683,15.211s-1.4,8.771-3.048,12.131-4.261,6.718-8.958,12.97-11.477,15.4-16.267,17.885-7.589-1.68-9.3-8.336-2.333-15.8.778-21.213,9.953-7.091,15.925-10.7,11.073-9.145,14.775-13.313,6-6.967,6.78-4.635Z" transform="translate(165.336 64.671)"/><path class="f" d="M43.633,267.635c-3.05,2.276-6.783,5.735-9.469,15.75s-4.324,26.585-6.145,40.468-3.823,25.083-4.461,32.593.092,11.335,1.548,26.4,3.642,41.378,5.918,54.533,4.643,13.156,19.71,13.11,42.835-.137,56.992-.364,14.7-.591,16.16-12.746,3.823-36.1,5.1-48.069,1.456-11.972,3.186-.091,5.008,35.643,6.874,47.888,2.322,12.974,16.57,13.292,42.289.228,56.582-.091,14.84-.865,15.8-17.161,2.321-48.343,2.777-65.6,0-19.71-2.413-34.185S221.573,292.4,217.7,279.061s-7.237-13.52-34.869-13.975-79.524-1.184-106.654-1-29.5,1.275-32.547,3.551Z" transform="translate(22.025 249.341)"/><path class="g" d="M118.048,152.09c.122-2.685-.056-6.306.85-9.769a15.144,15.144,0,0,1,5.841-8.753c2.947-1.989,6.853-2.663,11.4-3.089s9.73-.6,12.872-1.687,4.243-3.071,4.4-5.14a10.343,10.343,0,0,0-1.717-5.986c-1.087-1.769-2.476-3.157-1.966-4.444s2.92-2.47,4.125-3.307,1.2-1.327.49-1.817-2.145-.98-2.88-1.593a1.343,1.343,0,0,1-.184-2.082,25.8,25.8,0,0,1,2.532-2.123c.715-.653.919-1.226.735-1.757A15.211,15.211,0,0,1,153.4,98.3a16.2,16.2,0,0,1-.572-4.329c.021-1.143.266-1.47,1.634-2.062a37.822,37.822,0,0,0,5.207-2.349,2.326,2.326,0,0,0,1.185-2.966c-.367-1.129-1.306-2.447-3.818-5.312s-6.6-7.275-8.74-10.2-2.348-4.35-2.287-5.677a7.279,7.279,0,0,1,1.048-3.6,7.113,7.113,0,0,0,1.619-5.137c-.034-3.23-1.1-8.826-3.322-11.665s-5.616-2.92-11.421-2.026a59.32,59.32,0,0,0-22.884,8.267c-8.86,5.506-18.362,14.651-21,25.163s1.6,22.393-2.284,29.4-15.9,9.14-22.77,13-8.613,9.453-7.62,16.97,4.722,16.96,8.169,23.141,6.616,9.1,11.71,10.592,12.114,1.553,17.953.559a38.645,38.645,0,0,0,13.947-5.187,22.653,22.653,0,0,0,7.014-6.372,11.274,11.274,0,0,0,1.871-6.425Z" transform="translate(53.94 40.11)"/><g class="h" transform="translate(111.064 82.587)"><g transform="translate(33.683 -8.426)"><path class="i" d="M78.723,94.853a233.95,233.95,0,0,0,7.932,27.04c2.137,5.543,3.406,6.811,6.436,7.868s7.821,1.9,15.76,2.959,19.025,2.325,27.9,1.684,15.538-3.192,18.113-14.577,1.064-31.605-1.676-47.1-6.708-26.267-17.811-31.18-29.338-3.968-41.29-.566S76.465,50.239,74.915,59.937s1.021,23.238,3.808,34.916Z" transform="translate(-74.448 -38.143)"/><path class="j" d="M77.7,86.874c2.443,5.473,9.819,14.117,15.457,20.2s9.538,9.608,12.849,10.5,6.038-.846,9.772-5.356,8.481-11.792,6.2-16.8S110.4,87.7,102.272,84.97s-15.081-5.45-19.8-5.661S75.258,81.4,77.7,86.874Z" transform="translate(-72.277 0.716)"/><path class="k" d="M120.429,48.58c-5.684.186-14.444,4.535-19.942,8.356s-7.735,7.113-8.076,10.158,1.212,5.839,2.952,8.044,3.665,3.821,4.721,5.965,1.243,4.815,1.336,7.735a29.457,29.457,0,0,1-.9,9.5c-.993,3.417-2.982,7.083-3.075,10.562s1.709,6.772,4.256,9.908,5.84,6.12,11.152,6.834a19.811,19.811,0,0,0,17.426-6.492c4.784-5.653,7.02-15.407,6.772-26.558a121.748,121.748,0,0,0-5.653-31.963c-2.671-8.262-5.28-12.239-10.965-12.052Z" transform="translate(-57.53 -28.294)"/></g></g><path class="l" d="M118.048,152.09c.122-2.685-.056-6.306.85-9.769a15.144,15.144,0,0,1,5.841-8.753c2.947-1.989,6.853-2.663,11.4-3.089s9.73-.6,12.872-1.687,4.243-3.071,4.4-5.14a10.343,10.343,0,0,0-1.717-5.986c-1.087-1.769-2.476-3.157-1.966-4.444s2.92-2.47,4.125-3.307,1.2-1.327.49-1.817-2.145-.98-2.88-1.593a1.343,1.343,0,0,1-.184-2.082,25.8,25.8,0,0,1,2.532-2.123c.715-.653.919-1.226.735-1.757A15.211,15.211,0,0,1,153.4,98.3a16.2,16.2,0,0,1-.572-4.329c.021-1.143.266-1.47,1.634-2.062a37.822,37.822,0,0,0,5.207-2.349,2.326,2.326,0,0,0,1.185-2.966c-.367-1.129-1.306-2.447-3.818-5.312s-6.6-7.275-8.74-10.2-2.348-4.35-2.287-5.677a7.279,7.279,0,0,1,1.048-3.6,7.113,7.113,0,0,0,1.619-5.137c-.034-3.23-1.1-8.826-3.322-11.665s-5.616-2.92-11.421-2.026a59.32,59.32,0,0,0-22.884,8.267c-8.86,5.506-18.362,14.651-21,25.163s1.6,22.393-2.284,29.4-15.9,9.14-22.77,13-8.613,9.453-7.62,16.97,4.722,16.96,8.169,23.141,6.616,9.1,11.71,10.592,12.114,1.553,17.953.559a38.645,38.645,0,0,0,13.947-5.187,22.653,22.653,0,0,0,7.014-6.372,11.274,11.274,0,0,0,1.871-6.425Z" transform="translate(53.94 40.11)"/><path class="m" d="M280.508,266.746c-2.407,7.977-7.141,21.116-9.977,28.624s-3.774,9.386-4.325,11.508a51.618,51.618,0,0,1-2.183,8.283c-1.469,3.8-4.243,9.019-8.222,9.283s-9.16-4.427-12.71-8.467-5.468-7.427-5.631-12.67,1.428-12.343,4.631-20.076,8.018-16.1,13.792-21.157,12.507-6.814,17.2-7.753,7.345-1.06,8.63.286S282.916,258.768,280.508,266.746Z" transform="translate(224.216 239.473)"/><g class="n" transform="translate(461.665 493.079)"><g transform="translate(-8.64 10.667)"><path class="o" d="M275.319,299.534c-2.08-2.734-5.1-9.344-7.365-13.037s-3.774-4.468-5.509-4.53-3.692.592-6.977,2.836-7.9,6.079-12.038,8.221-7.814,2.591-9.466-.939-1.286-11.037,2-17.831,9.487-12.873,14.628-14.608,9.222.878,13.874,3.937,9.876,6.57,13.2,10.569a20,20,0,0,1,4.774,12.874,28.032,28.032,0,0,1-2.632,11.384c-1.265,2.714-2.407,3.857-4.488,1.123Z" transform="translate(-233.005 -259.092)"/></g></g><path class="l" d="M280.508,266.746c-2.407,7.977-7.141,21.116-9.977,28.624s-3.774,9.386-4.325,11.508a51.618,51.618,0,0,1-2.183,8.283c-1.469,3.8-4.243,9.019-8.222,9.283s-9.16-4.427-12.71-8.467-5.468-7.427-5.631-12.67,1.428-12.343,4.631-20.076,8.018-16.1,13.792-21.157,12.507-6.814,17.2-7.753,7.345-1.06,8.63.286S282.916,258.768,280.508,266.746Z" transform="translate(224.216 239.473)"/><path class="f" d="M140.176,294.908c-7.088,6.968-7.642,10.748-7.417,18.373s1.229,19.094,1.6,41.614.106,56.09-.07,73.978-.263,20.093-.327,21.716-.105,2.666,15.259,3.157,46.134.429,62.9.4,19.523-.031,20.962-1.87,1.563-5.516,1.724-12.029.362-15.858,1.081-21.193,1.958-6.656,3.18-1.13,2.427,17.9,3.006,25.268.533,9.733,2.8,10.613,6.86.278,24.3.086,47.736.025,63.633-.188,17.4-.855,17.656-17.08-.728-48.029,1.737-69.787,8.382-33.469,8.814-42.529-4.622-15.471-11.033-23.792-14.176-18.553-19.651-23.789-8.658-5.479-25.53-8.318-47.43-8.276-71.429-8.839-41.433,3.749-56.962,10.983-29.149,17.389-36.237,24.357Z" transform="translate(125.324 245.057)"/><path class="p" d="M231.739,79.416a147.222,147.222,0,0,0-13.486,6.177c-5.13,2.631-10.233,5.555-16.16,7.574s-12.678,3.137-18.844,4.306-11.748,2.392-15.468,4.438-5.582,4.918-7.788,6.964-4.757,3.269-9.435,5.661A194.906,194.906,0,0,1,130,123.955c-9.073,3.466-20.417,6.834-26.225,8.959s-6.084,3.006-5.155,12.823,3.063,28.571,4.981,51.758,3.622,50.81,7,63.391,8.446,10.12,13.86,7.308,11.18-5.976,14.836-6.821,5.2.633,9.477,3.445,11.273,6.96,14.891,9.839,3.858,4.493,4.264,19.671.98,43.925.944,61.169-.683,22.986-2.362,39.3-4.391,43.192-5.747,58.452-1.355,18.9-.749,22.094a19.908,19.908,0,0,0,3.6,8.331c1.78,2.386,4.125,4.408,9.5,5.661s13.79,1.739,27.377,2.345,32.351,1.335,43.31.971,14.113-1.82,16.7-4.327,4.611-6.065,8.6-18.856,9.955-34.812,12.165-83.74.668-124.759-.6-164.046-2.268-42.03-6.427-49.112-11.477-18.5-16.453-28.712a128.2,128.2,0,0,1-9.806-28.667c-2.2-9.468-3.953-19.412-5.641-25.679s-3.307-8.857-4.738-10.115-2.674-1.183-5.873.023Z" transform="translate(92.744 74.107)"/><g class="q" transform="translate(190.962 152.588)"><g transform="translate(-4.535 -6.392)"><path class="r" d="M134.061,103.961c-3.981,7.566-5.241,20.683-5.4,26.525s.787,4.408,3.673,1.312,7.713-7.854,13.87-10.67,13.643-3.69,20.145-3.321a42.458,42.458,0,0,1,16.642,4.275,52.728,52.728,0,0,1,10.925,7.51c2.581,2.235,4.018,3.724,5.747,4.5s3.751.825,5.746,1.171,3.965.984,7.876,3.644,9.768,7.342,14.1,10.661,7.149,5.278,6.354-1.821-5.2-23.251-9.117-37.233-7.343-25.791-13.8-31.3-15.94-4.712-26.342-1.469-21.722,8.934-30.733,12.786-15.713,5.865-19.693,13.431Z" transform="translate(-64.95 -75.193)"/><path class="s" d="M127.123,115.214c3.619-1.452,11.225.68,16.98,3.92a35.084,35.084,0,0,1,11.811,10.826c2.153,3.24,2.556,5.372,3.234,15.062s1.631,26.936,2.135,37.05.556,13.094,1.656,22.075,3.248,23.963,4.44,34.45,1.429,16.48-2.026,17.832-10.6-1.937-25.854-5.14-38.616-6.317-42.864-22.671,10.619-45.947,18.407-65.132,8.5-27.964,8.665-34.872-.2-11.947,3.417-13.4Z" transform="translate(-95.885 -37.841)"/></g></g><path class="l" d="M231.739,79.416a147.222,147.222,0,0,0-13.486,6.177c-5.13,2.631-10.233,5.555-16.16,7.574s-12.678,3.137-18.844,4.306-11.748,2.392-15.468,4.438-5.582,4.918-7.788,6.964-4.757,3.269-9.435,5.661A194.906,194.906,0,0,1,130,123.955c-9.073,3.466-20.417,6.834-26.225,8.959s-6.084,3.006-5.155,12.823,3.063,28.571,4.981,51.758,3.622,50.81,7,63.391,8.446,10.12,13.86,7.308,11.18-5.976,14.836-6.821,5.2.633,9.477,3.445,11.273,6.96,14.891,9.839,3.858,4.493,4.264,19.671.98,43.925.944,61.169-.683,22.986-2.362,39.3-4.391,43.192-5.747,58.452-1.355,18.9-.749,22.094a19.908,19.908,0,0,0,3.6,8.331c1.78,2.386,4.125,4.408,9.5,5.661s13.79,1.739,27.377,2.345,32.351,1.335,43.31.971,14.113-1.82,16.7-4.327,4.611-6.065,8.6-18.856,9.955-34.812,12.165-83.74.668-124.759-.6-164.046-2.268-42.03-6.427-49.112-11.477-18.5-16.453-28.712a128.2,128.2,0,0,1-9.806-28.667c-2.2-9.468-3.953-19.412-5.641-25.679s-3.307-8.857-4.738-10.115-2.674-1.183-5.873.023Z" transform="translate(92.744 74.107)"/><path class="t" d="M237.907,63.473a73.109,73.109,0,0,0,6.866,10.676c3.792,4.615,9.224,9.211,11.957,11.857s2.769,3.343,2.8,4.126a5.255,5.255,0,0,0,.4,2.229c.331.574.957.853,12.707,6.283s34.624,16.012,46.16,21.462,11.737,5.771,11.657,6.612-.44,2.2-.5,2.945.18.861.981.8a18.679,18.679,0,0,1,3-.2c.841.1,1.162.541,2.236,3.048s2.9,7.081,5.591,18.75S348,182.5,352.538,206.74s10.082,53.972,13.245,72.846,3.95,26.9,4.557,35.012,1.032,16.318.552,22.177-1.864,9.377-8.565,28.985-18.714,55.31-26.333,77.924-10.841,32.143-12.515,37.037-1.8,5.154-1.875,4.774a22.268,22.268,0,0,0-.687-3.5,37.12,37.12,0,0,0-4.1-9.233,66.832,66.832,0,0,0-10.2-12.8c-4.181-4.076-8.908-7.468-13.91-12.389a145.3,145.3,0,0,1-13.2-15.291c-2.914-3.925-3.462-5.326-.263-11.543S289.4,403.5,293.922,391.921s6.626-23.706,7.886-31.066,1.682-9.953,1.181-15.621a158.754,158.754,0,0,0-2.89-18.393c-.969-3.983-1.488-3.206-2.184.4s-1.572,10.039-2.594,14.792-2.186,7.83-2.717,11.275-.424,7.263-.318,17.938.214,28.2.348,39.752.3,17.111.577,23.925.686,14.877.726,19.8-.282,6.693-2.217,8.951-5.483,5-15.313,11.534-25.938,16.863-36.1,23.522-14.366,9.652-17.532,11.248-5.291,1.8-6.895,1.5-2.686-1.1-4.33-2.826a37.426,37.426,0,0,1-6.014-8.439c-2.165-4.069-4.29-9.562-6.516-17.525a233.254,233.254,0,0,1-5.856-27.417c-1.3-9.019-1.58-16.624-1.912-50.982s-.719-95.468-.862-135.045-.043-57.619.343-67.891,1.056-12.772,2.276-16.034a123.793,123.793,0,0,1,7.348-15.429c4.36-8.141,11.313-20.4,15.038-28.793s4.225-12.927,4.231-16.475-.482-6.108-.513-7.6.4-1.92,2.165-3.14a71.258,71.258,0,0,0,8.049-6.1A54.113,54.113,0,0,0,238.361,97.1c2.623-4.086,4.635-8.538,4.406-13.849s-2.7-11.48-4.086-15.453-1.7-5.75-.774-4.321Z" transform="translate(179.728 59.474)"/><g class="u" transform="translate(370.062 122.459)"><g transform="translate(23.393 53.193)"><path class="v" d="M288.859,97.658c.553,4.019,1.251,10.571,1.508,15.954s.076,9.6.743,14.043,2.184,9.115,3.852,15.694a148.988,148.988,0,0,1,4.331,26.164,240.229,240.229,0,0,1-.707,39.766,411.128,411.128,0,0,1-6.842,44.154c-2.737,12.945-5.521,22.6-6.867,28.766s-1.252,8.861-.325,10.392,2.691,1.9,6.171.742a85.462,85.462,0,0,0,12.759-6.171c4.083-2.319,7.053-4.268,8.491-4.825s1.345.279-.232,3.944a175.327,175.327,0,0,1-8.816,17.4c-4.175,7.238-9.465,15.218-12.249,20.321s-3.062,7.331-2.505,9.512,1.949,4.315,2.459,6.82.139,5.382-2,11.529a145.113,145.113,0,0,1-11.413,24.725c-5.381,9.162-12.249,18.071-17.418,24.854s-8.641,11.442-10.371,13.526-1.718,1.594-4.058-1.3-7.029-8.178-9.026-11.657-1.3-5.149.25-8.2,3.945-7.48,7.011-12.716a96.1,96.1,0,0,0,10.2-21.973c3.406-10.7,6.483-26.055,6.88-37.437s-1.884-18.789-2.863-23.23-.654-5.917,2.2-18.87,8.225-37.383,13.082-67.484,9.2-65.875,11.509-87.06,2.591-27.78,2.935-30.335.753-1.067,1.305,2.952Z" transform="translate(-171.434 -87.415)"/><path class="v" d="M204.8,90.655a16.825,16.825,0,0,1,5.6-.132,7.851,7.851,0,0,1,5.439,3.855c1.7,2.548,3.366,6.694,4.752,9.7s2.5,4.885,3.274,5.637,1.228.383,3.6-2.561,6.681-8.463,8.858-11.143,2.232-2.522-.026,1.5-6.826,11.922-9.374,15.816-3.076,3.789-6.469,2.31-9.651-4.33-13.189-6.865-4.357-4.753-4.7-7.591a33.62,33.62,0,0,1,.092-8.16c.3-1.861.779-2.125,2.139-2.377Z" transform="translate(-202.366 -90.343)"/></g></g><path class="l" d="M237.907,63.473a73.109,73.109,0,0,0,6.866,10.676c3.792,4.615,9.224,9.211,11.957,11.857s2.769,3.343,2.8,4.126a5.255,5.255,0,0,0,.4,2.229c.331.574.957.853,12.707,6.283s34.624,16.012,46.16,21.462,11.737,5.771,11.657,6.612-.44,2.2-.5,2.945.18.861.981.8a18.679,18.679,0,0,1,3-.2c.841.1,1.162.541,2.236,3.048s2.9,7.081,5.591,18.75S348,182.5,352.538,206.74s10.082,53.972,13.245,72.846,3.95,26.9,4.557,35.012,1.032,16.318.552,22.177-1.864,9.377-8.565,28.985-18.714,55.31-26.333,77.924-10.841,32.143-12.515,37.037-1.8,5.154-1.875,4.774a22.268,22.268,0,0,0-.687-3.5,37.12,37.12,0,0,0-4.1-9.233,66.832,66.832,0,0,0-10.2-12.8c-4.181-4.076-8.908-7.468-13.91-12.389a145.3,145.3,0,0,1-13.2-15.291c-2.914-3.925-3.462-5.326-.263-11.543S289.4,403.5,293.922,391.921s6.626-23.706,7.886-31.066,1.682-9.953,1.181-15.621a158.754,158.754,0,0,0-2.89-18.393c-.969-3.983-1.488-3.206-2.184.4s-1.572,10.039-2.594,14.792-2.186,7.83-2.717,11.275-.424,7.263-.318,17.938.214,28.2.348,39.752.3,17.111.577,23.925.686,14.877.726,19.8-.282,6.693-2.217,8.951-5.483,5-15.313,11.534-25.938,16.863-36.1,23.522-14.366,9.652-17.532,11.248-5.291,1.8-6.895,1.5-2.686-1.1-4.33-2.826a37.426,37.426,0,0,1-6.014-8.439c-2.165-4.069-4.29-9.562-6.516-17.525a233.254,233.254,0,0,1-5.856-27.417c-1.3-9.019-1.58-16.624-1.912-50.982s-.719-95.468-.862-135.045-.043-57.619.343-67.891,1.056-12.772,2.276-16.034a123.793,123.793,0,0,1,7.348-15.429c4.36-8.141,11.313-20.4,15.038-28.793s4.225-12.927,4.231-16.475-.482-6.108-.513-7.6.4-1.92,2.165-3.14a71.258,71.258,0,0,0,8.049-6.1A54.113,54.113,0,0,0,238.361,97.1c2.623-4.086,4.635-8.538,4.406-13.849s-2.7-11.48-4.086-15.453-1.7-5.75-.774-4.321Z" transform="translate(179.728 59.474)"/><path class="k" d="M171.869,85.44c-.283,5.12,1.7,16.54,1.746,22.014s.278,5.8,1.571,7.531a50.619,50.619,0,0,1,5.012,7.738,24.946,24.946,0,0,1,2.072,8.116,26.186,26.186,0,0,0,2,8.29c1.35,2.885,3.742,5.913,7.594,11.837s9.165,14.745,11.938,19.246,3.005,4.683,1.836,1.442-3.739-9.905-6.247-16.213-4.95-12.259-6.2-16.19a42.262,42.262,0,0,1-1.727-8.979,100.5,100.5,0,0,0-2.232-11.317c-1.009-3.825-2.231-7.12-2.71-10.175s-.212-5.871-.531-8.1-1.222-3.879-3.13-6.914-4.82-7.458-6.49-9.862-4.218-3.581-4.5,1.539Z" transform="translate(163.933 77.617)"/><path class="k" d="M172.9,88.562a134.448,134.448,0,0,0-3.543,14.706c-1.4,6.95-2.95,15.648-3.741,20.119s-.821,4.715.3,3.088a84.037,84.037,0,0,1,5.566-7.574,15.876,15.876,0,0,1,6.189-4.608,37.282,37.282,0,0,1,4.912-1.17c.974-.289.974-.745.563-5.976S181.914,91.908,181.4,87s-.729-4.73-1.536-4.152-2.2,1.552-3.133,2.175a5.3,5.3,0,0,1-1.885.988c-.5.092-1.05,0-1.947,2.555Z" transform="translate(155.844 77.954)"/><path class="s" d="M67.231,202.278c-3.3,8.065-6.172,8.848-8.223,18.288a235.046,235.046,0,0,1-8.1,28.6c-2.769,7.384-3.887,15.6-5.733,19.939s-.923,6.22,0,9.1,3.1,7.33,6.679,15.419a301.257,301.257,0,0,1,12.889,33.834c4.311,14.017,7.938,30.324,6.734,44.292s-7.234,25.6-10.106,30.557-2.584,3.23-5.6-4.021-9.334-20.034-17.233-35.328-17.377-33.1-23.337-44.232S6.8,303.14,5.434,299.262s-1.651-7.18-2.585-11.13-2.513-8.545-2.8-13.356.719-9.837,2.945-21.9,5.673-31.163,7.827-42.221,3.016-14.073,3.088-20.751-.645-17.018-.143-27A116.888,116.888,0,0,1,18.7,134.512a128.843,128.843,0,0,1,8.557-20.819c2.157-4.072,2.778-4.258,5.168-2.147s6.55,6.519,12.945,17.26,15.026,27.815,20.147,38.96a140.828,140.828,0,0,1,8.092,20.864c1.355,4.5-3.076,5.583-6.374,13.648Z" transform="translate(0 104.075)"/><path class="w" d="M154.127,100.491c2.073,1.415,3.633,3.056,8.024,5.519s11.615,5.747,21.178,10.056,21.466,9.646,28.278,12.969,8.537,4.639,9.727,7.142,1.847,6.2,1.514,15.1-1.655,23.027-4.3,43.46-6.605,47.182-8.917,63.445-2.972,22.042-3.054,25.922.413,5.862.165,8.174a37.179,37.179,0,0,0-.413,12.3c.826,7.347,3.467,19.4,6.109,29.39s5.283,17.915,7.017,26.418,2.559,17.585,3.468,25.262,1.9,13.952,3.385,21.96,3.467,17.75,4.458,23.693.991,8.091-1.238,9.659-6.687,2.56-14.117,4.458-17.831,4.706-30.133,6.687-26.5,3.137-44.827,3.468-40.782-.165-58.036-1.321-29.307-2.972-36.713-4.538-10.164-2.883-11.79-4.075-2.117-2.259-1.789-3.983,1.477-4.1,3.592-19.98,5.194-45.247,7.608-65.675,4.162-31.916,5.487-45.178,2.229-28.3,2.311-43.042a216.123,216.123,0,0,0-4.65-48.364c-3.992-19.172-11.239-43.068-16.778-58.929A306.374,306.374,0,0,0,18.216,132c-2.105-4.8-2.483-6.586-2.078-7.693s1.592-1.538,12.224-5.616,30.709-11.8,47.315-16.4A172.594,172.594,0,0,1,116.71,95.8a150.1,150.1,0,0,1,26.744,1.168c6.014.922,8.6,2.11,10.673,3.525Z" transform="translate(15.103 90.342)"/><g class="x" transform="translate(31.097 186.016)"><g transform="translate(-12.283 -13.329)"><path class="t" d="M61.722,162.047c30.952-.693,90.086-.693,120.622-.139s32.477,1.662,33.1,11.841-.069,29.429-.277,40.854.069,15.026-2.424,16.826-7.754,1.8-38.361,1.8-86.555,0-114.421-.4S32.312,231.61,33,225.516s1.86-17.47,1.128-27.313a91.75,91.75,0,0,0-5.163-23.346c-1.8-5.193-2.769-7.27-1.87-9s3.67-3.115,34.622-3.808Z" transform="translate(6.453 -20.179)"/><path class="y" d="M130.348,107.852c-2.245,6.42-4.96,13.371-7.132,23.2s-3.8,22.535-5.377,37.685-3.095,32.743-3.855,46.21a239.63,239.63,0,0,0,0,33.124c.76,10.318,2.281,21.612,2.91,36.427a412.479,412.479,0,0,1-1.344,52.518c-1.71,19.366-4.87,39.762-7.025,55.418s-3.3,26.572-3.16,34.974,1.58,14.291,5.337,23.379,9.837,21.377,8.019,27.148-11.532,5.023-29.5,1.81-44.178-8.893-56.849-18.614-11.8-23.483-7.1-53.193S38.494,332.571,42.1,300.022s2.294-51.991-4.7-77-19.661-55.6-25.013-76.349S9,114.994,23.749,107.894,66.019,97.518,85.68,94.787s31.457-4.915,38.556-5.68,9.5-.11,9.817,3.162-1.46,9.162-3.7,15.582Z" transform="translate(-9.677 -88.818)"/></g></g><path class="l" d="M154.127,100.491c2.073,1.415,3.633,3.056,8.024,5.519s11.615,5.747,21.178,10.056,21.466,9.646,28.278,12.969,8.537,4.639,9.727,7.142,1.847,6.2,1.514,15.1-1.655,23.027-4.3,43.46-6.605,47.182-8.917,63.445-2.972,22.042-3.054,25.922.413,5.862.165,8.174a37.179,37.179,0,0,0-.413,12.3c.826,7.347,3.467,19.4,6.109,29.39s5.283,17.915,7.017,26.418,2.559,17.585,3.468,25.262,1.9,13.952,3.385,21.96,3.467,17.75,4.458,23.693.991,8.091-1.238,9.659-6.687,2.56-14.117,4.458-17.831,4.706-30.133,6.687-26.5,3.137-44.827,3.468-40.782-.165-58.036-1.321-29.307-2.972-36.713-4.538-10.164-2.883-11.79-4.075-2.117-2.259-1.789-3.983,1.477-4.1,3.592-19.98,5.194-45.247,7.608-65.675,4.162-31.916,5.487-45.178,2.229-28.3,2.311-43.042a216.123,216.123,0,0,0-4.65-48.364c-3.992-19.172-11.239-43.068-16.778-58.929A306.374,306.374,0,0,0,18.216,132c-2.105-4.8-2.483-6.586-2.078-7.693s1.592-1.538,12.224-5.616,30.709-11.8,47.315-16.4A172.594,172.594,0,0,1,116.71,95.8a150.1,150.1,0,0,1,26.744,1.168c6.014.922,8.6,2.11,10.673,3.525Z" transform="translate(15.103 90.342)"/><path class="z" d="M186.352,71.007c.543-1.664.867-4.528-.025-8.959a48.1,48.1,0,0,0-6.4-15.723c-3.4-5.3-8.1-9.888-15.453-14.049a92.8,92.8,0,0,0-27.882-9.834,85.484,85.484,0,0,0-31.4-.173,65.916,65.916,0,0,0-25.8,11.352A60.907,60.907,0,0,0,60.353,55.073a75.081,75.081,0,0,0-8.342,33.735c-.123,12.492,2.917,25.558,5.185,35.439s3.764,16.576,3.814,22.266-1.347,10.374-4.594,13.537-8.342,4.809-13.4,7.6a41.448,41.448,0,0,0-13.807,12c-3.739,5.26-6.205,11.835-7.4,15.286s-1.11,3.781,2.342,2.3,10.273-4.766,13.888-6.41,4.028-1.644,3.945.041a20.1,20.1,0,0,1-2.26,7.972,31.522,31.522,0,0,1-6.081,7.149c-1.849,1.767-2.917,2.836-1.562,3.083s5.137-.329,10.026-1.6a63.757,63.757,0,0,0,16.355-6.493c5.465-3.246,10.4-7.766,13.026-10.026s2.958-2.26,2.465-.041a26.276,26.276,0,0,1-4.479,10.027c-2.67,3.37-6.7,5.67-9.862,7.232s-5.465,2.383-6.287,3.041-.164,1.15,3.657,1.6A103.276,103.276,0,0,0,74,213.265a44.669,44.669,0,0,0,15.821-3.616A25.372,25.372,0,0,0,99.4,201.8a42.664,42.664,0,0,0,5.629-10.108,30.973,30.973,0,0,0,2.26-9.41c.206-3.041-.123-6.082.74-7.931s2.918-2.506,5.643-3.917a41.9,41.9,0,0,0,8.715-5.974,25.909,25.909,0,0,0,5.688-7.687,37.694,37.694,0,0,0,2.846-8.332,72.744,72.744,0,0,1,2.718-10.167c1.46-3.884,3.821-8.358,4.779-13.95s.515-12.3.721-17.619,1.064-9.25,2.958-12.717a25.681,25.681,0,0,1,8.612-8.969,114.81,114.81,0,0,1,10.851-5.782c2.418-1.279,2.608-1.837,2.811-3.275s.42-3.755.574-4.728.247-.6.556.665.834,3.43,1.22,4.65.634,1.5,1.545,1.436a21.3,21.3,0,0,0,3.986-.927,10.975,10.975,0,0,0,3.631-1.622c.711-.633.711-1.375.633-3s-.231-4.125-.247-5.3.108-1.019.556.325,1.221,3.878,1.777,5.237.9,1.545,1.807,1.5a15.4,15.4,0,0,0,3.517-.7,3.283,3.283,0,0,0,2.425-2.5Z" transform="translate(19.945 19.733)"/><g class="aa" transform="translate(41.068 40.63)"><g transform="translate(69.328 -9.211)"><path class="ab" d="M107.228,24.677c2.311,4.7,7.019,12.441,9.535,16.986s2.841,5.9,2.733,6.25-.65-.3-2.409-1.948a28.25,28.25,0,0,0-8.657-5.871,23.966,23.966,0,0,0-12.716-1.3c-3.923.758-6.9,2.759-10.145,7.278S78.8,57.626,76.8,61.9s-2.489,5.789-.27,4.789,7.142-4.518,10.659-6.25,5.628-1.677,5.682-.406-1.947,3.761-4,7.088a44.366,44.366,0,0,0-5.087,11.011,16.188,16.188,0,0,0-.3,7.71c.352,1.326.785,1.11,1.542-.784a56.94,56.94,0,0,1,3.679-8.6c1.84-3.138,4.438-5.844,7.143-9.307s5.519-7.683,7.142-9.821,2.057-2.191,2.327-1.083.379,3.382-.567,7a37.15,37.15,0,0,1-5.8,12.305c-2.85,3.74-6.552,6.268-9.185,9.4a25.248,25.248,0,0,0-4.912,9.663,16.161,16.161,0,0,0-.214,7.118,27.094,27.094,0,0,0,2.046,7.794,6.6,6.6,0,0,0,5.78,3.875c2.987.3,7.287-.457,12.2-2.112a49.988,49.988,0,0,0,16.491-9.229c6.056-5.019,12.646-12.5,17.711-18.55s8.6-10.655,9.384-18.6a48.788,48.788,0,0,0-6.625-28.148,49.911,49.911,0,0,0-20.987-18.477c-6.666-2.963-11.111-2.3-13.376-1.141s-2.35,2.832-.039,7.535Z" transform="translate(-39.507 -16.16)"/><path class="ab" d="M109.151,66.771a109.386,109.386,0,0,1-7.652,8.217A43.144,43.144,0,0,1,90.481,82c-4.8,2.308-11.206,4.944-15.939,7.392a39.375,39.375,0,0,0-10.5,7.44,21.123,21.123,0,0,0-6.216,12.03c-1.154,6.1-1.106,15.091-.989,20.247s.306,6.475,1.483,3.72,3.343-9.582,6.121-13.985,6.169-6.38,10.736-8.146,10.312-3.32,16.48-6.9,12.76-9.182,16.833-16.668,5.627-16.856,5.886-21.071-.777-3.272-1.7-2.543a22.064,22.064,0,0,0-3.531,3.249Z" transform="translate(-56.78 27.964)"/></g></g><path class="l" d="M186.352,71.007c.543-1.664.867-4.528-.025-8.959a48.1,48.1,0,0,0-6.4-15.723c-3.4-5.3-8.1-9.888-15.453-14.049a92.8,92.8,0,0,0-27.882-9.834,85.484,85.484,0,0,0-31.4-.173,65.916,65.916,0,0,0-25.8,11.352A60.907,60.907,0,0,0,60.353,55.073a75.081,75.081,0,0,0-8.342,33.735c-.123,12.492,2.917,25.558,5.185,35.439s3.764,16.576,3.814,22.266-1.347,10.374-4.594,13.537-8.342,4.809-13.4,7.6a41.448,41.448,0,0,0-13.807,12c-3.739,5.26-6.205,11.835-7.4,15.286s-1.11,3.781,2.342,2.3,10.273-4.766,13.888-6.41,4.028-1.644,3.945.041a20.1,20.1,0,0,1-2.26,7.972,31.522,31.522,0,0,1-6.081,7.149c-1.849,1.767-2.917,2.836-1.562,3.083s5.137-.329,10.026-1.6a63.757,63.757,0,0,0,16.355-6.493c5.465-3.246,10.4-7.766,13.026-10.026s2.958-2.26,2.465-.041a26.276,26.276,0,0,1-4.479,10.027c-2.67,3.37-6.7,5.67-9.862,7.232s-5.465,2.383-6.287,3.041-.164,1.15,3.657,1.6A103.276,103.276,0,0,0,74,213.265a44.669,44.669,0,0,0,15.821-3.616A25.372,25.372,0,0,0,99.4,201.8a42.664,42.664,0,0,0,5.629-10.108,30.973,30.973,0,0,0,2.26-9.41c.206-3.041-.123-6.082.74-7.931s2.918-2.506,5.643-3.917a41.9,41.9,0,0,0,8.715-5.974,25.909,25.909,0,0,0,5.688-7.687,37.694,37.694,0,0,0,2.846-8.332,72.744,72.744,0,0,1,2.718-10.167c1.46-3.884,3.821-8.358,4.779-13.95s.515-12.3.721-17.619,1.064-9.25,2.958-12.717a25.681,25.681,0,0,1,8.612-8.969,114.81,114.81,0,0,1,10.851-5.782c2.418-1.279,2.608-1.837,2.811-3.275s.42-3.755.574-4.728.247-.6.556.665.834,3.43,1.22,4.65.634,1.5,1.545,1.436a21.3,21.3,0,0,0,3.986-.927,10.975,10.975,0,0,0,3.631-1.622c.711-.633.711-1.375.633-3s-.231-4.125-.247-5.3.108-1.019.556.325,1.221,3.878,1.777,5.237.9,1.545,1.807,1.5a15.4,15.4,0,0,0,3.517-.7,3.283,3.283,0,0,0,2.425-2.5Z" transform="translate(19.945 19.733)"/><path class="k" d="M177.646,24.572c-4.052,5.816-8.464,15.229-11.691,23.245a110.191,110.191,0,0,0-6.213,19.608,35.593,35.593,0,0,0-.162,12.83c.619,4.519,1.695,10.221,1.372,14.39s-2.044,6.805-3.389,9.522a26.822,26.822,0,0,0-2.609,7.693,6.245,6.245,0,0,0,1.184,5.123,16.412,16.412,0,0,0,5.014,3.716c2.082,1.123,4.42,2.162,5.419,3.123s.662,1.844.454,3.675a31.2,31.2,0,0,0-.065,6.309c.221,1.7.74,2.325.636,3.09s-.831,1.675-.688,2.713a7.391,7.391,0,0,0,1.961,3.129,5.258,5.258,0,0,1,1.544,3.9c.143,2.3-.168,6.219.546,8.984a7.548,7.548,0,0,0,4.583,5.285c2.13.909,4.648,1.116,9.4-.078a147.821,147.821,0,0,0,18.965-6.842c7.229-3.05,14.7-6.555,19.643-9.695a30.376,30.376,0,0,0,9.173-8.466,25.7,25.7,0,0,0,4.232-9.194c1.168-4.306,2.262-10.581,2.955-13.792s.985-3.357,1.423-2.481,1.022,2.773,2.773,3.43,4.671.073,8.465-1.35a30.126,30.126,0,0,0,13.025-9.011c4.561-5.327,9.012-13.718,10.763-25.212s.8-26.086-3.576-37.762A50.418,50.418,0,0,0,252.06,14.871c-8.537-5.144-17.805-6.677-28.422-6.167a136.214,136.214,0,0,0-30.415,5.45c-7.831,2.385-11.524,4.6-15.577,10.416Z" transform="translate(146.228 8.132)"/><g class="ac" transform="translate(301.085 16.744)"><g transform="translate(-0.246 20.571)"><path class="i" d="M168.65,21.963a35.537,35.537,0,0,1,.627,4.587,24.1,24.1,0,0,0,1.961,6.562c.98,2.013,2.275,3.553,2.888,4.8s.542,2.187-.788,5.7-3.919,9.608-5.25,13.6-1.4,5.881-.634,9.406,2.368,8.687,2.891,12.167-.033,5.28-2.137,8.51-5.757,7.888-7.49,10.548-1.548,3.322-.924,4.364a42.348,42.348,0,0,0,3,4.106c1.308,1.64,2.861,3.5,3.265,4.987s-.341,2.611-2.983,1.506a13.96,13.96,0,0,1-8.134-10.208c-.952-5.77,1.682-13.977,2.294-23.225s-.8-19.538-1.256-27.071.031-12.31,2-17.09a46.682,46.682,0,0,1,7.507-11.9c2.09-2.337,2.821-2.228,3.168-1.352Z" transform="translate(-154.731 -17.119)"/><path class="i" d="M187.577,24.378c-2.851,4.13-1.925,9.768-2.227,15.588a72.413,72.413,0,0,1-3.383,16.9c-1.551,5.075-3.122,9.224-3.686,12.244s-.121,4.914,1.409,5.9,4.149,1.068,9.473.551,13.352-1.632,17.34-1.87,3.935.4,2.71,2.559-3.622,5.833-5.14,8.523-2.157,4.395-3.485,5.712-3.345,2.249-5.349,4.011-4,4.357-6.173,9.082a141.4,141.4,0,0,0-5.606,15.055c-1.066,3.475-.833,3.567.371,3.127a37.112,37.112,0,0,1,4.656-1.644c1.274-.231,1.644.278,1.575,1.228a19.285,19.285,0,0,1-1.552,4.748,71.269,71.269,0,0,1-4.007,8.593c-1.6,2.757-3.358,4.841-4.169,6.717s-.671,3.544,1.981,3.967,7.818-.4,14.547-5.372,15.022-14.107,22.885-20.581,15.3-10.289,21.119-16.9A41.294,41.294,0,0,0,250.96,75.342,54.728,54.728,0,0,0,238.345,41c-8.572-10.342-21.617-18.169-31.453-20.773s-16.464.016-19.315,4.146Z" transform="translate(-132.715 -19.192)"/><path class="i" d="M159.578,74.716c2.041.549,5.7,1.8,8.317,2.513a11.234,11.234,0,0,0,6.443.335,69.116,69.116,0,0,0,6.565-2.392c1.432-.518,1.4-.243-.3.883s-5.087,3.108-6.991,4.631-2.331,2.589-2.24,4.341a16.38,16.38,0,0,0,1.843,6.352,14.81,14.81,0,0,0,4.859,5.407c2.041,1.356,4.448,2.178,5.27,3.107s.061,1.966-2.939,1.919-8.24-1.172-11.759-4.691-5.316-9.429-7.159-13.221-3.731-5.468-4.539-6.686-.532-1.98-.182-2.437.777-.609,2.817-.061Z" transform="translate(-153.138 32.907)"/><path class="i" d="M160.928,73.3a51.412,51.412,0,0,1,3.722-4.821c1.232-1.271,2.132-1.537,2.728-1.51s.888.344.809,1.444-.53,2.981-.557,4.518a5.358,5.358,0,0,0,1.126,3.643,21.081,21.081,0,0,0,2.384,2.053c.517.5.438.874-1.576.847a28.74,28.74,0,0,1-7.974-1.245c-2.013-.8-2.092-1.96-1.987-2.675s.4-.981,1.324-2.253Z" transform="translate(-150.157 25.921)"/></g></g><path class="l" d="M177.646,24.572c-4.052,5.816-8.464,15.229-11.691,23.245a110.191,110.191,0,0,0-6.213,19.608,35.593,35.593,0,0,0-.162,12.83c.619,4.519,1.695,10.221,1.372,14.39s-2.044,6.805-3.389,9.522a26.822,26.822,0,0,0-2.609,7.693,6.245,6.245,0,0,0,1.184,5.123,16.412,16.412,0,0,0,5.014,3.716c2.082,1.123,4.42,2.162,5.419,3.123s.662,1.844.454,3.675a31.2,31.2,0,0,0-.065,6.309c.221,1.7.74,2.325.636,3.09s-.831,1.675-.688,2.713a7.391,7.391,0,0,0,1.961,3.129,5.258,5.258,0,0,1,1.544,3.9c.143,2.3-.168,6.219.546,8.984a7.548,7.548,0,0,0,4.583,5.285c2.13.909,4.648,1.116,9.4-.078a147.821,147.821,0,0,0,18.965-6.842c7.229-3.05,14.7-6.555,19.643-9.695a30.376,30.376,0,0,0,9.173-8.466,25.7,25.7,0,0,0,4.232-9.194c1.168-4.306,2.262-10.581,2.955-13.792s.985-3.357,1.423-2.481,1.022,2.773,2.773,3.43,4.671.073,8.465-1.35a30.126,30.126,0,0,0,13.025-9.011c4.561-5.327,9.012-13.718,10.763-25.212s.8-26.086-3.576-37.762A50.418,50.418,0,0,0,252.06,14.871c-8.537-5.144-17.805-6.677-28.422-6.167a136.214,136.214,0,0,0-30.415,5.45c-7.831,2.385-11.524,4.6-15.577,10.416Z" transform="translate(146.228 8.132)"/><path class="i" d="M224.823,58.443a63.459,63.459,0,0,1-5.518,15.336c-3.083,5.951-7.574,12.01-9.629,15.661s-1.677,4.9-1.46,7.357a65.325,65.325,0,0,1,.135,8.223c-.135,2.082-.46,2.57-3.355,6.248s-8.357,10.549-10.63,13.822-1.352,2.949,5.409-1.893,19.368-14.2,26.454-19.556,8.656-6.707,9.17-8.222-.027-3.192-.352-5.031a32.009,32.009,0,0,1-.216-7.709c.216-3.868.757-9.6.831-14.853s-.32-10.019-2.132-12.508a6.224,6.224,0,0,0-6.578-2.18c-1.534.518-1.372,1.762-2.129,5.305Z" transform="translate(182.483 49.959)"/><path class="z" d="M219.429.54A91.893,91.893,0,0,0,202.16,4.171a122.622,122.622,0,0,0-19.1,8.58c-5.783,3.12-10.517,6.026-14.068,9.872a30.764,30.764,0,0,0-7.1,13.448,32.715,32.715,0,0,0-.807,11.7c.377,2.044,1.129,1.291,2.071.027s2.072-3.04,2.771-3.309.969.969,1.345,2.286a12.872,12.872,0,0,0,1.963,4.25,13.2,13.2,0,0,0,5.11,4.25,15.25,15.25,0,0,0,6.187,1.372c1.049-.107.3-.753-.753-1.937a28.6,28.6,0,0,1-3.093-4.142c-.7-1.237-.752-1.99,1.238-1.129s6.025,3.335,11.27,4.33,11.7.511,18.128-.645,12.831-2.985,16.569-3.577,4.815.054,5.137,1.426-.107,3.47-1.722,6.509-4.411,7.021-5.594,9.469-.753,3.362.484,5.271a36.047,36.047,0,0,1,4.708,9.226,88.713,88.713,0,0,1,2.77,14.417c.538,4.088.807,6.348,2.394,7.531a6.327,6.327,0,0,0,6.51.081c2.017-1.21,3.147-3.739,5.755-7.209s6.7-7.88,10.087-10.167,6.079-2.447,8.285-1.075,3.927,4.277,3.927,8.634a31.425,31.425,0,0,1-4.088,14.228c-2.367,4.062-5.379,6.375-6.752,7.989s-1.1,2.528.861,5.056a81.265,81.265,0,0,0,7.5,8.339c1.883,1.668,1.991.861,2.5-1.963a107.354,107.354,0,0,1,4.115-15.79c2.69-8.123,7.155-19.528,10.49-28.538s5.54-15.627,6.428-21.733a35.1,35.1,0,0,0-1.748-17.78,56.916,56.916,0,0,0-12.131-19.016,89.805,89.805,0,0,0-21.41-16.7A66.409,66.409,0,0,0,232.447.6,37.8,37.8,0,0,0,219.429.541Z" transform="translate(151.902)"/><path class="ab" d="M87.16,54.756a16.314,16.314,0,0,1-2.785,7.184c-2,2.785-5.544,5.7-8.668,8.3s-5.831,4.894-7.627,8.876S65.4,88.777,65.061,91.771s-.13,3.305.781,1.8,2.525-4.841,4.894-7.288,5.492-4.009,8.147-5.883a21.23,21.23,0,0,0,6.377-6.742A22.857,22.857,0,0,0,87.994,64a59.436,59.436,0,0,0-.156-10.022c-.208-1.8-.364-.962-.677.781Z" transform="translate(61.291 50.019)"/><path class="w" d="M155.647,43.619A5.452,5.452,0,0,0,152.1,46.1c-.719,1.318-.788,3.167-.72,6.077a41.74,41.74,0,0,0,.976,9.228,4.832,4.832,0,0,0,3.595,3.646,38.373,38.373,0,0,0,5.12,1.25c1.233.223,1.506.223,2.6-1.541s3.014-5.289,4.606-7,2.858-1.609,3.749-.719,1.4,2.568,2.585,5.358a48.785,48.785,0,0,0,4.639,8.833c1.609,2.14,2.979,2.517,5.735,2.723a38.811,38.811,0,0,0,9.484-.325c2.585-.565,3.613-1.729,4.143-3.68s.565-4.691.839-6.266.787-1.986,2.653-2.226,5.084-.308,7.1-.5,2.842-.5,8.132-2.226,15.049-4.878,19.945-6.676,4.931-2.243,4.948-2.74a9.165,9.165,0,0,0-.034-1.4c-.051-.36-.155-.53-5.65.822S220.17,52.966,214.64,54.4s-5.7,1.439-7.5,1.456-5.221.051-6.967,0-1.815-.189-1.952-.959a7.744,7.744,0,0,0-1.061-3.167c-.719-.993-1.951-1.575-4.964-2.072a93.255,93.255,0,0,0-10.562-.975c-2.756-.068-3.475.205-4.434,1.043a23.826,23.826,0,0,1-3.287,2.877,3.589,3.589,0,0,1-2.979.239c-.787-.256-1.3-.633-1.8-1.9s-.976-3.424-2.465-4.845-3.988-2.105-6.009-2.465a11.479,11.479,0,0,0-5.016-.017Z" transform="translate(142.928 40.935)"/><path class="s" d="M167.736,47.988a9.3,9.3,0,0,0-2.1.848c-.581.372-.819.819-.357,3.707a86.424,86.424,0,0,0,2.59,11.077c.968,2.858,1.742,3.246,4.019,3.439a60.764,60.764,0,0,0,8.055.03c2-.164,2.2-.492,2.606-2.5a42.661,42.661,0,0,0,.907-8.59c-.089-2.888-.863-4.972-2.1-6.238s-2.932-1.712-5.091-1.92a53.913,53.913,0,0,0-6.223-.134,7.145,7.145,0,0,0-2.308.283Z" transform="translate(155.84 45.016)"/><path class="s" d="M163.051,47.233A16.689,16.689,0,0,1,164.927,52c.327,1.28.327,1.638-.626,3.171a31.971,31.971,0,0,1-4.258,5.524,2.868,2.868,0,0,1-3.246.848,9.316,9.316,0,0,1-2.561-1.131c-.6-.432-.774-.878-.893-3.305a55.807,55.807,0,0,1,.209-9.2c.387-2.367,1.221-2.695,2.352-2.8a14.954,14.954,0,0,1,3.841.253,4.588,4.588,0,0,1,3.3,1.876Z" transform="translate(144.714 42.554)"/></g></g></g></svg>