<svg xmlns="http://www.w3.org/2000/svg" xmlns:xlink="http://www.w3.org/1999/xlink" width="600" height="955" viewBox="0 0 600 955"><defs><style>.a{fill:#e65c5c;}.b{clip-rule:evenodd;}.aa,.ad,.c,.g,.h,.i,.j,.l,.m,.n,.o,.q,.s,.v,.w,.x,.y{fill-rule:evenodd;}.d{fill:#e5f3e0;}.e{fill:#fbf6f1;}.f{clip-path:url(#a);}.g{fill:#b3b3b3;}.h,.u{fill:#ccc;}.i{fill:#ebebeb;}.j,.z{fill:#262623;}.k{clip-path:url(#b);}.l{fill:rgba(38,38,35,0.4);}.m{fill:none;}.n{fill:#fff;}.o{fill:#acacac;}.p{clip-path:url(#c);}.q{fill:#f07f57;}.r{clip-path:url(#d);}.s{fill:#af5c3f;}.t{fill:#e6e6e6;}.v{fill:#d3d2d2;}.w{fill:#b31212;}.x{fill:#d01414;}.y{fill:#c46949;}.aa{fill:purple;}.ab{clip-path:url(#e);}.ac{clip-path:url(#f);}.ad{fill:#f7f5f6;}</style><clipPath id="a"><path class="a" d="M-150,1.53,450,0V951.855l-600,2.681Z" transform="translate(970 768.463)"/></clipPath><clipPath id="b"><path class="b" d="M233.808,111.519c1.353,8.089,3.071,17.644,3.807,27.127s.49,18.895.459,25.662.154,10.889,5.537,13.965,15.964,5.106,27.806,5.29a166.825,166.825,0,0,0,32.2-2.953c7.259-1.476,8.674-2.768,9.474-5.813s.985-7.843.892-12.949-.461-10.519-.586-15.827a54.712,54.712,0,0,1,2.211-18.192c2.216-7.684,6.529-17.849,3.509-26.352s-13.372-15.346-27.338-18-31.546-1.113-42.366.7S234.537,88.088,233,92.446s-.546,10.983.807,19.072Z" transform="translate(-232.224 -82.056)"/></clipPath><clipPath id="c"><path class="b" d="M237.952,155.791c44.59,72.061,95.23,24.475,109.153-41a246.416,246.416,0,0,0,4.77-34.089c.8-11.877.608-23.755-1.964-33.621s-7.529-17.723-19.359-23.007-30.535-8-48.585-7.295S246.521,21.6,235.579,32.493s-15.431,28.571-15.5,47.161c-.075,20.729,6.645,57.99,17.872,76.137Z" transform="translate(-220.08 -16.672)"/></clipPath><clipPath id="d"><path class="b" d="M372.139,124.475c-1.231,1.862-3.021,6.689-7.666,10.588s-12.145,6.871-20.069,8.109a64.253,64.253,0,0,1-23.738-.955c-7.465-1.7-14.044-4.6-17.924-7.536s-5.058-5.909-7.606-3.928-6.462,8.916-10.648,14.718a69.494,69.494,0,0,1-13.4,14.2c-4.753,3.73-9.8,6.521-16.6,9.828a260.547,260.547,0,0,1-24.981,10.63c-9.642,3.5-20.383,6.672-27.95,9.845s-11.961,6.347-14.586,9.364-3.482,5.876-7.221,32.006-10.36,75.53-15.123,109.593-7.669,52.789-9.606,62.474-2.906,10.331-7.695,13.183-13.4,7.911-14.1,11.731,6.511,6.4,13.56,10.869,13.937,10.816,16.681,15.981,1.345,9.148,1.13,11.193.753,2.152,6.188,2.206,15.335.054,22.331-.538,11.085-1.776,14.313-3.928,5.6-5.274,8.017-13.668,4.9-22.062,6.277-27.79,1.667-3.519,2.023,4.915.783,23.095,20.282,29.784,58.07,5.408,96.142,4.768,75.647-.64,94.505-3.914,19-9.82,19.5-25.192,1.352-39.567,1.85-51.665.64-12.1,3.914-4.91S469.627,398,472.616,405.4s2.562,7.829-.64,8.9-9.18,2.775-12.311,3.843-3.415,1.495-3.7,9.251-.569,22.844-.374,30.435.87,7.686,6.659,8.06,16.694,1.024,29.588,1.659,27.779,1.254,36.728,1.349,11.965-.336,14.888-2.152a21.208,21.208,0,0,0,7.538-8.8,27.123,27.123,0,0,0,2.339-12.676c-.184-4.523-1.292-9.2-11.424-42.938s-29.288-96.538-39.927-133.458-12.763-47.959-14.6-56.027-3.4-13.163-5.838-17.515a25.33,25.33,0,0,0-10.51-10.438c-4.741-2.477-10.9-3.821-15.362-4.805s-7.236-1.607-17.211-5.745-27.153-11.79-37.161-16.366-12.843-6.074-15.278-8.536a32.324,32.324,0,0,1-6.285-10.15c-1.817-4.264-3.417-9.366-4.553-12.469s-1.808-4.207-3.039-2.344Z" transform="translate(-133.189 -123.565)"/></clipPath><clipPath id="e"><path class="b" d="M113.66,352.432c-.195-1.1-.089-2.937,1.079-7.8s3.4-12.756,5.042-17.869,2.706-7.449,3.98-8.811,2.76-1.751,4.76-2.088,4.511-.619,6.333-1.062,2.955-1.043,4.105-1.185a6.093,6.093,0,0,1,3.167.566,9.707,9.707,0,0,0,7.927,1.008c1.627-.584,2.689-1.893,4.458-2.583a10.735,10.735,0,0,1,6.263-.212c2.017.549,3.574,1.716,5.927,3.114a85.54,85.54,0,0,1,7.608,4.636,10.515,10.515,0,0,1,3.892,5.308c.725,2.105,1.115,4.724,2.159,7.448a48.824,48.824,0,0,0,4.423,8.209c1.681,2.654,3.344,5.131,3.521,7.59a9.332,9.332,0,0,1-2.636,6.564,9.693,9.693,0,0,1-5.627,3.061c-2.424.513-5.573.655-8.085,1.362s-4.388,1.982-5.75,2.353-2.212-.159-2.672-1.858a18.514,18.514,0,0,1-.23-6.511,24.937,24.937,0,0,1,1.433-4.459,17.208,17.208,0,0,0,.619-5.644,13.552,13.552,0,0,0-1.822-6.741,12.054,12.054,0,0,0-4.972-4.282c-1.468-.6-2.212-.177-3.079.956a28.942,28.942,0,0,0-2.937,5.378c-1.079,2.406-2.247,5.379-3.45,7.449a9.138,9.138,0,0,1-3.592,3.8,5.164,5.164,0,0,1-3.361.336,8.487,8.487,0,0,1-3.078-1.026c-.69-.478-.832-1.079-.673-3.68s.619-7.2.937-10.032.5-3.892.3-4.547-.761-.9-1.84-.637a7.346,7.346,0,0,0-4.052,2.919c-1.38,1.875-2.548,4.848-4.016,8.12a67.573,67.573,0,0,1-4.777,9.129c-1.54,2.283-2.848,3.274-4.493,3.645a11.593,11.593,0,0,1-4.866-.177c-1.238-.3-1.734-.654-1.929-1.751Z" transform="translate(-113.582 -312.029)"/></clipPath><clipPath id="f"><path class="b" d="M141.381,314.965a76.859,76.859,0,0,1-4.657,7.211c-2.051,2.554-3.431,2.59-4.418,4.429a34.005,34.005,0,0,0-1.81,5.719c-.044.717-.182,1.764-.367,3.4-.319,2.831-.778,7.431-.937,10.032a19.337,19.337,0,0,0-.049,2.018c.966,1.761,2.438,1.372,4.057.345a17.544,17.544,0,0,0,5.545-6.18c1.965-3.305,4.025-8.126,5.92-11.87a92.879,92.879,0,0,1,5.261-8.951c1.634-2.54,3.169-4.952,6.045-4.748s7.09,3.024,9.45,5.3,2.865,4.016,3.712,6.595a72.582,72.582,0,0,0,3.349,8.689,17.155,17.155,0,0,0,3.927,5.581c.054.043.106.084.159.122-.32-.512-.652-1.031-.985-1.556a48.81,48.81,0,0,1-4.423-8.209c-1.044-2.724-1.434-5.343-2.159-7.448a10.513,10.513,0,0,0-3.892-5.308,85.464,85.464,0,0,0-7.608-4.636c-2.353-1.4-3.91-2.565-5.927-3.113a10.734,10.734,0,0,0-6.263.212c-1.57.612-2.583,1.712-3.928,2.36Z" transform="translate(-129.133 -312.029)"/></clipPath></defs><g transform="translate(0 -2306)"><rect class="d" width="600" height="955" transform="translate(0 2306)"/><rect class="e" width="600" height="236" transform="translate(0 3025)"/><g transform="translate(-820 1538)"><g class="f"><g transform="translate(741.943 935)"><ellipse class="e" cx="421.057" cy="15.689" rx="421.057" ry="15.689" transform="translate(0 535.287)"/><path class="g" d="M142.008,359.776a79,79,0,0,0,12.8-2.611,23.682,23.682,0,0,0,8.632-4.266c2.261-1.741,4.606-3.944,5.252-5.829s-.405-3.453-4.2-7.209-10.325-9.7-13.806-12.781-3.912-3.295-4.932,1.2a151.911,151.911,0,0,0-2.982,19.448,28.5,28.5,0,0,0,.708,9.156c.153,1.153-.446,1.192-1.452,1.665s-2.418,1.379-.019,1.226Z" transform="translate(83.253 192.218)"/><path class="h" d="M113.7,359.057a38.869,38.869,0,0,1,2.03-16.954c2.386-6.732,7.017-13.356,11.968-17.168s10.222-4.808,16.527-4.524,13.641,1.852,18.058,4.06,5.912,5.058,7.009,5.955,1.793-.158-.273,1.589-6.9,6.3-8.306,11.932.6,12.362.639,15.625-1.889,3.066-9.7,2.943-21.493-.169-28.906-.158-8.553.083-9.051-3.3Z" transform="translate(67.147 189.578)"/><path class="i" d="M123.455,320.928c-.733-.448-3.38.693-5.457,2.24a28.754,28.754,0,0,0-4.724,4.846c-1.141,1.344-1.914,2.078-2.525,2.729s-1.059,1.222-1.141,3.828.2,7.25.53,10.956.692,6.476.814,8.7,0,3.889.9,4.806a4.364,4.364,0,0,0,3.91.733c1.1-.346,1.385-1.2,2.016-4.419s1.609-8.8,2.342-14.173,1.222-10.549,2.057-14.153,2.016-5.64,1.283-6.089Z" transform="translate(64.852 189.853)"/><path class="j" d="M313.3,84.562a49.379,49.379,0,0,1-7.933,11.806c-3.657,3.953-8.122,7.073-10.7,7.772s-3.281-1.022-2.421-5.083a95.559,95.559,0,0,1,4.828-14.123c1.547-3.662,2.219-4.585,5.016-5.15a30.843,30.843,0,0,1,10.178-.2c2.461.569,2.461,1.914,1.035,4.98Z" transform="translate(172.731 46.893)"/><path class="j" d="M250.682,11.866A48.526,48.526,0,0,0,236.6,19.443a54.668,54.668,0,0,0-13.564,16c-3.695,6.5-6.314,13.985-8,23.9a113.711,113.711,0,0,0-.608,34.751c1.824,12.488,6.221,25.116,8.98,36.013a114.825,114.825,0,0,1,3.788,30.869,156.265,156.265,0,0,1-5.566,39.147c-4.163,15.9-11.178,35.265-14.873,46.022s-4.069,12.909,4.677,11.085,26.612-7.624,38.913-16.978,19.036-22.262,23.245-35.919,5.893-28.063,5.753-47.566A433.609,433.609,0,0,0,274.114,94c-3.134-18.662-7.436-31.384-10.2-43.591a292.772,292.772,0,0,1-4.77-30.4c-.8-6.5-1.169-7.811-2.2-8.513s-2.712-.8-6.267.375Z" transform="translate(120.892 6.494)"/><path class="i" d="M233.808,111.519c1.353,8.089,3.071,17.644,3.807,27.127s.49,18.895.459,25.662.154,10.889,5.537,13.965,15.964,5.106,27.806,5.29a166.825,166.825,0,0,0,32.2-2.953c7.259-1.476,8.674-2.768,9.474-5.813s.985-7.843.892-12.949-.461-10.519-.586-15.827a54.712,54.712,0,0,1,2.211-18.192c2.216-7.684,6.529-17.849,3.509-26.352s-13.372-15.346-27.338-18-31.546-1.113-42.366.7S234.537,88.088,233,92.446s-.546,10.983.807,19.072Z" transform="translate(137.42 48.557)"/><g class="k" transform="translate(369.645 130.613)"><g transform="translate(9.546 24.687)"><path class="l" d="M238.229,119.4c-.134,2.792,1.584,8,5.234,13.1A56.07,56.07,0,0,0,258.04,146.03c5.342,3.436,10.443,5.316,13.986,7.6a20.215,20.215,0,0,1,7.168,8.027c1.638,3.06,2.926,6.5,7.892,7.973s13.611.993,19.678-2.5,9.557-9.986,11.516-17.073,2.39-14.765,1.182-23.892-4.054-19.7-7.893-24.724-8.671-4.484-16.671-2.2-19.167,6.309-28.456,9.369-16.7,5.155-21.4,6.39-6.684,1.61-6.818,4.4Z" transform="translate(-238.221 -97.565)"/></g></g><path class="m" d="M233.808,111.519c1.353,8.089,3.071,17.644,3.807,27.127s.49,18.895.459,25.662.154,10.889,5.537,13.965,15.964,5.106,27.806,5.29a166.825,166.825,0,0,0,32.2-2.953c7.259-1.476,8.674-2.768,9.474-5.813s.985-7.843.892-12.949-.461-10.519-.586-15.827a54.712,54.712,0,0,1,2.211-18.192c2.216-7.684,6.529-17.849,3.509-26.352s-13.372-15.346-27.338-18-31.546-1.113-42.366.7S234.537,88.088,233,92.446s-.546,10.983.807,19.072Z" transform="translate(137.42 48.557)"/><path class="n" d="M230.918,101.074c-.675.584-.982,2-1.459,2.78s-1.121.936-2.027.415a8.757,8.757,0,0,1-3.01-3.532,69.484,69.484,0,0,1-3.01-8.293c-1.367-4.054-3.394-9.737-5.052-14.866a100.173,100.173,0,0,1-3.379-12.363c-.43-2.657,0-3.394.722-3.839a5.079,5.079,0,0,1,2.519-.6c.783,0,1.336.154,2.427,2.3A102.23,102.23,0,0,1,222.7,73.154c1.336,3.778,2.381,7.187,3.1,9.415a40.083,40.083,0,0,0,1.367,3.809c.246.537.338.568.86-.706s1.474-3.855,2.365-3.087,1.72,4.883,2.3,8.293.921,6.113,1.044,7.679.031,2-.537,2.089-1.613-.154-2.289.429Z" transform="translate(125.931 35.964)"/><path class="o" d="M300.693,96.4c.868.516,1.175,1.929,1.651,2.713s1.121.936,2.027.415a7.439,7.439,0,0,0,2.818-3.465c.744-1.745,1.066-4.038,2.241-8.025s3.2-9.669,4.859-14.8a100.179,100.179,0,0,0,3.379-12.363c.43-2.657,0-3.394-.722-3.839a5.078,5.078,0,0,0-2.519-.6c-.783,0-1.336.154-2.427,2.3s-2.718,6.3-4.141,9.865-2.642,6.559-3.363,8.786a34.516,34.516,0,0,0-1.106,4.437c-.159.747-.251.778-.774-.5s-1.474-3.855-2.365-3.087-1.72,4.883-2.3,8.293-.921,6.113-1.044,7.679-.031,2,.73,2.021S299.825,95.883,300.693,96.4Z" transform="translate(175.668 33.397)"/><path class="n" d="M237.952,155.791c44.59,72.061,95.23,24.475,109.153-41a246.416,246.416,0,0,0,4.77-34.089c.8-11.877.608-23.755-1.964-33.621s-7.529-17.723-19.359-23.007-30.535-8-48.585-7.295S246.521,21.6,235.579,32.493s-15.431,28.571-15.5,47.161c-.075,20.729,6.645,57.99,17.872,76.137Z" transform="translate(130.234 9.866)"/><g class="p" transform="translate(350.313 26.538)"><g transform="translate(11.07 65.392)"><path class="l" d="M289.122,75.4a16.391,16.391,0,0,1,6.231-7.82c3.425-2.295,8.438-3.884,13.875-4.378a43.731,43.731,0,0,1,14.511,1.059c3.213.953,3.778,2.259,3.9,4.007s-.194,3.936.177,5.843a9.825,9.825,0,0,0,2.877,5c1.448,1.465,3.284,2.771,3.707,4.819s-.565,4.836-2.771,7.767a22.427,22.427,0,0,1-9.78,7.52,27.455,27.455,0,0,1-12.282,1.056,18.093,18.093,0,0,1-6.537-2.049,16.965,16.965,0,0,1-5.741-4.3A53.822,53.822,0,0,1,289.7,83.3c-1.657-3.325-1.551-5.373-.58-7.9Zm-60.2-12.411c2.867.284,9.363-.407,16.265.162a81.6,81.6,0,0,1,18.168,3.776c3.959,1.38,4.567,2.314,4.628,6.476s-.426,11.55-.406,15,.548,2.963,2.192,1.259,4.405-4.629,7.044-6.05a8.54,8.54,0,0,1,7.531-.406,19.742,19.742,0,0,1,6.8,5.035c2.192,2.314,4.344,5.156,7,7.937a39.544,39.544,0,0,0,10.069,7.775c4.243,2.274,9.562,4.1,12.625,7.051s3.871,7.023,2.538,13.38a85.007,85.007,0,0,1-8.471,21.524,64.1,64.1,0,0,1-12.49,15.73c-4.977,4.789-11.082,9.954-8.687,10.377s13.288-3.9,23.619-10.518,20.1-15.543,25.92-27.094,7.7-25.732,7.151-38.478-3.53-24.056-8.045-30.329-10.566-7.508-17.606-7.786a102.9,102.9,0,0,0-21.7,1.636c-6.638,1.235-11.887,3.026-16.7,3.828a39.054,39.054,0,0,1-13.553-.154c-4.353-.772-8.675-2.131-14.634-3.088a119.77,119.77,0,0,0-18.926-1.42c-5.372.092-8.521.833-10.477,1.833s-2.716,2.258.151,2.541Z" transform="translate(-227.035 -57.754)"/></g></g><path class="m" d="M237.952,155.791c44.59,72.061,95.23,24.475,109.153-41a246.416,246.416,0,0,0,4.77-34.089c.8-11.877.608-23.755-1.964-33.621s-7.529-17.723-19.359-23.007-30.535-8-48.585-7.295S246.521,21.6,235.579,32.493s-15.431,28.571-15.5,47.161c-.075,20.729,6.645,57.99,17.872,76.137Z" transform="translate(130.234 9.866)"/><path class="l" d="M286.815,45.613c2.06,3.323,7.442,8.257,9.358,13.028s.367,9.379-.245,11.725-.286,2.43.9,2.736a15.189,15.189,0,0,1,4.832,1.953c1.611,1.12,2.793,2.833,5.708,2.2s7.565-3.609,9.644-10.52,1.59-17.759-1.774-24.344A15.881,15.881,0,0,0,300.5,33.6c-5.138.122-9.174,2.691-11.825,4.832s-3.915,3.853-1.856,7.177Z" transform="translate(169.119 19.883)"/><path class="j" d="M229.882,50.385a28.089,28.089,0,0,0,6.017,8.586,56.794,56.794,0,0,0,12.078,9.312A66.665,66.665,0,0,0,266.033,75.4a105.055,105.055,0,0,0,22.651,2.562,76.452,76.452,0,0,0,22-2.562,84.135,84.135,0,0,0,17.568-7.727c4.229-2.4,6.263-3.863,8.337-4.067a5.18,5.18,0,0,1,5.246,3.131c1.057,2.277,1.057,5.774,1.17,14.346s.339,22.218.462,28.981.145,6.642.805,4.5,1.958-6.319,3.542-10.682a91.5,91.5,0,0,1,4.8-11.317c1.342-2.4,2.155-2.644,2.883-2.152s1.369,1.718,2.142,2,1.677-.373,1.721-5.541a180.376,180.376,0,0,0-2.07-23.631c-1.3-8.784-3.09-16.673-6.3-23.749a54.914,54.914,0,0,0-14.234-18.91A74.054,74.054,0,0,0,311.864,6.553,128.517,128.517,0,0,0,277.907.168c-10.98-.529-20.333.692-27.084,2.806s-10.9,5.124-13.379,7.97-3.293,5.53-4.634,10.69a175.649,175.649,0,0,0-3.9,18c-.691,5.2-.205,7.981.973,10.752Z" transform="translate(135.27 0.026)"/><path class="j" d="M225.478,57.871c3.168-.061,7.9,0,12.7-.061a151.655,151.655,0,0,1,15.623.246,155.646,155.646,0,0,1,17.13,2.522c4.09.861,5.2,1.415,8,1.753a49.149,49.149,0,0,0,10.856,0c3.568-.462,6.212-1.507,10.549-2.614a108.875,108.875,0,0,1,16.576-2.829,96.6,96.6,0,0,1,18.176.092c5.567.584,10.3,1.691,12.446,2.643s1.693,1.746,1.493,3.655-.149,4.93-.386,6.5-.759,1.69-1.39,2.918-1.369,3.566-2.722,6.98A82.483,82.483,0,0,1,338.961,91.3a29.2,29.2,0,0,1-7.565,8.7,19.978,19.978,0,0,1-9.226,3.6,31.764,31.764,0,0,1-10.118-.339,21.983,21.983,0,0,1-8.181-3.26,31.711,31.711,0,0,1-6.3-5.813A28.573,28.573,0,0,1,293.29,87.7a64.082,64.082,0,0,1-2.86-7.627c-.707-2.214-1.138-3.691-2.03-4.767a6.342,6.342,0,0,0-3.321-2,2.644,2.644,0,0,0-2.614.615c-.738.676-1.414,1.845-2.368,4.367s-2.183,6.4-3.445,9.565a27.663,27.663,0,0,1-4.429,7.873,26.055,26.055,0,0,1-6.981,5.781,24.112,24.112,0,0,1-8.7,2.953,35.8,35.8,0,0,1-9.934-.062,17.26,17.26,0,0,1-7.781-2.891,25.937,25.937,0,0,1-5.9-6.581,56.1,56.1,0,0,1-5.228-9.288,80.9,80.9,0,0,1-3.075-9.011c-.646-2.153-.953-2.952-1.6-3.413s-1.63-.585-2.338-1.723a14.619,14.619,0,0,1-1.353-5.658c-.215-2.368-.215-4.952.584-6.335s2.4-1.569,5.567-1.63Zm18.206,2.861c-5.075.645-9.38,2.245-11.779,4.4s-2.891,4.859-2.737,8.242a34.053,34.053,0,0,0,10.764,22.912A19.724,19.724,0,0,0,251,101.174a19.977,19.977,0,0,0,11.01-2.214,23.227,23.227,0,0,0,8.642-7.842,43.444,43.444,0,0,0,5.351-11.656c1.045-3.629,1.23-6.4.4-8.857a11.454,11.454,0,0,0-5.505-6.212c-2.829-1.6-6.643-2.645-11.471-3.322a62.526,62.526,0,0,0-15.746-.338Zm65.322.307c-3.29,1.015-8.4,2.737-11.348,4.644a7.207,7.207,0,0,0-3.721,6.95A30.329,30.329,0,0,0,296.489,83.4a42.059,42.059,0,0,0,6.612,11.01,14.4,14.4,0,0,0,8.826,5.044,32.7,32.7,0,0,0,12.7-.185,14.4,14.4,0,0,0,8.642-5.935,50.031,50.031,0,0,0,6.181-11.441,24.446,24.446,0,0,0,1.907-9.595,11.213,11.213,0,0,0-2.461-7.074c-1.63-1.938-4.151-3.414-8.242-4.306a70.866,70.866,0,0,0-13.316-1.2,22.892,22.892,0,0,0-8.335,1.322Z" transform="translate(129.716 33.437)"/><path class="q" d="M372.139,124.475c-1.231,1.862-3.021,6.689-7.666,10.588s-12.145,6.871-20.069,8.109a64.253,64.253,0,0,1-23.738-.955c-7.465-1.7-14.044-4.6-17.924-7.536s-5.058-5.909-7.606-3.928-6.462,8.916-10.648,14.718a69.494,69.494,0,0,1-13.4,14.2c-4.753,3.73-9.8,6.521-16.6,9.828a260.547,260.547,0,0,1-24.981,10.63c-9.642,3.5-20.383,6.672-27.95,9.845s-11.961,6.347-14.586,9.364-3.482,5.876-7.221,32.006-10.36,75.53-15.123,109.593-7.669,52.789-9.606,62.474-2.906,10.331-7.695,13.183-13.4,7.911-14.1,11.731,6.511,6.4,13.56,10.869,13.937,10.816,16.681,15.981,1.345,9.148,1.13,11.193.753,2.152,6.188,2.206,15.335.054,22.331-.538,11.085-1.776,14.313-3.928,5.6-5.274,8.017-13.668,4.9-22.062,6.277-27.79,1.667-3.519,2.023,4.915.783,23.095,20.282,29.784,58.07,5.408,96.142,4.768,75.647-.64,94.505-3.914,19-9.82,19.5-25.192,1.352-39.567,1.85-51.665.64-12.1,3.914-4.91S469.627,398,472.616,405.4s2.562,7.829-.64,8.9-9.18,2.775-12.311,3.843-3.415,1.495-3.7,9.251-.569,22.844-.374,30.435.87,7.686,6.659,8.06,16.694,1.024,29.588,1.659,27.779,1.254,36.728,1.349,11.965-.336,14.888-2.152a21.208,21.208,0,0,0,7.538-8.8,27.123,27.123,0,0,0,2.339-12.676c-.184-4.523-1.292-9.2-11.424-42.938s-29.288-96.538-39.927-133.458-12.763-47.959-14.6-56.027-3.4-13.163-5.838-17.515a25.33,25.33,0,0,0-10.51-10.438c-4.741-2.477-10.9-3.821-15.362-4.805s-7.236-1.607-17.211-5.745-27.153-11.79-37.161-16.366-12.843-6.074-15.278-8.536a32.324,32.324,0,0,1-6.285-10.15c-1.817-4.264-3.417-9.366-4.553-12.469s-1.808-4.207-3.039-2.344Z" transform="translate(78.815 73.12)"/><g class="r" transform="translate(212.004 196.685)"><g transform="translate(7.773 -1.697)"><path class="s" d="M180.211,174.3c2.165,4.351,7.993,13.9,14.441,25.619A348.372,348.372,0,0,1,215.3,244,365.872,365.872,0,0,1,234,310.019c4.374,24.475,5.93,50.359,4.476,70.432s-5.919,34.334-13.918,45.309-19.532,18.664-35.777,22.074-37.2,2.542-45.76-1.24-4.712-10.479,1.737-15.377,15.5-8,20.027-10.851,4.526-5.456,3.286-8.556-3.721-6.7-5.209-9.611-1.984-5.146-1.054-7.75,3.286-5.581,5.457-9.859a38.624,38.624,0,0,0,4.34-16.307c.186-6.448-1.426-13.765-1.674-21.206s.868-15.005,3.286-19.9a16.448,16.448,0,0,1,9.983-8.494c3.844-1.364,7.813-1.861,10.231-3.473s3.286-4.34,1.922-22.136-4.96-50.658-7.717-73.408-4.674-35.386-6.381-42.128-3.207-7.587-1.042-3.235Z" transform="translate(-138.072 -93.434)"/><path class="s" d="M274.611,134.92c-7.035,2.7-11.3,5.325-13.924,8.277s-3.608,6.233-3.116,11.973,2.461,13.942,3.608,21.323a68.055,68.055,0,0,1,.574,20.257,42.312,42.312,0,0,1-7.545,18.862c-4.51,6.479-11.4,13.368-17.469,20.667s-11.317,15.008-14.68,24.931-4.838,22.06-2.706,38.324,7.873,36.654,11.122,65.629S234.484,431.7,236,458.444s3.794,42.682,23.9,52.925,58.047,14.8,100.918,13.658,90.675-7.967,124.63-27.885,54.064-52.925,51.6-102.436-27.506-115.524-51.977-159.534-48.372-66.014-74.361-81.949-54.063-25.8-72.653-29.213-27.7-.379-37.151,2.527-19.261,5.681-26.3,8.382Z" transform="translate(-90.562 -122.499)"/></g></g><path class="m" d="M372.139,124.475c-1.231,1.862-3.021,6.689-7.666,10.588s-12.145,6.871-20.069,8.109a64.253,64.253,0,0,1-23.738-.955c-7.465-1.7-14.044-4.6-17.924-7.536s-5.058-5.909-7.606-3.928-6.462,8.916-10.648,14.718a69.494,69.494,0,0,1-13.4,14.2c-4.753,3.73-9.8,6.521-16.6,9.828a260.547,260.547,0,0,1-24.981,10.63c-9.642,3.5-20.383,6.672-27.95,9.845s-11.961,6.347-14.586,9.364-3.482,5.876-7.221,32.006-10.36,75.53-15.123,109.593-7.669,52.789-9.606,62.474-2.906,10.331-7.695,13.183-13.4,7.911-14.1,11.731,6.511,6.4,13.56,10.869,13.937,10.816,16.681,15.981,1.345,9.148,1.13,11.193.753,2.152,6.188,2.206,15.335.054,22.331-.538,11.085-1.776,14.313-3.928,5.6-5.274,8.017-13.668,4.9-22.062,6.277-27.79,1.667-3.519,2.023,4.915.783,23.095,20.282,29.784,58.07,5.408,96.142,4.768,75.647-.64,94.505-3.914,19-9.82,19.5-25.192,1.352-39.567,1.85-51.665.64-12.1,3.914-4.91S469.627,398,472.616,405.4s2.562,7.829-.64,8.9-9.18,2.775-12.311,3.843-3.415,1.495-3.7,9.251-.569,22.844-.374,30.435.87,7.686,6.659,8.06,16.694,1.024,29.588,1.659,27.779,1.254,36.728,1.349,11.965-.336,14.888-2.152a21.208,21.208,0,0,0,7.538-8.8,27.123,27.123,0,0,0,2.339-12.676c-.184-4.523-1.292-9.2-11.424-42.938s-29.288-96.538-39.927-133.458-12.763-47.959-14.6-56.027-3.4-13.163-5.838-17.515a25.33,25.33,0,0,0-10.51-10.438c-4.741-2.477-10.9-3.821-15.362-4.805s-7.236-1.607-17.211-5.745-27.153-11.79-37.161-16.366-12.843-6.074-15.278-8.536a32.324,32.324,0,0,1-6.285-10.15c-1.817-4.264-3.417-9.366-4.553-12.469s-1.808-4.207-3.039-2.344Z" transform="translate(78.815 73.12)"/><rect class="t" width="243.493" height="168.874" rx="4.714" transform="translate(297.907 372.647)"/><path class="g" d="M193.633,349.659H424.91a4.741,4.741,0,0,0,4.728-4.728V340.2H188.905v4.728a4.741,4.741,0,0,0,4.728,4.728Z" transform="translate(111.786 201.317)"/><rect class="u" width="240.709" height="163.445" rx="3.567" transform="translate(300.691 378.076)"/><circle class="t" cx="28.578" cy="28.578" r="28.578" transform="translate(392.467 431.22)"/><path class="v" d="M256.471,93.3c.228.728,2.7,3.568,5.123,5.055a8.229,8.229,0,0,0,6.538,1.122c1.746-.5,2.869-1.618,3.21-4.033a31.773,31.773,0,0,0-.409-8.006c-.308-1.881-.484-1.934-.747-.7a29.976,29.976,0,0,1-1.35,5.454,4.739,4.739,0,0,1-3.35,2.937A8.833,8.833,0,0,1,260.2,94.7c-1.938-.737-3.954-2.122-3.727-1.394Z" transform="translate(151.757 50.835)"/><path class="w" d="M249.761,104.148a70.671,70.671,0,0,0,5.695,6.033,7.792,7.792,0,0,0,5.722,2.625,67.1,67.1,0,0,0,11.009,0,8.214,8.214,0,0,0,5.927-2.625,45.085,45.085,0,0,0,5.516-6.068c1-1.513.324-1.7-2.553-1.37a120.74,120.74,0,0,1-13.144,1.274,97.093,97.093,0,0,1-13.573-1.01,38.52,38.52,0,0,0-4.664-.473c-.663.014-1.083.135.067,1.614Z" transform="translate(147.372 60.674)"/><path class="x" d="M268.317,107.376c-3.457-.139-6.357-.256-9.153-.639a30.75,30.75,0,0,1-6.937-1.763,42.165,42.165,0,0,1-4.861-2.169c-.974-.534-1.043-.719-.951-.754s.348.081,1.357.209a35.85,35.85,0,0,0,4.594.244,20.77,20.77,0,0,0,5.162-.626c1.462-.418,2.506-1.067,3.678-1.265a5.947,5.947,0,0,1,3.677.684,17.764,17.764,0,0,1,3.434,2.622,17.762,17.762,0,0,1,3.434-2.622,5.946,5.946,0,0,1,3.677-.684c1.172.2,2.216.847,3.678,1.265a20.753,20.753,0,0,0,5.162.626,35.848,35.848,0,0,0,4.594-.244c1.009-.128,1.264-.244,1.357-.209s.023.22-.951.754a42.239,42.239,0,0,1-4.861,2.169,30.759,30.759,0,0,1-6.937,1.763c-2.8.382-5.7.5-9.153.639Z" transform="translate(145.8 59.499)"/><path class="j" d="M343.79,101.858c.954.545,1.983,1.386,2.66,1.433s1.006-.7,1.379-3.787.795-8.509,1.028-15.5a147.916,147.916,0,0,0-.7-23.049,63.643,63.643,0,0,0-5.937-20.01c-2.946-6.055-6.826-11.712-16.112-17.087s-23.976-10.468-32.442-12.99S282.959,8.4,281.509,9.222s-2.108,2.423-.086,5.009,6.724,6.159,8.981,9.686,2.069,7.006-1.646,8.229-10.956.188-17.491-2.774-12.366-7.853-13.73-12.508,1.74-9.075,1.712-12.145-3.186-4.791,3-4.716,21.729,1.947,33.163,4.259,18.766,5.063,25.3,8.555A62.851,62.851,0,0,1,337.593,25.57a52.43,52.43,0,0,1,10.768,18.338,97.544,97.544,0,0,1,5.172,26.661,207.055,207.055,0,0,1-.564,27.46c-.517,6.394-.893,8.181-1.834,9.216a4.327,4.327,0,0,1-3.668,1.176,4.437,4.437,0,0,1-3.18-2.043,12.761,12.761,0,0,1-2.22-4.381c-.108-.932.771-.684,1.725-.138Z" transform="translate(152.194 0)"/><path class="y" d="M316.716,62.068l3.313.361a2.673,2.673,0,0,1,2.361,2.939L319.2,94.629a2.672,2.672,0,0,1-2.939,2.36l-3.313-.361a2.673,2.673,0,0,1-2.36-2.938l3.193-29.261a2.672,2.672,0,0,1,2.939-2.36Z" transform="translate(183.781 36.72)"/><path class="z" d="M268.829,129.834l.038-.007a84.031,84.031,0,0,0,12.524-1.833c3.225-.677,7.322-1.638,11.6-2.935a73.905,73.905,0,0,0,12.346-4.828,40.829,40.829,0,0,0,9.562-6.795,39,39,0,0,0,6.666-8.508,51.4,51.4,0,0,0,3.881-8.411,66.882,66.882,0,0,0,2.7-9.815,39.729,39.729,0,0,0,.769-10.294l-.007-.052,1.787,0,1.567-.049v.049h.005l0,0a42.539,42.539,0,0,1-.823,10.977A70.4,70.4,0,0,1,328.6,97.659a54.8,54.8,0,0,1-4.13,8.963,42.307,42.307,0,0,1-7.244,9.23,44.179,44.179,0,0,1-10.35,7.359,77.034,77.034,0,0,1-12.909,5.065c-4.326,1.31-8.548,2.3-11.893,3a86.849,86.849,0,0,1-12.944,1.9l-.112-1.434-.188-1.907Z" transform="translate(159.081 45.153)"/><path class="q" d="M311.512,56.456l4.8.524a3.876,3.876,0,0,1,3.423,4.261l-4.629,42.426a3.876,3.876,0,0,1-4.261,3.423l-4.8-.524a3.876,3.876,0,0,1-3.422-4.261l4.629-42.426a3.875,3.875,0,0,1,4.261-3.423Z" transform="translate(179.065 33.394)"/><path class="j" d="M264,108.986l19.635-2.465,1.6,12.739-19.634,2.465a6.438,6.438,0,0,1-7.169-5.569h0A6.438,6.438,0,0,1,264,108.986Z" transform="translate(152.895 63.034)"/><path class="j" d="M224.165,79.922a10.642,10.642,0,0,0,2.522-5.493c.468-2.482.509-5.656,1.079-9.969s1.668-9.765,2.482-14.058,1.343-7.426,2.2-9.562,2.034-3.275,3.072-3.682,1.933-.082,3.134,1.241a64.208,64.208,0,0,0,4.943,5.717c2.238,2.075,5.209,3.906,9.888,1.892s11.067-7.874,11.535-12.533-4.985-8.117-11.169-9.582a31.993,31.993,0,0,0-18.473,1.2c-5.371,2.136-9.2,5.879-12.552,10.782A48.608,48.608,0,0,0,215.3,53.107a55,55,0,0,0-.366,17.4c.59,4.659,1.444,7.507,2.36,9.2s1.892,2.217,3.093,2.156a5.881,5.881,0,0,0,3.784-1.933Z" transform="translate(126.878 13.649)"/><path class="aa" d="M132.034,330.814a6,6,0,0,0-3.72.319,5.734,5.734,0,0,0-2.6,2.923,16.643,16.643,0,0,0-1.4,4.463,6.955,6.955,0,0,0,.248,4.18,2.208,2.208,0,0,0,2.8.832c1.116-.407,2.214-1.505,3.241-3.507a29.286,29.286,0,0,0,2.321-6.642c.336-1.736.053-2.3-.886-2.568Z" transform="translate(73.452 195.666)"/><path class="i" d="M113.66,352.432c-.195-1.1-.089-2.937,1.079-7.8s3.4-12.756,5.042-17.869,2.706-7.449,3.98-8.811,2.76-1.751,4.76-2.088,4.511-.619,6.333-1.062,2.955-1.043,4.105-1.185a6.093,6.093,0,0,1,3.167.566,9.707,9.707,0,0,0,7.927,1.008c1.627-.584,2.689-1.893,4.458-2.583a10.735,10.735,0,0,1,6.263-.212c2.017.549,3.574,1.716,5.927,3.114a85.54,85.54,0,0,1,7.608,4.636,10.515,10.515,0,0,1,3.892,5.308c.725,2.105,1.115,4.724,2.159,7.448a48.824,48.824,0,0,0,4.423,8.209c1.681,2.654,3.344,5.131,3.521,7.59a9.332,9.332,0,0,1-2.636,6.564,9.693,9.693,0,0,1-5.627,3.061c-2.424.513-5.573.655-8.085,1.362s-4.388,1.982-5.75,2.353-2.212-.159-2.672-1.858a18.514,18.514,0,0,1-.23-6.511,24.937,24.937,0,0,1,1.433-4.459,17.208,17.208,0,0,0,.619-5.644,13.552,13.552,0,0,0-1.822-6.741,12.054,12.054,0,0,0-4.972-4.282c-1.468-.6-2.212-.177-3.079.956a28.942,28.942,0,0,0-2.937,5.378c-1.079,2.406-2.247,5.379-3.45,7.449a9.138,9.138,0,0,1-3.592,3.8,5.164,5.164,0,0,1-3.361.336,8.487,8.487,0,0,1-3.078-1.026c-.69-.478-.832-1.079-.673-3.68s.619-7.2.937-10.032.5-3.892.3-4.547-.761-.9-1.84-.637a7.346,7.346,0,0,0-4.052,2.919c-1.38,1.875-2.548,4.848-4.016,8.12a67.573,67.573,0,0,1-4.777,9.129c-1.54,2.283-2.848,3.274-4.493,3.645a11.593,11.593,0,0,1-4.866-.177c-1.238-.3-1.734-.654-1.929-1.751Z" transform="translate(67.213 184.645)"/><g class="ab" transform="translate(180.794 496.673)"><g transform="translate(-3.6 -7.869)"><path class="n" d="M128.763,313.852c1.8.959,3.393,3.253,3.182,7.324s-2.223,9.922-4.025,15.14-3.393,9.8-4.843,13.151-2.761,5.452-4.937,6.458-5.218.912-6.318-2.691-.258-10.717,1.217-16.941a76,76,0,0,1,5.335-15.187c1.755-3.626,3.158-5.546,4.867-6.692a5.274,5.274,0,0,1,5.522-.562Z" transform="translate(-111.32 -303.404)"/><path class="n" d="M144.465,313.724c-2.492,3.752-5.213,8.825-7.263,11.379s-3.431,2.59-4.418,4.429-1.582,5.481-2.354,7.374-1.723,2.036-2.011,4.407.087,6.97,1.047,9.083,2.5,1.738,4.212.655a17.544,17.544,0,0,0,5.545-6.18c1.965-3.305,4.025-8.126,5.92-11.87a92.871,92.871,0,0,1,5.261-8.951c1.634-2.54,3.169-4.952,6.045-4.748s7.09,3.024,9.45,5.3,2.865,4.016,3.712,6.595a72.578,72.578,0,0,0,3.349,8.689,17.154,17.154,0,0,0,3.927,5.581c1.169.937,2.063.857,3.447-2.015a22.086,22.086,0,0,0,1.711-14.571c-1.545-6.037-6.505-12.449-12.168-16.473s-12.027-5.663-16.341-5.266-6.578,2.829-9.07,6.581Z" transform="translate(-101.258 -307.085)"/></g><g class="ac" transform="translate(24.753 0)"><g transform="translate(-1.606 27.571)"><path class="ad" d="M129.7,329.389c1.232-.249,3.524.741,5.013,1.746a4.809,4.809,0,0,1,2.312,2.83c.136.805-.279,1.4-1.138,2.434a24.565,24.565,0,0,1-3.114,3.263,1.9,1.9,0,0,1-2.3.374,3.865,3.865,0,0,1-2-2.362,14.793,14.793,0,0,1-.281-4.864c.1-1.685.274-3.173,1.507-3.422Z" transform="translate(-128.124 -329.35)"/></g></g><g class="ab"><path class="m" d="M144.465,313.724c-2.492,3.752-5.213,8.825-7.263,11.379s-3.431,2.59-4.418,4.429-1.582,5.481-2.354,7.374-1.723,2.036-2.011,4.407.087,6.97,1.047,9.083,2.5,1.738,4.212.655a17.544,17.544,0,0,0,5.545-6.18c1.965-3.305,4.025-8.126,5.92-11.87a92.871,92.871,0,0,1,5.261-8.951c1.634-2.54,3.169-4.952,6.045-4.748s7.09,3.024,9.45,5.3,2.865,4.016,3.712,6.595a72.578,72.578,0,0,0,3.349,8.689,17.154,17.154,0,0,0,3.927,5.581c1.169.937,2.063.857,3.447-2.015a22.086,22.086,0,0,0,1.711-14.571c-1.545-6.037-6.505-12.449-12.168-16.473s-12.027-5.663-16.341-5.266-6.578,2.829-9.07,6.581Z" transform="translate(-104.858 -314.954)"/><path class="ad" d="M114.448,333.924c1.758-1.24,4.613-.585,6.158.355a2.807,2.807,0,0,1,1.253,3.747,10.609,10.609,0,0,1-3.28,4.645,5.125,5.125,0,0,1-4.351,1.085c-1.233-.342-2.049-1.332-2.125-3.394s.586-5.2,2.345-6.438Z" transform="translate(-114.461 -299.475)"/><path class="i" d="M172.1,334.309c-1.469-.654-3.238-1.15-4.249-3.361s-1.26-6.136-2.049-5.3-2.116,6.428-5.333,10.006-8.325,5.142-11.447,6.432-4.261,2.305-5.661,4.53-3.064,5.658-1.542,8.154,6.23,4.053,12.66,2.939,14.585-4.9,18.443-8.862a10.042,10.042,0,0,0,2.616-10.587,5.609,5.609,0,0,0-3.44-3.948Z" transform="translate(-97.231 -304.038)"/><path class="ad" d="M153.321,335.987c-1.54-.077-3.94.908-5.325,1.555s-1.755.954-1.739,1.446a8.624,8.624,0,0,0,.816,2.124,14.035,14.035,0,0,1,.97,3.447,15.871,15.871,0,0,1,.046,3.278c-.061.724-.123.877.862.293a38.678,38.678,0,0,0,4.263-2.955,5.837,5.837,0,0,0,2.078-2.909,8.361,8.361,0,0,0,.446-3.786,2.573,2.573,0,0,0-2.416-2.494Z" transform="translate(-94.246 -297.854)"/></g></g><path class="m" d="M113.66,352.432c-.195-1.1-.089-2.937,1.079-7.8s3.4-12.756,5.042-17.869,2.706-7.449,3.98-8.811,2.76-1.751,4.76-2.088,4.511-.619,6.333-1.062,2.955-1.043,4.105-1.185a6.093,6.093,0,0,1,3.167.566,9.707,9.707,0,0,0,7.927,1.008c1.627-.584,2.689-1.893,4.458-2.583a10.735,10.735,0,0,1,6.263-.212c2.017.549,3.574,1.716,5.927,3.114a85.54,85.54,0,0,1,7.608,4.636,10.515,10.515,0,0,1,3.892,5.308c.725,2.105,1.115,4.724,2.159,7.448a48.824,48.824,0,0,0,4.423,8.209c1.681,2.654,3.344,5.131,3.521,7.59a9.332,9.332,0,0,1-2.636,6.564,9.693,9.693,0,0,1-5.627,3.061c-2.424.513-5.573.655-8.085,1.362s-4.388,1.982-5.75,2.353-2.212-.159-2.672-1.858a18.514,18.514,0,0,1-.23-6.511,24.937,24.937,0,0,1,1.433-4.459,17.208,17.208,0,0,0,.619-5.644,13.552,13.552,0,0,0-1.822-6.741,12.054,12.054,0,0,0-4.972-4.282c-1.468-.6-2.212-.177-3.079.956a28.942,28.942,0,0,0-2.937,5.378c-1.079,2.406-2.247,5.379-3.45,7.449a9.138,9.138,0,0,1-3.592,3.8,5.164,5.164,0,0,1-3.361.336,8.487,8.487,0,0,1-3.078-1.026c-.69-.478-.832-1.079-.673-3.68s.619-7.2.937-10.032.5-3.892.3-4.547-.761-.9-1.84-.637a7.346,7.346,0,0,0-4.052,2.919c-1.38,1.875-2.548,4.848-4.016,8.12a67.573,67.573,0,0,1-4.777,9.129c-1.54,2.283-2.848,3.274-4.493,3.645a11.593,11.593,0,0,1-4.866-.177c-1.238-.3-1.734-.654-1.929-1.751Z" transform="translate(67.213 184.645)"/></g></g></g></g></svg>