<svg xmlns="http://www.w3.org/2000/svg" xmlns:xlink="http://www.w3.org/1999/xlink" width="1100" height="356" viewBox="0 0 1100 356"><defs><style>.a{fill:#e65c5c;}.am,.b,.x{fill:#fff;}.c{fill:#ff5833;}.d{fill:#ede6fc;}.e{clip-path:url(#a);}.f{clip-path:url(#b);}.g{clip-path:url(#c);}.h,.j{fill:#1d1d1b;}.ab,.ac,.ae,.ag,.aj,.h,.j,.l,.n,.o,.p,.t,.x,.z{fill-rule:evenodd;}.h,.v{opacity:0.2;}.i,.n{fill:#bf6748;}.k,.l{fill:#f07f57;}.m{clip-path:url(#d);}.o{fill:none;}.p{fill:#e0e0e0;}.q{clip-path:url(#e);}.r{fill:#9aa0a6;}.s{fill:#f7f5f6;}.aa,.t{fill:#999;}.u{clip-path:url(#f);}.w{clip-path:url(#g);}.y{clip-path:url(#h);}.ai,.z{fill:#fbf6f1;}.ab{fill:#e5f3e0;}.ac{fill:#03332c;}.ad{clip-path:url(#i);}.ae{fill:#0d806e;}.af{clip-path:url(#j);}.ag,.ah{fill:#1d1d1f;}.aj{fill:#d4492a;}.ak{clip-path:url(#k);}.al{fill:#402e88;}.am{font-size:20px;font-family:ALSEkibastuz-Bold, ALS Ekibastuz ;font-weight:700;}</style><clipPath id="a"><path class="a" d="M-150,.571,950,0V355l-1100,1Z" transform="translate(970 1180)"/></clipPath><clipPath id="b"><rect class="b" width="356" height="1100" transform="translate(84.402 -92)"/></clipPath><clipPath id="c"><rect class="c" width="560" height="631" transform="translate(-0.363 0.016)"/></clipPath><clipPath id="d"><path d="M7.678,163.385c5.468,5.49,14.509,15.22,19.937,20.73s7.23,6.8,9.169,7.535a11.269,11.269,0,0,0,5.941.559c1.937-.344,3.743-1.2,6.158-4.176s5.425-8.051,9.417-17.459a186.736,186.736,0,0,0,11.653-37.68c2.687-14.538,3.084-29.872,2.687-44.91s-1.6-29.776-5.08-43.917S58.3,16.379,53.873,8.918,46.376.074,43.338,0,37.309,1.171,29.6,7.574,9.479,25.533,3.99,39.692-.053,70.607.962,88.939s1.613,38.236,1.117,49.575S0,152.626.156,154.637,2.208,157.9,7.678,163.385Z" transform="translate(0 0)"/></clipPath><clipPath id="e"><path d="M21.714,390.322h138.55a21.777,21.777,0,0,0,21.714-21.714V21.714A21.777,21.777,0,0,0,160.264,0H21.714A21.777,21.777,0,0,0,0,21.714V368.608A21.778,21.778,0,0,0,21.714,390.322Z"/></clipPath><clipPath id="f"><path d="M5.019,108.975H30.338a5.032,5.032,0,0,0,5.018-5.018V5.017A5.03,5.03,0,0,0,30.338,0H5.019A5.033,5.033,0,0,0,0,5.017v98.94A5.034,5.034,0,0,0,5.019,108.975Z"/></clipPath><clipPath id="g"><path class="b" d="M2.824,104.562H28.056a2.833,2.833,0,0,0,2.825-2.823V2.825A2.832,2.832,0,0,0,28.057,0H2.824A2.833,2.833,0,0,0,0,2.825v98.914a2.832,2.832,0,0,0,2.824,2.823Z"/></clipPath><clipPath id="h"><path d="M2.824,104.562H28.056a2.833,2.833,0,0,0,2.825-2.823V2.825A2.832,2.832,0,0,0,28.057,0H2.824A2.833,2.833,0,0,0,0,2.825v98.914a2.832,2.832,0,0,0,2.824,2.823Z"/></clipPath><clipPath id="i"><path d="M12.265,169.232c11.506,2.23,33.929,5.666,45.419,7.413s12.056,1.8,17.86.423,16.846-4.2,22.676-5.775,6.45-1.915,12.6-7.764,17.823-17.21,25.347-26.422,10.891-16.273,13.384-25.344a117.71,117.71,0,0,0,3.976-32.128c-.135-11.978-2.031-24.86-5.994-35.511A92.112,92.112,0,0,0,134.189,20.7c-3.342-4.356-3.986-4.647-14.258-7.612S89.772,4.486,79.179,1.8,67.289-.633,56.732,3.06,26.343,13.878,16.268,17.606,5.87,21.656,5.807,25.9s.127,12.408.385,16.586.584,4.374,9.039,1.361,25.044-9.233,33.627-12.31,9.169-3.012,16.05.36S84.97,41.948,92.229,45.921s8.6,5.24,9.161,6.432S101.725,54.663,98,63.73,87.051,89.816,82.77,100.486s-5.624,14.992-6.593,18.642-1.564,6.632-5.1,10.544S61.051,138.428,57.363,141s-4.583,2.87-12.482,2.907-22.8-.186-30.4-.186-7.9.223-9.017,1.973a39.026,39.026,0,0,0-4.172,8.494,27.455,27.455,0,0,0-1.27,9.453C.17,165.976.759,167,12.265,169.232Z" transform="translate(0 0)"/></clipPath><clipPath id="j"><path d="M22.253,57.19H56.531A22.319,22.319,0,0,0,78.784,34.937V22.253A22.319,22.319,0,0,0,56.531,0H22.253A22.321,22.321,0,0,0,0,22.253V34.937A22.32,22.32,0,0,0,22.253,57.19Z"/></clipPath><clipPath id="k"><path d="M8.454,16.907A8.453,8.453,0,1,0,0,8.453a8.453,8.453,0,0,0,8.454,8.453Z"/></clipPath></defs><g transform="translate(-820 -1180)"><path class="d" d="M-150,.571,950,0V355l-1100,1Z" transform="translate(970 1180)"/><g class="f" transform="translate(912 1620.402) rotate(-90)"><g class="g" transform="translate(-144.236 -79.016)"><g transform="translate(107.801 27.695)"><path class="h" d="M214.115,415.7c11.922-6.133,16.935-6.262,28.322-8.052s29.147-5.238,43.392-13.222,24.974-20.5,29.043-48.2,1.478-70.556-.217-93.982-2.492-27.413-2.094-32.3a34.041,34.041,0,0,1,5.282-15.65c3.289-4.985,8.274-9.172,10.965-15.85s3.09-15.85-.6-26.217S316.745,140.3,305.65,124.11s-25.509-37.009-37.7-51.4-22.16-22.371-31.134-26.36a43.593,43.593,0,0,0-23.326-3.29c-6.38.7-11.165,2.093-13.558,2.492s-2.392-.2-2.392-4.785a191.506,191.506,0,0,0-.7-19.239c-.7-6.081-2.093-9.67-4.286-12.561a19.631,19.631,0,0,0-8.872-6.479C179.994,1.087,175.606.489,147.7.19s-79.35-.3-106.664.4-30.5,2.093-33,4.087a19.775,19.775,0,0,0-5.485,7.178C1.355,14.443.756,17.037.457,46.345S.166,131.678.166,186.106s0,107.262-.094,149.665-.282,74.378.885,91.647,3.689,19.824,31.177,20.488,79.944-.565,115.586-7.249,54.473-18.823,66.395-24.958Z" transform="translate(0 0)"/><rect class="i" width="134.004" height="143.89" rx="60.463" transform="translate(238.588 253.545)"/><path class="j" d="M131.06,5.041C120.124,1.567,103.834-.255,84.469.029S42.663,2.706,25.289,8.117-4.386,21.957,1.482,30.48,31.39,47.616,53.431,51.889s42.091,4.2,57.41,1.2,25.916-8.921,32.181-15.13,8.2-12.7,6.378-18.51S142,8.516,131.06,5.041Z" transform="translate(191.146 327.76)"/><path class="j" d="M148.559,47.184c-15.947,1.824-39.87,2.964-63.335,3.363S38.746,50.6,23.67,47.984,1.45,40.467.2,33.573,3.58,17.8,16.438,11.645,50.365,2.075,75.712.709s54.964-.683,73.363,1.422,25.573,5.638,28.934,12.246,2.9,16.29-1.311,22.385S164.508,45.362,148.559,47.184Z" transform="translate(178.204 273.369)"/><rect class="k" width="80.583" height="19.988" rx="9.019" transform="matrix(0.991, -0.131, 0.131, 0.991, 276.38, 411.899)"/><rect class="k" width="80.583" height="19.988" rx="9.019" transform="matrix(0.991, 0.131, -0.131, 0.991, 278.999, 225.492)"/><path class="l" d="M7.678,163.385c5.468,5.49,14.509,15.22,19.937,20.73s7.23,6.8,9.169,7.535a11.269,11.269,0,0,0,5.941.559c1.937-.344,3.743-1.2,6.158-4.176s5.425-8.051,9.417-17.459a186.736,186.736,0,0,0,11.653-37.68c2.687-14.538,3.084-29.872,2.687-44.91s-1.6-29.776-5.08-43.917S58.3,16.379,53.873,8.918,46.376.074,43.338,0,37.309,1.171,29.6,7.574,9.479,25.533,3.99,39.692-.053,70.607.962,88.939s1.613,38.236,1.117,49.575S0,152.626.156,154.637,2.208,157.9,7.678,163.385Z" transform="translate(349.309 231.841)"/><g class="m" transform="translate(349.309 231.841)"><g transform="translate(-15.411 -14.089)"><path class="n" d="M25.213,174.241c6.535,5.347,12.874,10.992,17.28,14.409s6.883,4.6,9.359,4.257,4.951-2.228,8.121-6.288a74.5,74.5,0,0,0,10.448-19.211,125.1,125.1,0,0,0,7.528-34.61c1.141-14.112.444-30.748-.249-42.236s-1.386-17.827-1.338-21.586.841-4.951,3.02-5.645,5.743-.891,7.527-5.247,1.781-12.874-1.236-22.975S76.611,13.32,69.53,6.586s-15.2-8.518-25.3-4.358S22.046,16.489,14.815,26.392,5.209,46,3.23,62.784-.335,103.437.061,120.618,2.832,148.3,7.388,156.07,18.678,168.894,25.213,174.241Z" transform="translate(0 0)"/></g></g><path class="o" d="M7.678,163.385c5.468,5.49,14.509,15.22,19.937,20.73s7.23,6.8,9.169,7.535a11.269,11.269,0,0,0,5.941.559c1.937-.344,3.743-1.2,6.158-4.176s5.425-8.051,9.417-17.459a186.736,186.736,0,0,0,11.653-37.68c2.687-14.538,3.084-29.872,2.687-44.91s-1.6-29.776-5.08-43.917S58.3,16.379,53.873,8.918,46.376.074,43.338,0,37.309,1.171,29.6,7.574,9.479,25.533,3.99,39.692-.053,70.607.962,88.939s1.613,38.236,1.117,49.575S0,152.626.156,154.637,2.208,157.9,7.678,163.385Z" transform="translate(349.309 231.841)"/><path class="p" d="M21.714,390.322h138.55a21.777,21.777,0,0,0,21.714-21.714V21.714A21.777,21.777,0,0,0,160.264,0H21.714A21.777,21.777,0,0,0,0,21.714V368.608A21.778,21.778,0,0,0,21.714,390.322Z" transform="translate(78.025 140.355)"/><g class="q" transform="translate(78.025 140.355)"><g transform="translate(-56.702 1.012)"><path class="h" d="M73.7,226.754c5.517-2.241,14.4-5.688,19.832-8.019s7.415-3.535,8.8-5.13,2.155-3.578-.992-9.312-10.217-15.22-19.358-26.558S61.629,153.2,55.316,144.522s-7.729-12.849-8.735-20.539-1.6-18.893-2-28.56-.6-17.8-1.339-21.865-2.032-4.063-3.719-3.817a10.426,10.426,0,0,1-7.238-.944c-3.472-1.686-8.33-5.552-12.346-9.073a50.977,50.977,0,0,1-9.569-10.361c-2.38-3.669-3.966-7.833-5.256-10.214A8.245,8.245,0,0,0,2.042,35.63C1.25,35.085.654,34.588.257,32.654s-.594-5.3,1.437-10.31,6.3-11.652,10.264-14.925A13.214,13.214,0,0,1,22.073,4.394c2.479.148,3.768.348,6.048-.3S33.675,1.963,38.039.922s9.817-1.635,14.328.646S60.448,9.006,62.58,12.724A23.464,23.464,0,0,1,65.9,21.945c.5,3.223.794,7.389.992,9.769s.3,2.974,1.686,2.478,4.066-2.082,7.685-2.529,8.18.249,12.593,1.488,8.678,3.025,10.859,3.719,2.28.3,2.924-2.678,1.834-8.529,5.008-12.791a26.39,26.39,0,0,1,12.443-8.578,18.765,18.765,0,0,1,8.875-.794c1.686.248,1.981.446,3.821,1.6s5.213,3.264,7.493,14.222,3.459,30.759,3.984,55.283.393,53.768.131,76.653-.656,39.409-1.509,50.948-2.164,18.1-8.393,23.671-17.376,10.164-25.769,12.655-14.031,2.886-19.343,2.164a55.062,55.062,0,0,1-14.23-4.262,43.608,43.608,0,0,1-8.721-4.721c-1.9-1.444-2.82-2.754-3.082-4.262a5.348,5.348,0,0,1,1.4-4.582C66.033,230.028,68.187,228.994,73.7,226.754Z" transform="translate(109.334 18.694)"/><path class="h" d="M75.093,231.712c-15.675-15.162-43.832-43.318-58.31-58.083S1.506,157.5,1.05,143.02.48,100.955.318,75.333s-.372-49.275-.3-61.558S.419.58,1.5.124,4.41-.334,21.388,15.03,70.495,61.113,86.844,77.272s16.92,17.756,17.186,19.25.23,2.892-.341,24.266-1.672,62.729-2.4,87.738S100.228,242.2,99.6,246.588s-1.539,4.5-3.591,3.477S90.768,246.874,75.093,231.712Z" transform="translate(0 0)"/></g></g><path class="o" d="M21.714,390.322h138.55a21.777,21.777,0,0,0,21.714-21.714V21.714A21.777,21.777,0,0,0,160.264,0H21.714A21.777,21.777,0,0,0,0,21.714V368.608A21.778,21.778,0,0,0,21.714,390.322Z" transform="translate(78.025 140.355)"/><path class="h" d="M16.047,34.492C13.562,32.045,8.477,25.4,5.153,20.666S.267,13.114.039,9.916C-.5,2.314,4.755-1.524,11.9.565,17.249,2.13,21.61,7.828,25.11,11.948a91.988,91.988,0,0,1,6.933,8.83c1.456,2.355,1.371,3.516-.1,5.3a25.779,25.779,0,0,1-6.831,5.516c-3.258,1.729-7.127,4.8-9.064,2.9Z" transform="translate(158.291 446.826)"/><rect class="b" width="10.621" height="5.019" rx="2.264" transform="matrix(-0.643, 0.766, -0.766, -0.643, 196.318, 459.204)"/><path class="h" d="M22.736,20.469c.008-1.5.025-2.251-2.823-5.324s-8.56-8.47-11.77-11.533S4.228-.178,3.135.034s-2.576,1.368-3,7S.361,22.8.705,28.288s.386,6.348,2.271,7.462A35.229,35.229,0,0,0,11.524,38.9c2.928.663,5.052.622,6.786-.321a8.4,8.4,0,0,0,3.745-4.952,24.251,24.251,0,0,0,.672-7.027C22.726,24.23,22.727,21.972,22.736,20.469Z" transform="translate(128.775 295.388)"/><rect class="r" width="28.304" height="50.712" rx="2.292" transform="translate(123.198 312.594)"/><rect class="s" width="33.316" height="50.712" rx="2.292" transform="translate(147.477 321.291) rotate(90)"/><rect class="s" width="28.304" height="50.712" rx="2.292" transform="translate(122.121 312.594)"/><path class="t" d="M5.019,108.975H30.338a5.032,5.032,0,0,0,5.018-5.018V5.017A5.03,5.03,0,0,0,30.338,0H5.019A5.033,5.033,0,0,0,0,5.017v98.94A5.034,5.034,0,0,0,5.019,108.975Z" transform="translate(170.27 262.429)"/><g class="u" transform="translate(170.27 262.429)"><g class="v" transform="translate(5.197 -4.149)"><path class="j" d="M.58,8.954A206.254,206.254,0,0,0,4.368,31.759c2.06,8.392,5.062,15.564,9.888,22.083S25.73,66.23,29.284,69.394s4.013,3.619,4.239-7.9.228-34.994.228-47.09,0-12.8-2.642-13.257S23.19.5,18.037.275,7.865-.213,5.086.286,1.776,2.048,1.273,2.818A3.808,3.808,0,0,1,.1,4.011C-.1,4.15-.023,4.15.58,8.954Z" transform="translate(0 0)"/></g></g><path class="o" d="M5.019,108.975H30.338a5.032,5.032,0,0,0,5.018-5.018V5.017A5.03,5.03,0,0,0,30.338,0H5.019A5.033,5.033,0,0,0,0,5.017v98.94A5.034,5.034,0,0,0,5.019,108.975Z" transform="translate(170.27 262.429)"/><g class="w" transform="translate(172.508 264.636)"><path class="x" d="M0,104.562H30.88V0H0Z"/></g><g class="y" transform="translate(172.508 264.636)"><g class="v" transform="translate(2.959 -6.356)"><path class="j" d="M.58,8.954A206.254,206.254,0,0,0,4.368,31.759c2.06,8.392,5.062,15.564,9.888,22.083S25.73,66.23,29.284,69.394s4.013,3.619,4.239-7.9.228-34.994.228-47.09,0-12.8-2.642-13.257S23.19.5,18.037.275,7.865-.213,5.086.286,1.776,2.048,1.273,2.818A3.808,3.808,0,0,1,.1,4.011C-.1,4.15-.023,4.15.58,8.954Z" transform="translate(0 0)"/></g></g><path class="o" d="M2.824,104.562H28.056a2.833,2.833,0,0,0,2.825-2.823V2.825A2.832,2.832,0,0,0,28.057,0H2.824A2.833,2.833,0,0,0,0,2.825v98.914a2.832,2.832,0,0,0,2.824,2.823Z" transform="translate(172.508 264.636)"/><path class="z" d="M41.845.62c-1.854,1.018-4.927,3.428-6.857,4.463s-2.705.706-4.836.243a32.813,32.813,0,0,0-9.208-.779,15.751,15.751,0,0,0-10.767,5.06c-3.465,3.631-6.69,9.746-8.394,13.616s-1.89,5.5-1.743,6.486.631,1.316,1.779.7a32.885,32.885,0,0,0,4.835-3.837c1.871-1.668,3.8-3.445,5.764-4.241a7.175,7.175,0,0,1,5.15-.13c1.185.482,1.557,1.26,1.241,1.981a4.492,4.492,0,0,1-2.241,1.8c-.925.408-1.779.555-2.225,1.168a3.7,3.7,0,0,0-.369,2.464c.111.776.369,1.261,2.594,1.243a43.42,43.42,0,0,0,8.911-1.226c2.5-.684,3.317-1.536,4.059-2.722a51.158,51.158,0,0,0,2.336-4.65,20.357,20.357,0,0,1,4.114-6.226,32.771,32.771,0,0,1,6.522-4.318c1.7-.964,2.3-1.443,2.54-2.611a21.979,21.979,0,0,0,.055-4.6A13.218,13.218,0,0,0,44.659.8C44.325-.034,43.7-.4,41.845.62Z" transform="translate(192.512 273.65)"/><g transform="translate(176.517 383.532)"><rect class="b" width="38.884" height="23.731" rx="10.708"/><rect class="aa" width="8.459" height="2.108" rx="0.951" transform="translate(6.114 10.812)"/></g><path class="z" d="M45.361,12.283c-1.464-1.971-4.495-2.326-6.927-3.922s-4.27-4.43-6.267-6.122S28.011,0,24.746,0a44.015,44.015,0,0,0-9.817,1.165c-2.184.616-2.184,1.3-1.931,2.257a3.744,3.744,0,0,0,2.471,2.814c1.705.618,4.6.618,6.349.913s2.345.9,2.366,1.833-.532,2.217-2.793,2.877-6.224.7-9.591.747-6.137.086-7.736.15-2.025.149-2.472.469A4.2,4.2,0,0,0,.377,14.7a3.411,3.411,0,0,0-.362,1.876c.064.639.321,1.279,1.663,1.618a33.676,33.676,0,0,0,5.668.448c1.9.063,3.261.149,4.326.895a7.789,7.789,0,0,1,2.366,3.5,13.574,13.574,0,0,0,1.683,3.687,7.2,7.2,0,0,0,4.326,2.344,22.788,22.788,0,0,0,7.437.042,19.213,19.213,0,0,0,7.075-2.3c1.875-1.151,3.069-2.684,4.753-3.515a17.241,17.241,0,0,1,5.155-1.151c1.3-.193,1.727-.448,1.989-2.368S46.826,14.254,45.361,12.283Z" transform="translate(187.872 381.048)"/><path class="ab" d="M11.479.071A82.853,82.853,0,0,0,2.26,1.963C-.05,2.591-.134,2.872.075,6.432s.711,10.393,1.049,13.81.507,3.417,2.509,2.789,5.84-1.892,7.829-2.576,2.13-.8,2.285-4.007.322-9.511.308-12.873S13.844-.209,11.479.071Z" transform="translate(231.955 264.808)"/><path class="ab" d="M10.723,20.127c-2.4,1.51-6.543,1.462-8.662,1.377S-.155,21.3.1,18.6A83.207,83.207,0,0,1,1.915,7.057c.95-3.594,2.241-5.518,3.192-6.4S6.667-.045,8.954.186a76.838,76.838,0,0,1,7.967.965c1.705.441,1.147,1.022.356,2.936a75.876,75.876,0,0,0-2.654,8.307C13.781,15.548,13.122,18.617,10.723,20.127Z" transform="translate(229.299 385.106)"/><path class="ac" d="M12.265,169.232c11.506,2.23,33.929,5.666,45.419,7.413s12.056,1.8,17.86.423,16.846-4.2,22.676-5.775,6.45-1.915,12.6-7.764,17.823-17.21,25.347-26.422,10.891-16.273,13.384-25.344a117.71,117.71,0,0,0,3.976-32.128c-.135-11.978-2.031-24.86-5.994-35.511A92.112,92.112,0,0,0,134.189,20.7c-3.342-4.356-3.986-4.647-14.258-7.612S89.772,4.486,79.179,1.8,67.289-.633,56.732,3.06,26.343,13.878,16.268,17.606,5.87,21.656,5.807,25.9s.127,12.408.385,16.586.584,4.374,9.039,1.361,25.044-9.233,33.627-12.31,9.169-3.012,16.05.36S84.97,41.948,92.229,45.921s8.6,5.24,9.161,6.432S101.725,54.663,98,63.73,87.051,89.816,82.77,100.486s-5.624,14.992-6.593,18.642-1.564,6.632-5.1,10.544S61.051,138.428,57.363,141s-4.583,2.87-12.482,2.907-22.8-.186-30.4-.186-7.9.223-9.017,1.973a39.026,39.026,0,0,0-4.172,8.494,27.455,27.455,0,0,0-1.27,9.453C.17,165.976.759,167,12.265,169.232Z" transform="translate(235.473 241.005)"/><g class="ad" transform="translate(235.473 241.004)"><g transform="translate(-3.831 55.789)"><path class="ae" d="M100.054,55.347c-1.885,7.808-4.239,17.661-5.587,23.984A68.366,68.366,0,0,0,92.7,90.239c-.071,1.79.121,2.574-.54,2.549A10.52,10.52,0,0,1,89,91.342c-.98-.589-1.423-.932-1.765-.564s-.588,1.446-.344,3.357.983,4.658.934,6.03-.883,1.371-4.022,1.371-8.577,0-11.347-.123-2.869-.368-2.573-1.692a31.332,31.332,0,0,0,.979-4.951c0-1.226-.685-1.274-2.523-.761a28.436,28.436,0,0,0-7.893,3.628,51.771,51.771,0,0,0-8.236,7.181c-2.034,2.158-2.967,3.482-4.02,4.02a1.794,1.794,0,0,1-2.549-.515c-.318-.809.219-2.181.537-3.407s.417-2.3-.66-2.943-3.334-.832-6.915-.513a117.548,117.548,0,0,0-11.689,1.813c-3.212.66-4.732,1.153-5.76,1.127a1.491,1.491,0,0,1-1.644-1.446c-.074-.883.322-2.107.322-2.991s-.393-1.422-2.526-1.1-6.006,1.5-9.169,2.231-5.612,1.029-7.033,3.848-1.814,8.162.931,11.251,8.628,3.921,19.414,5.319,26.471,3.358,39.316,3.922a160.043,160.043,0,0,0,32.77-1.789c9.926-1.52,19.78-3.725,28.774-9.717s17.122-15.768,24.252-27.5S159.823,61,162.43,46.329s1.7-30.317.712-38.378-2.026-8.53-5.714-7.613-10.009,3.221-17.852,5.795-17.208,5.417-23.262,10.442-8.8,12.231-10.88,18.716-3.5,12.244-5.381,20.052Z" transform="translate(0 0)"/></g></g><path class="o" d="M12.265,169.232c11.506,2.23,33.929,5.666,45.419,7.413s12.056,1.8,17.86.423,16.846-4.2,22.676-5.775,6.45-1.915,12.6-7.764,17.823-17.21,25.347-26.422,10.891-16.273,13.384-25.344a117.71,117.71,0,0,0,3.976-32.128c-.135-11.978-2.031-24.86-5.994-35.511A92.112,92.112,0,0,0,134.189,20.7c-3.342-4.356-3.986-4.647-14.258-7.612S89.772,4.486,79.179,1.8,67.289-.633,56.732,3.06,26.343,13.878,16.268,17.606,5.87,21.656,5.807,25.9s.127,12.408.385,16.586.584,4.374,9.039,1.361,25.044-9.233,33.627-12.31,9.169-3.012,16.05.36S84.97,41.948,92.229,45.921s8.6,5.24,9.161,6.432S101.725,54.663,98,63.73,87.051,89.816,82.77,100.486s-5.624,14.992-6.593,18.642-1.564,6.632-5.1,10.544S61.051,138.428,57.363,141s-4.583,2.87-12.482,2.907-22.8-.186-30.4-.186-7.9.223-9.017,1.973a39.026,39.026,0,0,0-4.172,8.494,27.455,27.455,0,0,0-1.27,9.453C.17,165.976.759,167,12.265,169.232Z" transform="translate(235.473 241.005)"/><path class="z" d="M2.416,2.341c2.387.856,7.067,1.911,9.7,2.5s3.212.721,3.729-.038a8.725,8.725,0,0,0,1.049-3.372c.079-.97-.209-1.261-2.971-1.372s-7.99-.05-10.75,0S.126.144.024.488.026,1.485,2.416,2.341Z" transform="translate(333.579 358.706)"/><path class="z" d="M2.416,2.992c2.387-.856,7.067-1.911,9.7-2.5s3.212-.721,3.729.036A8.768,8.768,0,0,1,16.9,3.9c.078.968-.211,1.26-2.972,1.371s-7.99.05-10.75,0S.126,5.189.024,4.845.026,3.848,2.416,2.992Z" transform="translate(333.579 299.445)"/><path class="z" d="M22.253,57.19H56.531A22.319,22.319,0,0,0,78.784,34.937V22.253A22.319,22.319,0,0,0,56.531,0H22.253A22.321,22.321,0,0,0,0,22.253V34.937A22.32,22.32,0,0,0,22.253,57.19Z" transform="translate(297.704 303.658)"/><g class="af" transform="translate(297.703 303.658)"><g transform="translate(28.435 -6.985)"><path class="ag" d="M.091,65.161c.468-2.153,4.263-5.777,6.993-13.968s4.389-20.935,2.9-29.736S3.841,7.8,1.476,4.711-.977.3,5.484.043,24.948.589,34.755,5.17a35.765,35.765,0,0,1,19.08,21.657,35.254,35.254,0,0,1-2.367,25.6c-3.75,7.8-9.977,14.327-18.08,16.82s-18.076.96-24.494-.149-9.276-1.791-8.8-3.945Z" transform="translate(0 0)"/></g></g><path class="o" d="M22.253,57.19H56.531A22.319,22.319,0,0,0,78.784,34.937V22.253A22.319,22.319,0,0,0,56.531,0H22.253A22.321,22.321,0,0,0,0,22.253V34.937A22.32,22.32,0,0,0,22.253,57.19Z" transform="translate(297.704 303.658)"/><rect class="ah" width="62.998" height="45.732" rx="20.634" transform="translate(305.595 309.388)"/><circle class="ai" cx="5.036" cy="5.036" r="5.036" transform="translate(292.668 327.218)"/><path class="x" d="M3.081,175.3q8.631-2.953,16.334-5.593l13.891-4.756c1.171-.4,2.121-3.3,2.121-6.43V22.881c0-3.133-.951-6.188-2.126-6.806Q26.7,12.61,19.38,8.77,11.647,4.713,3,.177C1.36-.686,0,1.69,0,5.476Q.018,46.531.037,87.534q.019,40.95.04,81.9C.078,173.22,1.441,175.864,3.081,175.3Z" transform="translate(103.513 251.578)"/><path class="ae" d="M1.559,167q8.477-2.732,16.055-5.18L31.3,157.407c.59-.19,1.064-1.647,1.064-3.217V18.548c0-1.57-.478-3.115-1.07-3.414q-6.51-3.289-13.719-6.927Q9.979,4.368,1.486.081C.668-.332,0,.878,0,2.746q.018,40.4.037,80.721t.036,80.6C.073,165.931.743,167.265,1.559,167Z" transform="translate(105.313 255.794)"/><circle class="b" cx="11.291" cy="11.291" r="11.291" transform="translate(171.05 461.829)"/><path class="aj" d="M8.454,16.907A8.453,8.453,0,1,0,0,8.453a8.453,8.453,0,0,0,8.454,8.453Z" transform="translate(173.89 464.666)"/><g class="ak" transform="translate(173.889 464.666)"><g transform="translate(-0.68 -0.663)"><circle class="k" cx="8.279" cy="8.279" r="8.279" transform="translate(0)"/></g></g><path class="o" d="M8.454,16.907A8.453,8.453,0,1,0,0,8.453a8.453,8.453,0,0,0,8.454,8.453Z" transform="translate(173.89 464.666)"/></g></g></g><path class="al" d="M15,0H308a15,15,0,0,1,15,15V90a15,15,0,0,1-15,15H0a0,0,0,0,1,0,0V15A15,15,0,0,1,15,0Z" transform="translate(1335 1232)"/><text class="am" transform="translate(1358 1266)"><tspan x="0" y="0">Информацию стало получать </tspan><tspan x="0" y="24">Проще, Яснее, Быстрее и </tspan><tspan x="0" y="48">не выходя из дома! </tspan></text></g></svg>