<svg xmlns="http://www.w3.org/2000/svg" xmlns:xlink="http://www.w3.org/1999/xlink" width="1100" height="356" viewBox="0 0 1100 356"><defs><style>.a,.z{fill:#e65c5c;}.b{clip-rule:evenodd;}.aa,.ad,.c,.g,.h,.i,.j,.l,.m,.n,.o,.q,.s,.u,.v,.w,.x,.z{fill-rule:evenodd;}.d{fill:#ede6fc;}.e{clip-path:url(#a);}.f{fill:#e6e6e6;}.g{fill:#b3b3b3;}.h,.t{fill:#ccc;}.i{fill:#ebebeb;}.j,.y{fill:#262623;}.k{clip-path:url(#b);}.l{fill:rgba(38,38,35,0.4);}.m{fill:none;}.af,.n{fill:#fff;}.o{fill:#acacac;}.p{clip-path:url(#c);}.q{fill:#0d806e;}.r{clip-path:url(#d);}.s{fill:#03332c;}.u{fill:#d3d2d2;}.v{fill:#b31212;}.w{fill:#d01414;}.x{fill:#b94949;}.aa{fill:purple;}.ab{clip-path:url(#e);}.ac{clip-path:url(#f);}.ad{fill:#f7f5f6;}.ae{fill:#402e88;}.af{font-size:20px;font-family:ALSEkibastuz-Bold, ALS Ekibastuz ;font-weight:700;}</style><clipPath id="a"><path class="a" d="M-150,.571,950,0V355l-1100,1Z" transform="translate(970 1180)"/></clipPath><clipPath id="b"><path class="b" d="M233.158,99.414c.8,4.766,1.809,10.395,2.243,15.982s.289,11.132.27,15.119.091,6.415,3.262,8.227,9.405,3.008,16.382,3.117a98.288,98.288,0,0,0,18.973-1.74c4.277-.87,5.11-1.631,5.581-3.425a31.744,31.744,0,0,0,.526-7.629c-.054-3.008-.272-6.2-.345-9.324a32.234,32.234,0,0,1,1.3-10.718c1.306-4.527,3.846-10.516,2.067-15.526s-7.878-9.041-16.107-10.6-18.586-.656-24.96.414-8.767,2.3-9.671,4.87-.322,6.47.475,11.237Z" transform="translate(-232.224 -82.056)"/></clipPath><clipPath id="c"><path class="b" d="M230.609,98.635c26.271,42.456,56.106,14.42,64.308-24.154a145.175,145.175,0,0,0,2.81-20.084c.468-7,.358-14-1.157-19.808s-4.436-10.442-11.406-13.555-17.99-4.711-28.625-4.3-20.883,2.838-27.329,9.257-9.092,16.833-9.131,27.785c-.044,12.213,3.915,34.166,10.529,44.857Z" transform="translate(-220.08 -16.672)"/></clipPath><clipPath id="d"><path class="b" d="M273.969,124.1c-.725,1.1-1.78,3.941-4.517,6.238s-7.155,4.048-11.824,4.778a37.856,37.856,0,0,1-13.985-.563,29.269,29.269,0,0,1-10.56-4.44c-2.286-1.73-2.98-3.481-4.481-2.314s-3.807,5.253-6.273,8.671a40.943,40.943,0,0,1-7.893,8.367,51.958,51.958,0,0,1-9.778,5.79,153.505,153.505,0,0,1-14.718,6.263c-5.681,2.061-12.009,3.931-16.467,5.8s-7.047,3.739-8.594,5.517-2.052,3.462-4.254,18.856-6.1,44.5-8.91,64.568-4.518,31.1-5.66,36.807-1.712,6.087-4.533,7.767-7.894,4.661-8.306,6.911,3.836,3.772,7.989,6.4,8.211,6.372,9.828,9.416.792,5.39.666,6.594.444,1.268,3.646,1.3,9.035.032,13.157-.317,6.531-1.046,8.433-2.314,3.3-3.107,4.723-8.053,2.885-13,3.7-16.373.982-2.074,1.192,2.9.462,13.607,11.95,17.548,34.212,3.186,56.643,2.809,44.568-.377,55.679-2.306,11.195-5.786,11.488-14.842.8-23.311,1.09-30.439.377-7.128,2.306-2.893,5.7,12.7,7.463,17.064,1.509,4.612-.377,5.241-5.409,1.635-7.253,2.264-2.012.881-2.18,5.45-.335,13.458-.221,17.931.512,4.529,3.923,4.749,9.835.6,17.432.978,16.366.739,21.639.795,7.05-.2,8.772-1.268a12.5,12.5,0,0,0,4.441-5.185,15.98,15.98,0,0,0,1.378-7.468c-.109-2.665-.761-5.42-6.731-25.3s-17.255-56.877-23.523-78.628-7.519-28.256-8.6-33.009-2-7.755-3.439-10.319a14.924,14.924,0,0,0-6.192-6.15,38.02,38.02,0,0,0-9.051-2.831c-2.63-.579-4.263-.947-10.14-3.385s-16-6.946-21.894-9.642-7.567-3.579-9-5.029a19.044,19.044,0,0,1-3.7-5.98c-1.071-2.512-2.013-5.518-2.683-7.346s-1.065-2.478-1.791-1.381Z" transform="translate(-133.189 -123.565)"/></clipPath><clipPath id="e"><path class="b" d="M113.628,335.832c-.115-.646-.052-1.73.636-4.6s2-7.516,2.971-10.528,1.595-4.389,2.345-5.191a4.44,4.44,0,0,1,2.8-1.23c1.178-.2,2.658-.365,3.731-.626s1.741-.615,2.419-.7a3.59,3.59,0,0,1,1.866.333,5.719,5.719,0,0,0,4.67.594c.959-.344,1.584-1.115,2.627-1.522a6.324,6.324,0,0,1,3.69-.125,14.775,14.775,0,0,1,3.492,1.834,50.394,50.394,0,0,1,4.482,2.731,6.2,6.2,0,0,1,2.293,3.127c.427,1.24.657,2.783,1.272,4.388a28.765,28.765,0,0,0,2.606,4.837c.99,1.564,1.97,3.023,2.074,4.472a5.5,5.5,0,0,1-1.553,3.867,5.711,5.711,0,0,1-3.315,1.8c-1.428.3-3.283.386-4.764.8s-2.585,1.168-3.388,1.386-1.3-.094-1.574-1.095a10.908,10.908,0,0,1-.136-3.836,14.693,14.693,0,0,1,.844-2.627,10.138,10.138,0,0,0,.365-3.325,7.984,7.984,0,0,0-1.074-3.972,7.1,7.1,0,0,0-2.929-2.523,1.315,1.315,0,0,0-1.814.563,17.053,17.053,0,0,0-1.73,3.169c-.636,1.418-1.324,3.169-2.033,4.389a5.384,5.384,0,0,1-2.116,2.241,3.043,3.043,0,0,1-1.98.2,5,5,0,0,1-1.814-.6c-.407-.281-.49-.636-.4-2.168s.365-4.242.552-5.91a9.674,9.674,0,0,0,.177-2.679c-.115-.385-.448-.531-1.084-.375a4.328,4.328,0,0,0-2.387,1.72,29.566,29.566,0,0,0-2.366,4.784,39.813,39.813,0,0,1-2.814,5.379,4.329,4.329,0,0,1-2.647,2.148,6.83,6.83,0,0,1-2.867-.1c-.73-.177-1.022-.385-1.136-1.032Z" transform="translate(-113.582 -312.029)"/></clipPath><clipPath id="f"><path class="b" d="M136.349,313.759a45.281,45.281,0,0,1-2.744,4.249c-1.208,1.5-2.021,1.526-2.6,2.609a20.036,20.036,0,0,0-1.066,3.369c-.026.423-.107,1.039-.216,2.006-.188,1.668-.458,4.378-.552,5.91a11.392,11.392,0,0,0-.029,1.189c.569,1.038,1.436.808,2.39.2a10.337,10.337,0,0,0,3.267-3.641c1.158-1.947,2.371-4.788,3.488-6.993a54.721,54.721,0,0,1,3.1-5.274c.963-1.5,1.867-2.917,3.561-2.8s4.177,1.781,5.567,3.124A7.816,7.816,0,0,1,152.7,321.6a42.764,42.764,0,0,0,1.973,5.119,10.107,10.107,0,0,0,2.314,3.288c.032.025.062.049.093.072-.189-.3-.384-.607-.58-.917a28.758,28.758,0,0,1-2.606-4.837c-.615-1.605-.845-3.148-1.272-4.388a6.194,6.194,0,0,0-2.293-3.127,50.351,50.351,0,0,0-4.482-2.731,14.771,14.771,0,0,0-3.492-1.834,6.324,6.324,0,0,0-3.69.125c-.925.361-1.522,1.009-2.314,1.39Z" transform="translate(-129.133 -312.029)"/></clipPath></defs><g transform="translate(-820 -1180)"><path class="d" d="M-150,.571,950,0V355l-1100,1Z" transform="translate(970 1180)"/><g class="e"><g transform="translate(893.859 1218)"><ellipse class="f" cx="248.071" cy="9.243" rx="248.071" ry="9.243" transform="translate(0 315.37)"/><path class="g" d="M141.466,345.418a46.54,46.54,0,0,0,7.54-1.538,13.953,13.953,0,0,0,5.086-2.513,9.39,9.39,0,0,0,3.094-3.434c.381-1.111-.239-2.034-2.473-4.247s-6.083-5.715-8.134-7.53-2.3-1.941-2.906.709a89.5,89.5,0,0,0-1.757,11.458,16.793,16.793,0,0,0,.417,5.394c.09.679-.263.7-.856.981s-1.424.813-.011.722Z" transform="translate(-8.751 -20.204)"/><path class="h" d="M113.608,343.161a22.9,22.9,0,0,1,1.2-9.989,23.183,23.183,0,0,1,7.051-10.115c2.917-2.245,6.022-2.833,9.737-2.665a29.528,29.528,0,0,1,10.639,2.392,13.5,13.5,0,0,1,4.13,3.508c.646.529,1.056-.093-.161.936s-4.063,3.709-4.893,7.03.353,7.283.377,9.206-1.113,1.806-5.713,1.734-12.663-.1-17.03-.093-5.039.049-5.333-1.945Z" transform="translate(-7.058 -19.927)"/><path class="i" d="M117.76,320.887c-.432-.264-1.992.408-3.215,1.32a16.94,16.94,0,0,0-2.783,2.855c-.672.792-1.128,1.224-1.488,1.608s-.624.72-.672,2.255.12,4.271.312,6.455.408,3.815.48,5.123,0,2.291.528,2.832a2.571,2.571,0,0,0,2.3.432c.648-.2.816-.708,1.188-2.6s.948-5.183,1.38-8.35.72-6.215,1.212-8.339,1.188-3.323.756-3.587Z" transform="translate(-6.817 -19.955)"/><path class="j" d="M304.508,82.377a29.093,29.093,0,0,1-4.674,6.956c-2.155,2.329-4.785,4.167-6.306,4.579s-1.933-.6-1.426-2.994a56.3,56.3,0,0,1,2.844-8.321c.911-2.157,1.307-2.7,2.955-3.034a18.171,18.171,0,0,1,6-.119c1.45.335,1.45,1.128.61,2.934Z" transform="translate(-18.156 -4.929)"/><path class="j" d="M231.624,11.5a28.589,28.589,0,0,0-8.294,4.464,32.208,32.208,0,0,0-7.991,9.424,41.8,41.8,0,0,0-4.712,14.081,66.994,66.994,0,0,0-.358,20.474c1.075,7.357,3.665,14.8,5.291,21.218a67.651,67.651,0,0,1,2.232,18.187,92.066,92.066,0,0,1-3.279,23.064c-2.452,9.369-6.586,20.777-8.763,27.115s-2.4,7.605,2.755,6.531,15.679-4.492,22.926-10,11.215-13.116,13.7-21.162,3.472-16.534,3.389-28.024a255.464,255.464,0,0,0-3.086-36.979c-1.846-10.995-4.381-18.49-6.007-25.682a172.493,172.493,0,0,1-2.811-17.911c-.468-3.83-.689-4.6-1.295-5.015s-1.6-.468-3.692.221Z" transform="translate(-12.707 -0.683)"/><path class="i" d="M233.158,99.414c.8,4.766,1.809,10.395,2.243,15.982s.289,11.132.27,15.119.091,6.415,3.262,8.227,9.405,3.008,16.382,3.117a98.288,98.288,0,0,0,18.973-1.74c4.277-.87,5.11-1.631,5.581-3.425a31.744,31.744,0,0,0,.526-7.629c-.054-3.008-.272-6.2-.345-9.324a32.234,32.234,0,0,1,1.3-10.718c1.306-4.527,3.846-10.516,2.067-15.526s-7.878-9.041-16.107-10.6-18.586-.656-24.96.414-8.767,2.3-9.671,4.87-.322,6.47.475,11.237Z" transform="translate(-14.444 -5.104)"/><g class="k" transform="translate(217.78 76.952)"><g transform="translate(5.624 14.545)"><path class="l" d="M238.226,110.43c-.079,1.645.933,4.713,3.084,7.718a33.034,33.034,0,0,0,8.588,7.971c3.147,2.024,6.153,3.132,8.24,4.476a11.91,11.91,0,0,1,4.223,4.729c.965,1.8,1.724,3.827,4.65,4.7A16.6,16.6,0,0,0,278.6,138.55c3.575-2.056,5.63-5.883,6.785-10.059a34.665,34.665,0,0,0,.7-14.076c-.712-5.377-2.388-11.609-4.65-14.567s-5.108-2.642-9.822-1.3-11.293,3.717-16.765,5.52-9.837,3.037-12.605,3.765-3.938.949-4.017,2.594Z" transform="translate(-238.221 -97.565)"/></g></g><path class="m" d="M233.158,99.414c.8,4.766,1.809,10.395,2.243,15.982s.289,11.132.27,15.119.091,6.415,3.262,8.227,9.405,3.008,16.382,3.117a98.288,98.288,0,0,0,18.973-1.74c4.277-.87,5.11-1.631,5.581-3.425a31.744,31.744,0,0,0,.526-7.629c-.054-3.008-.272-6.2-.345-9.324a32.234,32.234,0,0,1,1.3-10.718c1.306-4.527,3.846-10.516,2.067-15.526s-7.878-9.041-16.107-10.6-18.586-.656-24.96.414-8.767,2.3-9.671,4.87-.322,6.47.475,11.237Z" transform="translate(-14.444 -5.104)"/><path class="n" d="M223.478,84.518c-.4.344-.579,1.176-.86,1.638s-.661.552-1.194.244a5.159,5.159,0,0,1-1.774-2.081,40.937,40.937,0,0,1-1.773-4.886c-.805-2.389-2-5.736-2.977-8.758a59.02,59.02,0,0,1-1.991-7.284c-.253-1.566,0-2,.425-2.262a2.992,2.992,0,0,1,1.484-.353c.462,0,.787.091,1.43,1.357a60.232,60.232,0,0,1,2.389,5.935c.787,2.226,1.4,4.235,1.828,5.547a23.615,23.615,0,0,0,.805,2.244c.145.317.2.335.507-.416s.868-2.271,1.393-1.819,1.013,2.877,1.357,4.886.543,3.6.615,4.524.018,1.176-.317,1.231-.95-.091-1.348.253Z" transform="translate(-13.237 -3.78)"/><path class="o" d="M299.118,79.982c.511.3.692,1.137.973,1.6s.661.552,1.194.244a4.383,4.383,0,0,0,1.66-2.041c.438-1.028.628-2.379,1.32-4.728s1.886-5.7,2.863-8.719a59.026,59.026,0,0,0,1.991-7.284c.253-1.566,0-2-.425-2.262a2.992,2.992,0,0,0-1.484-.353c-.462,0-.787.091-1.43,1.357s-1.6,3.709-2.44,5.812-1.556,3.864-1.981,5.176a20.33,20.33,0,0,0-.652,2.614c-.094.44-.148.458-.456-.293s-.868-2.271-1.393-1.819-1.013,2.877-1.357,4.886-.543,3.6-.615,4.524-.018,1.176.43,1.191,1.29-.209,1.8.095Z" transform="translate(-18.465 -3.51)"/><path class="n" d="M230.609,98.635c26.271,42.456,56.106,14.42,64.308-24.154a145.175,145.175,0,0,0,2.81-20.084c.468-7,.358-14-1.157-19.808s-4.436-10.442-11.406-13.555-17.99-4.711-28.625-4.3-20.883,2.838-27.329,9.257-9.092,16.833-9.131,27.785c-.044,12.213,3.915,34.166,10.529,44.857Z" transform="translate(-13.689 -1.037)"/><g class="p" transform="translate(206.391 15.635)"><g transform="translate(6.522 38.526)"><path class="l" d="M263.614,68.152a9.657,9.657,0,0,1,3.671-4.607,18.063,18.063,0,0,1,8.174-2.579,25.765,25.765,0,0,1,8.549.624c1.893.561,2.226,1.331,2.3,2.361a27.777,27.777,0,0,0,.1,3.442,5.788,5.788,0,0,0,1.7,2.944c.853.863,1.935,1.633,2.184,2.839s-.333,2.849-1.633,4.576a13.213,13.213,0,0,1-5.762,4.431,16.176,16.176,0,0,1-7.236.622,10.66,10.66,0,0,1-3.851-1.207,10,10,0,0,1-3.383-2.532,31.71,31.71,0,0,1-4.471-6.26,5.052,5.052,0,0,1-.342-4.653ZM228.149,60.84c1.689.167,5.516-.24,9.583.1a48.075,48.075,0,0,1,10.7,2.224c2.332.813,2.691,1.364,2.727,3.815s-.251,6.805-.239,8.838.323,1.746,1.292.742a19.661,19.661,0,0,1,4.15-3.564,5.031,5.031,0,0,1,4.437-.239,11.631,11.631,0,0,1,4.007,2.966c1.292,1.363,2.559,3.037,4.126,4.676a23.3,23.3,0,0,0,5.932,4.581c2.5,1.34,5.634,2.416,7.438,4.154s2.281,4.138,1.5,7.883a50.083,50.083,0,0,1-4.991,12.681,37.766,37.766,0,0,1-7.359,9.268c-2.932,2.822-6.529,5.865-5.118,6.114s7.829-2.3,13.915-6.2,11.84-9.157,15.271-15.963,4.537-15.16,4.213-22.669-2.08-14.173-4.74-17.868-6.225-4.423-10.373-4.587a60.627,60.627,0,0,0-12.788.964c-3.911.727-7,1.783-9.841,2.255A23.009,23.009,0,0,1,254,60.919c-2.565-.455-5.111-1.256-8.622-1.819a70.563,70.563,0,0,0-11.15-.836c-3.165.054-5.021.491-6.172,1.08s-1.6,1.33.089,1.5Z" transform="translate(-227.035 -57.754)"/></g></g><path class="m" d="M230.609,98.635c26.271,42.456,56.106,14.42,64.308-24.154a145.175,145.175,0,0,0,2.81-20.084c.468-7,.358-14-1.157-19.808s-4.436-10.442-11.406-13.555-17.99-4.711-28.625-4.3-20.883,2.838-27.329,9.257-9.092,16.833-9.131,27.785c-.044,12.213,3.915,34.166,10.529,44.857Z" transform="translate(-13.689 -1.037)"/><path class="l" d="M286.395,40.678c1.213,1.958,4.384,4.865,5.514,7.676s.216,5.526-.144,6.908-.168,1.432.529,1.612a8.949,8.949,0,0,1,2.847,1.151c.949.66,1.645,1.669,3.363,1.3s4.457-2.126,5.682-6.2.937-10.463-1.045-14.343a9.356,9.356,0,0,0-8.685-5.177,11.627,11.627,0,0,0-6.967,2.847c-1.562,1.261-2.306,2.27-1.093,4.228Z" transform="translate(-17.776 -2.09)"/><path class="j" d="M229.351,29.7a16.549,16.549,0,0,0,3.545,5.059,33.461,33.461,0,0,0,7.116,5.486,39.276,39.276,0,0,0,10.638,4.193A61.894,61.894,0,0,0,264,45.951a45.043,45.043,0,0,0,12.962-1.509,49.569,49.569,0,0,0,10.35-4.552c2.492-1.414,3.69-2.276,4.912-2.4a3.052,3.052,0,0,1,3.091,1.845c.623,1.342.623,3.4.689,8.452s.2,13.09.272,17.074.086,3.913.474,2.649,1.154-3.723,2.087-6.293a53.912,53.912,0,0,1,2.826-6.668c.791-1.414,1.27-1.557,1.7-1.268s.807,1.012,1.262,1.18.988-.22,1.014-3.264a106.266,106.266,0,0,0-1.219-13.922A52.063,52.063,0,0,0,300.7,23.286a32.353,32.353,0,0,0-8.386-11.141,43.63,43.63,0,0,0-14.663-8.266A75.717,75.717,0,0,0,257.646.117,47.292,47.292,0,0,0,241.69,1.771a16.823,16.823,0,0,0-7.883,4.7c-1.461,1.677-1.94,3.258-2.73,6.3a103.485,103.485,0,0,0-2.3,10.6c-.407,3.067-.121,4.7.573,6.334Z" transform="translate(-14.218 -0.003)"/><path class="j" d="M222.9,57.31c1.866-.036,4.657,0,7.483-.036a89.351,89.351,0,0,1,9.2.145A91.7,91.7,0,0,1,249.681,58.9c2.41.507,3.062.834,4.711,1.033a28.957,28.957,0,0,0,6.4,0A52.375,52.375,0,0,0,267,58.4a64.146,64.146,0,0,1,9.766-1.667,56.916,56.916,0,0,1,10.709.054,28.731,28.731,0,0,1,7.333,1.557c1.263.56,1,1.029.88,2.154s-.088,2.9-.227,3.83-.447,1-.819,1.719-.806,2.1-1.6,4.112a48.6,48.6,0,0,1-3.28,6.849,17.2,17.2,0,0,1-4.457,5.128,11.771,11.771,0,0,1-5.436,2.12,18.714,18.714,0,0,1-5.961-.2,12.951,12.951,0,0,1-4.82-1.921,18.683,18.683,0,0,1-3.714-3.425,16.835,16.835,0,0,1-2.519-3.823,37.758,37.758,0,0,1-1.685-4.494,8.457,8.457,0,0,0-1.2-2.808,3.737,3.737,0,0,0-1.957-1.178,1.558,1.558,0,0,0-1.54.363,6.631,6.631,0,0,0-1.4,2.573c-.562,1.486-1.286,3.769-2.029,5.635a16.3,16.3,0,0,1-2.609,4.639,15.351,15.351,0,0,1-4.113,3.406,14.206,14.206,0,0,1-5.128,1.74,21.093,21.093,0,0,1-5.853-.037,10.169,10.169,0,0,1-4.584-1.7,15.281,15.281,0,0,1-3.479-3.877,33.053,33.053,0,0,1-3.08-5.472,47.663,47.663,0,0,1-1.812-5.309c-.38-1.268-.561-1.739-.942-2.011s-.961-.345-1.377-1.015a8.613,8.613,0,0,1-.8-3.334,7.267,7.267,0,0,1,.344-3.733c.471-.816,1.413-.924,3.28-.961ZM233.627,59a13.3,13.3,0,0,0-6.94,2.591c-1.413,1.268-1.7,2.863-1.612,4.856a20.063,20.063,0,0,0,6.342,13.5,11.621,11.621,0,0,0,6.523,2.881,11.77,11.77,0,0,0,6.487-1.3,13.684,13.684,0,0,0,5.092-4.62,25.6,25.6,0,0,0,3.153-6.867,8.587,8.587,0,0,0,.235-5.218,6.748,6.748,0,0,0-3.244-3.66,19.365,19.365,0,0,0-6.758-1.957,36.838,36.838,0,0,0-9.277-.2Zm38.485.181a31.064,31.064,0,0,0-6.686,2.736,4.246,4.246,0,0,0-2.193,4.095,17.869,17.869,0,0,0,1.5,6.342,24.78,24.78,0,0,0,3.9,6.487,8.485,8.485,0,0,0,5.2,2.972,19.266,19.266,0,0,0,7.483-.109,8.485,8.485,0,0,0,5.092-3.5,29.477,29.477,0,0,0,3.642-6.741,14.4,14.4,0,0,0,1.124-5.653,6.607,6.607,0,0,0-1.45-4.168,8.3,8.3,0,0,0-4.856-2.537,41.752,41.752,0,0,0-7.845-.707,13.487,13.487,0,0,0-4.911.779Z" transform="translate(-13.634 -3.515)"/><path class="q" d="M273.969,124.1c-.725,1.1-1.78,3.941-4.517,6.238s-7.155,4.048-11.824,4.778a37.856,37.856,0,0,1-13.985-.563,29.269,29.269,0,0,1-10.56-4.44c-2.286-1.73-2.98-3.481-4.481-2.314s-3.807,5.253-6.273,8.671a40.943,40.943,0,0,1-7.893,8.367,51.958,51.958,0,0,1-9.778,5.79,153.505,153.505,0,0,1-14.718,6.263c-5.681,2.061-12.009,3.931-16.467,5.8s-7.047,3.739-8.594,5.517-2.052,3.462-4.254,18.856-6.1,44.5-8.91,64.568-4.518,31.1-5.66,36.807-1.712,6.087-4.533,7.767-7.894,4.661-8.306,6.911,3.836,3.772,7.989,6.4,8.211,6.372,9.828,9.416.792,5.39.666,6.594.444,1.268,3.646,1.3,9.035.032,13.157-.317,6.531-1.046,8.433-2.314,3.3-3.107,4.723-8.053,2.885-13,3.7-16.373.982-2.074,1.192,2.9.462,13.607,11.95,17.548,34.212,3.186,56.643,2.809,44.568-.377,55.679-2.306,11.195-5.786,11.488-14.842.8-23.311,1.09-30.439.377-7.128,2.306-2.893,5.7,12.7,7.463,17.064,1.509,4.612-.377,5.241-5.409,1.635-7.253,2.264-2.012.881-2.18,5.45-.335,13.458-.221,17.931.512,4.529,3.923,4.749,9.835.6,17.432.978,16.366.739,21.639.795,7.05-.2,8.772-1.268a12.5,12.5,0,0,0,4.441-5.185,15.98,15.98,0,0,0,1.378-7.468c-.109-2.665-.761-5.42-6.731-25.3s-17.255-56.877-23.523-78.628-7.519-28.256-8.6-33.009-2-7.755-3.439-10.319a14.924,14.924,0,0,0-6.192-6.15,38.02,38.02,0,0,0-9.051-2.831c-2.63-.579-4.263-.947-10.14-3.385s-16-6.946-21.894-9.642-7.567-3.579-9-5.029a19.044,19.044,0,0,1-3.7-5.98c-1.071-2.512-2.013-5.518-2.683-7.346s-1.065-2.478-1.791-1.381Z" transform="translate(-8.284 -7.686)"/><g class="r" transform="translate(124.904 115.879)"><g transform="translate(4.579 -1)"><path class="s" d="M162.9,173.195c1.275,2.564,4.709,8.19,8.508,15.094a205.246,205.246,0,0,1,12.165,25.973,215.556,215.556,0,0,1,11.015,38.9c2.577,14.42,3.494,29.67,2.637,41.5s-3.487,20.228-8.2,26.694-11.507,11-21.078,13.005-21.919,1.5-26.96-.731-2.776-6.174,1.023-9.06,9.133-4.712,11.8-6.393,2.667-3.214,1.936-5.041-2.192-3.946-3.069-5.663-1.169-3.032-.621-4.566,1.936-3.288,3.215-5.809a22.755,22.755,0,0,0,2.557-9.608c.11-3.8-.84-8.11-.986-12.494s.512-8.84,1.936-11.726a9.69,9.69,0,0,1,5.882-5c2.265-.8,4.6-1.1,6.028-2.046s1.936-2.557,1.132-13.041-2.922-29.846-4.546-43.249-2.753-20.848-3.76-24.82-1.889-4.47-.614-1.906Z" transform="translate(-138.072 -125.554)"/><path class="s" d="M251.5,129.817c-4.145,1.591-6.657,3.137-8.2,4.877s-2.126,3.672-1.836,7.054,1.45,8.214,2.126,12.563a40.1,40.1,0,0,1,.338,11.935,24.929,24.929,0,0,1-4.445,11.113c-2.657,3.817-6.716,7.876-10.292,12.176a45.253,45.253,0,0,0-8.649,14.688c-1.981,5.846-2.85,13-1.595,22.579s4.638,21.6,6.553,38.666,2.362,39.2,3.256,54.958,2.235,25.147,14.082,31.182,34.2,8.717,59.457,8.047,53.422-4.694,73.427-16.428,31.852-31.182,30.4-60.351S389.913,214.81,375.5,188.882,347,149.989,331.685,140.6s-31.852-15.2-42.8-17.211-16.317-.223-21.888,1.489-11.348,3.347-15.493,4.938Z" transform="translate(-143.066 -122.499)"/></g></g><path class="m" d="M273.969,124.1c-.725,1.1-1.78,3.941-4.517,6.238s-7.155,4.048-11.824,4.778a37.856,37.856,0,0,1-13.985-.563,29.269,29.269,0,0,1-10.56-4.44c-2.286-1.73-2.98-3.481-4.481-2.314s-3.807,5.253-6.273,8.671a40.943,40.943,0,0,1-7.893,8.367,51.958,51.958,0,0,1-9.778,5.79,153.505,153.505,0,0,1-14.718,6.263c-5.681,2.061-12.009,3.931-16.467,5.8s-7.047,3.739-8.594,5.517-2.052,3.462-4.254,18.856-6.1,44.5-8.91,64.568-4.518,31.1-5.66,36.807-1.712,6.087-4.533,7.767-7.894,4.661-8.306,6.911,3.836,3.772,7.989,6.4,8.211,6.372,9.828,9.416.792,5.39.666,6.594.444,1.268,3.646,1.3,9.035.032,13.157-.317,6.531-1.046,8.433-2.314,3.3-3.107,4.723-8.053,2.885-13,3.7-16.373.982-2.074,1.192,2.9.462,13.607,11.95,17.548,34.212,3.186,56.643,2.809,44.568-.377,55.679-2.306,11.195-5.786,11.488-14.842.8-23.311,1.09-30.439.377-7.128,2.306-2.893,5.7,12.7,7.463,17.064,1.509,4.612-.377,5.241-5.409,1.635-7.253,2.264-2.012.881-2.18,5.45-.335,13.458-.221,17.931.512,4.529,3.923,4.749,9.835.6,17.432.978,16.366.739,21.639.795,7.05-.2,8.772-1.268a12.5,12.5,0,0,0,4.441-5.185,15.98,15.98,0,0,0,1.378-7.468c-.109-2.665-.761-5.42-6.731-25.3s-17.255-56.877-23.523-78.628-7.519-28.256-8.6-33.009-2-7.755-3.439-10.319a14.924,14.924,0,0,0-6.192-6.15,38.02,38.02,0,0,0-9.051-2.831c-2.63-.579-4.263-.947-10.14-3.385s-16-6.946-21.894-9.642-7.567-3.579-9-5.029a19.044,19.044,0,0,1-3.7-5.98c-1.071-2.512-2.013-5.518-2.683-7.346s-1.065-2.478-1.791-1.381Z" transform="translate(-8.284 -7.686)"/><rect class="f" width="143.457" height="99.494" rx="4.714" transform="translate(175.515 219.549)"/><path class="g" d="M191.691,345.774H327.95a2.793,2.793,0,0,0,2.785-2.785V340.2H188.905v2.785a2.793,2.793,0,0,0,2.785,2.785Z" transform="translate(-11.75 -21.16)"/><rect class="t" width="141.816" height="96.295" rx="3.567" transform="translate(177.155 222.748)"/><circle class="f" cx="16.837" cy="16.837" r="16.837" transform="translate(231.227 254.058)"/><path class="u" d="M256.464,90.263a9.8,9.8,0,0,0,3.018,2.978,4.848,4.848,0,0,0,3.852.661,2.512,2.512,0,0,0,1.891-2.376,18.72,18.72,0,0,0-.241-4.717c-.182-1.108-.285-1.139-.44-.411a17.66,17.66,0,0,1-.8,3.213,2.792,2.792,0,0,1-1.974,1.731,5.2,5.2,0,0,1-3.115-.258c-1.142-.434-2.33-1.25-2.2-.821Z" transform="translate(-15.951 -5.343)"/><path class="v" d="M249.466,103.484a41.637,41.637,0,0,0,3.355,3.554,4.591,4.591,0,0,0,3.371,1.546,39.533,39.533,0,0,0,6.486,0,4.839,4.839,0,0,0,3.492-1.546,26.564,26.564,0,0,0,3.25-3.575c.587-.892.191-1-1.5-.807a71.137,71.137,0,0,1-7.744.751,57.2,57.2,0,0,1-8-.595,22.7,22.7,0,0,0-2.748-.279c-.39.008-.638.08.039.951Z" transform="translate(-15.49 -6.377)"/><path class="w" d="M259.307,104.571c-2.037-.082-3.745-.151-5.392-.376a18.117,18.117,0,0,1-4.087-1.039,24.842,24.842,0,0,1-2.864-1.278c-.574-.315-.615-.424-.56-.444s.2.048.8.123a21.121,21.121,0,0,0,2.706.144,12.237,12.237,0,0,0,3.041-.369c.861-.246,1.476-.629,2.167-.745a3.5,3.5,0,0,1,2.166.4,10.466,10.466,0,0,1,2.023,1.544,10.465,10.465,0,0,1,2.023-1.544,3.5,3.5,0,0,1,2.166-.4c.69.116,1.305.5,2.167.745a12.227,12.227,0,0,0,3.041.369,21.12,21.12,0,0,0,2.706-.144c.595-.075.745-.143.8-.123s.014.13-.56.444a24.885,24.885,0,0,1-2.864,1.278,18.122,18.122,0,0,1-4.087,1.039c-1.647.225-3.356.294-5.392.376Z" transform="translate(-15.325 -6.254)"/><path class="j" d="M308.212,60.011a5.792,5.792,0,0,0,1.567.844c.4.028.592-.413.813-2.231s.468-5.013.606-9.131a87.145,87.145,0,0,0-.413-13.58,37.5,37.5,0,0,0-3.5-11.789,21.58,21.58,0,0,0-9.492-10.067c-5.47-3.167-14.125-6.167-19.113-7.653s-6.308-1.457-7.163-.971-1.242,1.427-.051,2.951,3.961,3.629,5.291,5.706,1.219,4.128-.97,4.848-6.455.111-10.305-1.634-7.286-4.627-8.089-7.369S258.42,4.589,258.4,2.78,256.526-.043,260.173,0a139.645,139.645,0,0,1,19.538,2.509,51.666,51.666,0,0,1,14.906,5.04,37.029,37.029,0,0,1,9.944,7.514,30.89,30.89,0,0,1,6.344,10.8,57.468,57.468,0,0,1,3.047,15.707,121.982,121.982,0,0,1-.332,16.178c-.3,3.767-.526,4.82-1.081,5.43a2.549,2.549,0,0,1-2.161.693,2.614,2.614,0,0,1-1.874-1.2,7.518,7.518,0,0,1-1.308-2.581c-.063-.549.454-.4,1.016-.082Z" transform="translate(-15.997)"/><path class="x" d="M314.19,62.062l1.952.213a1.575,1.575,0,0,1,1.391,1.731l-1.881,17.239a1.574,1.574,0,0,1-1.731,1.391l-1.952-.213a1.575,1.575,0,0,1-1.391-1.731l1.881-17.239a1.575,1.575,0,0,1,1.731-1.391Z" transform="translate(-19.317 -3.86)"/><path class="y" d="M268.829,107.842l.022,0a49.507,49.507,0,0,0,7.379-1.08c1.9-.4,4.314-.965,6.837-1.729a43.542,43.542,0,0,0,7.274-2.845,24.055,24.055,0,0,0,5.634-4,22.976,22.976,0,0,0,3.927-5.013,30.28,30.28,0,0,0,2.286-4.956,39.406,39.406,0,0,0,1.594-5.783,23.406,23.406,0,0,0,.453-6.065l0-.031,1.053,0,.923-.029v.029h0l0,0a25.062,25.062,0,0,1-.485,6.467,41.479,41.479,0,0,1-1.678,6.084,32.286,32.286,0,0,1-2.433,5.28,24.926,24.926,0,0,1-4.268,5.438,26.029,26.029,0,0,1-6.1,4.335,45.386,45.386,0,0,1-7.606,2.984c-2.549.772-5.036,1.354-7.007,1.768a51.169,51.169,0,0,1-7.626,1.119l-.066-.845-.111-1.123Z" transform="translate(-16.721 -4.746)"/><path class="z" d="M307.85,56.446l2.83.309a2.284,2.284,0,0,1,2.017,2.51l-2.727,25a2.283,2.283,0,0,1-2.511,2.017l-2.83-.309a2.284,2.284,0,0,1-2.016-2.51l2.727-25a2.283,2.283,0,0,1,2.51-2.017Z" transform="translate(-18.822 -3.51)"/><path class="j" d="M261.687,107.973l11.568-1.452.942,7.505-11.568,1.452a3.793,3.793,0,0,1-4.224-3.281h0a3.793,3.793,0,0,1,3.281-4.224Z" transform="translate(-16.071 -6.626)"/><path class="j" d="M220.157,56.563a6.27,6.27,0,0,0,1.486-3.236c.276-1.462.3-3.332.636-5.873s.983-5.753,1.462-8.283a35.326,35.326,0,0,1,1.295-5.634,3.635,3.635,0,0,1,1.81-2.169c.611-.24,1.139-.048,1.846.731a37.829,37.829,0,0,0,2.912,3.368,4.89,4.89,0,0,0,5.826,1.115c2.757-1.187,6.521-4.639,6.8-7.384s-2.937-4.782-6.58-5.645a18.849,18.849,0,0,0-10.884.707,16.139,16.139,0,0,0-7.4,6.353,28.638,28.638,0,0,0-4.435,10.152,32.4,32.4,0,0,0-.216,10.249,16.113,16.113,0,0,0,1.39,5.418c.539.995,1.115,1.306,1.822,1.27a3.465,3.465,0,0,0,2.229-1.139Z" transform="translate(-13.336 -1.435)"/><path class="aa" d="M128.785,330.748a3.537,3.537,0,0,0-2.191.188,3.378,3.378,0,0,0-1.534,1.722,9.8,9.8,0,0,0-.824,2.63,4.1,4.1,0,0,0,.146,2.463,1.3,1.3,0,0,0,1.649.49,3.919,3.919,0,0,0,1.91-2.066,17.254,17.254,0,0,0,1.367-3.913c.2-1.023.031-1.356-.522-1.513Z" transform="translate(-7.721 -20.566)"/><path class="i" d="M113.628,335.832c-.115-.646-.052-1.73.636-4.6s2-7.516,2.971-10.528,1.595-4.389,2.345-5.191a4.44,4.44,0,0,1,2.8-1.23c1.178-.2,2.658-.365,3.731-.626s1.741-.615,2.419-.7a3.59,3.59,0,0,1,1.866.333,5.719,5.719,0,0,0,4.67.594c.959-.344,1.584-1.115,2.627-1.522a6.324,6.324,0,0,1,3.69-.125,14.775,14.775,0,0,1,3.492,1.834,50.394,50.394,0,0,1,4.482,2.731,6.2,6.2,0,0,1,2.293,3.127c.427,1.24.657,2.783,1.272,4.388a28.765,28.765,0,0,0,2.606,4.837c.99,1.564,1.97,3.023,2.074,4.472a5.5,5.5,0,0,1-1.553,3.867,5.711,5.711,0,0,1-3.315,1.8c-1.428.3-3.283.386-4.764.8s-2.585,1.168-3.388,1.386-1.3-.094-1.574-1.095a10.908,10.908,0,0,1-.136-3.836,14.693,14.693,0,0,1,.844-2.627,10.138,10.138,0,0,0,.365-3.325,7.984,7.984,0,0,0-1.074-3.972,7.1,7.1,0,0,0-2.929-2.523,1.315,1.315,0,0,0-1.814.563,17.053,17.053,0,0,0-1.73,3.169c-.636,1.418-1.324,3.169-2.033,4.389a5.384,5.384,0,0,1-2.116,2.241,3.043,3.043,0,0,1-1.98.2,5,5,0,0,1-1.814-.6c-.407-.281-.49-.636-.4-2.168s.365-4.242.552-5.91a9.674,9.674,0,0,0,.177-2.679c-.115-.385-.448-.531-1.084-.375a4.328,4.328,0,0,0-2.387,1.72,29.566,29.566,0,0,0-2.366,4.784,39.813,39.813,0,0,1-2.814,5.379,4.329,4.329,0,0,1-2.647,2.148,6.83,6.83,0,0,1-2.867-.1c-.73-.177-1.022-.385-1.136-1.032Z" transform="translate(-7.065 -19.408)"/><g class="ab" transform="translate(106.517 292.621)"><g transform="translate(-2.121 -4.636)"><path class="n" d="M121.6,313.627c1.062.565,2,1.916,1.875,4.315s-1.31,5.845-2.371,8.92-2,5.777-2.854,7.748-1.627,3.212-2.909,3.8a2.492,2.492,0,0,1-3.722-1.586c-.648-2.123-.152-6.314.717-9.981a44.774,44.774,0,0,1,3.143-8.947c1.034-2.137,1.861-3.267,2.867-3.943a3.107,3.107,0,0,1,3.253-.331Z" transform="translate(-111.32 -307.472)"/><path class="n" d="M137.834,311c-1.468,2.211-3.071,5.2-4.279,6.7s-2.021,1.526-2.6,2.609-.932,3.229-1.387,4.345-1.015,1.2-1.185,2.6A13.078,13.078,0,0,0,129,332.6c.565,1.245,1.475,1.024,2.482.386a10.336,10.336,0,0,0,3.267-3.641c1.158-1.947,2.371-4.788,3.488-6.993a54.721,54.721,0,0,1,3.1-5.274c.963-1.5,1.867-2.917,3.561-2.8s4.177,1.781,5.567,3.124a7.815,7.815,0,0,1,2.187,3.885,42.764,42.764,0,0,0,1.973,5.119,10.106,10.106,0,0,0,2.314,3.288c.689.552,1.216.5,2.031-1.187a13.012,13.012,0,0,0,1.008-8.585c-.91-3.557-3.833-7.334-7.169-9.705a15.481,15.481,0,0,0-9.628-3.1c-2.542.234-3.876,1.667-5.343,3.877Z" transform="translate(-112.378 -307.085)"/></g><g class="ac" transform="translate(14.584 0)"><g transform="translate(-0.946 16.244)"><path class="ad" d="M129.05,329.373A5.114,5.114,0,0,1,132,330.4a2.833,2.833,0,0,1,1.362,1.667c.08.475-.165.823-.67,1.434a14.472,14.472,0,0,1-1.835,1.922,1.118,1.118,0,0,1-1.353.22,2.277,2.277,0,0,1-1.18-1.391,8.716,8.716,0,0,1-.165-2.865c.06-.993.162-1.869.888-2.016Z" transform="translate(-128.124 -329.35)"/></g></g><g class="ab"><path class="m" d="M137.834,311c-1.468,2.211-3.071,5.2-4.279,6.7s-2.021,1.526-2.6,2.609-.932,3.229-1.387,4.345-1.015,1.2-1.185,2.6A13.078,13.078,0,0,0,129,332.6c.565,1.245,1.475,1.024,2.482.386a10.336,10.336,0,0,0,3.267-3.641c1.158-1.947,2.371-4.788,3.488-6.993a54.721,54.721,0,0,1,3.1-5.274c.963-1.5,1.867-2.917,3.561-2.8s4.177,1.781,5.567,3.124a7.815,7.815,0,0,1,2.187,3.885,42.764,42.764,0,0,0,1.973,5.119,10.106,10.106,0,0,0,2.314,3.288c.689.552,1.216.5,2.031-1.187a13.012,13.012,0,0,0,1.008-8.585c-.91-3.557-3.833-7.334-7.169-9.705a15.481,15.481,0,0,0-9.628-3.1c-2.542.234-3.876,1.667-5.343,3.877Z" transform="translate(-114.499 -311.721)"/><path class="ad" d="M113.482,333.644a3.656,3.656,0,0,1,3.628.209,1.654,1.654,0,0,1,.738,2.208,6.25,6.25,0,0,1-1.933,2.737,3.019,3.019,0,0,1-2.563.639c-.726-.2-1.207-.785-1.252-2s.345-3.062,1.382-3.793Z" transform="translate(-113.489 -313.348)"/><path class="i" d="M159.409,330.7a3.971,3.971,0,0,1-2.5-1.98c-.6-1.3-.743-3.615-1.207-3.124s-1.246,3.787-3.142,5.9-4.9,3.029-6.744,3.789a5.884,5.884,0,0,0-3.335,2.669c-.825,1.311-1.805,3.334-.909,4.8s3.67,2.388,7.459,1.731,8.593-2.886,10.866-5.221a5.917,5.917,0,0,0,1.541-6.238,3.3,3.3,0,0,0-2.027-2.326Z" transform="translate(-115.3 -312.869)"/><path class="ad" d="M150.418,335.985a8.28,8.28,0,0,0-3.137.916c-.816.381-1.034.562-1.025.852a5.082,5.082,0,0,0,.481,1.251,8.269,8.269,0,0,1,.572,2.031,9.35,9.35,0,0,1,.027,1.932c-.036.426-.073.517.508.172a22.792,22.792,0,0,0,2.511-1.741,3.439,3.439,0,0,0,1.224-1.714,4.926,4.926,0,0,0,.263-2.23,1.516,1.516,0,0,0-1.423-1.469Z" transform="translate(-115.614 -313.518)"/></g></g><path class="m" d="M113.628,335.832c-.115-.646-.052-1.73.636-4.6s2-7.516,2.971-10.528,1.595-4.389,2.345-5.191a4.44,4.44,0,0,1,2.8-1.23c1.178-.2,2.658-.365,3.731-.626s1.741-.615,2.419-.7a3.59,3.59,0,0,1,1.866.333,5.719,5.719,0,0,0,4.67.594c.959-.344,1.584-1.115,2.627-1.522a6.324,6.324,0,0,1,3.69-.125,14.775,14.775,0,0,1,3.492,1.834,50.394,50.394,0,0,1,4.482,2.731,6.2,6.2,0,0,1,2.293,3.127c.427,1.24.657,2.783,1.272,4.388a28.765,28.765,0,0,0,2.606,4.837c.99,1.564,1.97,3.023,2.074,4.472a5.5,5.5,0,0,1-1.553,3.867,5.711,5.711,0,0,1-3.315,1.8c-1.428.3-3.283.386-4.764.8s-2.585,1.168-3.388,1.386-1.3-.094-1.574-1.095a10.908,10.908,0,0,1-.136-3.836,14.693,14.693,0,0,1,.844-2.627,10.138,10.138,0,0,0,.365-3.325,7.984,7.984,0,0,0-1.074-3.972,7.1,7.1,0,0,0-2.929-2.523,1.315,1.315,0,0,0-1.814.563,17.053,17.053,0,0,0-1.73,3.169c-.636,1.418-1.324,3.169-2.033,4.389a5.384,5.384,0,0,1-2.116,2.241,3.043,3.043,0,0,1-1.98.2,5,5,0,0,1-1.814-.6c-.407-.281-.49-.636-.4-2.168s.365-4.242.552-5.91a9.674,9.674,0,0,0,.177-2.679c-.115-.385-.448-.531-1.084-.375a4.328,4.328,0,0,0-2.387,1.72,29.566,29.566,0,0,0-2.366,4.784,39.813,39.813,0,0,1-2.814,5.379,4.329,4.329,0,0,1-2.647,2.148,6.83,6.83,0,0,1-2.867-.1c-.73-.177-1.022-.385-1.136-1.032Z" transform="translate(-7.065 -19.408)"/></g></g><path class="ae" d="M15,0H308a15,15,0,0,1,15,15V90a15,15,0,0,1-15,15H0a0,0,0,0,1,0,0V15A15,15,0,0,1,15,0Z" transform="translate(1227 1211)"/><text class="af" transform="translate(1250 1245)"><tspan x="0" y="0">Информацию стало получать </tspan><tspan x="0" y="24">Проще, Яснее, Быстрее и </tspan><tspan x="0" y="48">не выходя из дома! </tspan></text></g></svg>