<svg xmlns="http://www.w3.org/2000/svg" width="253.81" height="64.1" viewBox="0 0 253.81 64.1"><defs><style>.a{fill:#201600;}</style></defs><g transform="translate(-98.73 -51.14)"><path d="M250.22,89.66l-3.71-8.04h2.24l2.46,5.82,2.01-5.82h2.04l-2.78,7.46a5.8,5.8,0,0,1-1.56,2.56,2.9,2.9,0,0,1-1.79.65,3.794,3.794,0,0,1-2.86-1.52l1.31-1.31a2.132,2.132,0,0,0,1.54.91.89.89,0,0,0,.56-.17A3,3,0,0,0,250.22,89.66Z"/><path d="M276.39,83.46,275,84.78a4.31,4.31,0,0,0-3.19-1.5,3.484,3.484,0,0,0-3.54,3.54,3.727,3.727,0,0,0,.45,1.85A3.257,3.257,0,0,0,270,89.94a3.7,3.7,0,0,0,1.84.46,3.878,3.878,0,0,0,1.58-.32,5.611,5.611,0,0,0,1.57-1.17l1.35,1.41a7.582,7.582,0,0,1-2.19,1.57,6,6,0,0,1-2.35.44,5.553,5.553,0,0,1-4.82-8.27A5.2,5.2,0,0,1,269,82.11a5.721,5.721,0,0,1,2.83-.74,6,6,0,0,1,2.49.54A5.937,5.937,0,0,1,276.39,83.46Z"/><path d="M295.06,92.06l-2.89-7.67-2.94,7.67h-2.11l4.03-10.44h2.01l4.01,10.44Z"/><path d="M311.47,89.66l-3.71-8.04H310l2.46,5.82,2.01-5.82h2.04l-2.78,7.46a5.8,5.8,0,0,1-1.56,2.56,2.9,2.9,0,0,1-1.79.65,3.794,3.794,0,0,1-2.86-1.52l1.31-1.31a2.132,2.132,0,0,0,1.54.91.91.91,0,0,0,.56-.17A2.264,2.264,0,0,0,311.47,89.66Z"/><path d="M328.03,81.62h5.18v1.94H330v8.49h-1.97Z"/><path d="M352.54,81.62V92.06h-1.99V85.52l-3.89,6.54h-1.73V81.62h1.99v6.75l3.95-6.75Z"/><path d="M158.42,88.37a4.249,4.249,0,0,0,3.47,2.06,3.01,3.01,0,0,0,2.13-.75,2.571,2.571,0,0,0,.81-1.98,2.72,2.72,0,0,0-.79-2.01c-.53-.53-1.62-.8-3.28-.8h-.8V81.56h.8a3.3,3.3,0,0,0,2.24-.68,2.313,2.313,0,0,0,.77-1.82,2.177,2.177,0,0,0-.64-1.66,2.339,2.339,0,0,0-1.69-.61,3.837,3.837,0,0,0-2.58,1.24l-2.2-2.45a8.1,8.1,0,0,1,2.96-1.91,8.547,8.547,0,0,1,2.19-.31,5.992,5.992,0,0,1,4.03,1.4,4.694,4.694,0,0,1,1.63,3.76,5.8,5.8,0,0,1-.37,2.05,4.957,4.957,0,0,1-2.04,2.12,5.319,5.319,0,0,1,3.43,5.23,5.611,5.611,0,0,1-1.83,4.38,6.771,6.771,0,0,1-4.71,1.66,7.7,7.7,0,0,1-3.25-.66,9.327,9.327,0,0,1-3.13-2.84Z"/><path d="M181.37,73.9h3.78l7.53,19.57h-3.87l-1.53-4.03h-7.99l-1.59,4.03h-3.87Zm1.91,5.19-2.63,6.72h5.24Z"/><path d="M198.89,73.9h9.71v3.65h-6.01V93.47h-3.7V73.9Z"/><path d="M232.85,77.34l-2.6,2.48a8.08,8.08,0,0,0-5.98-2.81,6.558,6.558,0,0,0-6.65,6.65,6.982,6.982,0,0,0,.85,3.48,6.065,6.065,0,0,0,2.41,2.38,7.08,7.08,0,0,0,3.46.87,7,7,0,0,0,2.96-.61,10.662,10.662,0,0,0,2.95-2.2l2.52,2.64a13.762,13.762,0,0,1-4.1,2.93,11.1,11.1,0,0,1-4.4.82,10.137,10.137,0,0,1-7.47-2.89,10.013,10.013,0,0,1-2.91-7.42,10.153,10.153,0,0,1,1.32-5.2A9.891,9.891,0,0,1,219,74.8a10.731,10.731,0,0,1,5.31-1.38,11.123,11.123,0,0,1,4.66,1.02A10.851,10.851,0,0,1,232.85,77.34Z"/><path class="a" d="M120.27,60.75h.22c5.25-.16,9.01-4.49,12.39-9.6h-2.34c-2.9,4.19-6.09,7.53-10.11,7.66h-.16c-3.67,0-7.35-4.06-10.16-7.66h-2.44C110.94,55.47,115.25,60.75,120.27,60.75Z"/><path class="a" d="M116.17,64.42c.12,0,.24.01.35.01,6.65,0,12.1-5.33,17.36-10.49.97-.95,1.93-1.89,2.89-2.79h-1.41c-.73.69-1.45,1.4-2.16,2.1-5.2,5.1-10.6,10.37-17,10.2-5.91-.17-9.71-5.77-13.38-11.18-.25-.38-.51-.75-.77-1.13h-1.17c.38.56.76,1.11,1.14,1.67C105.83,58.43,109.77,64.24,116.17,64.42Z"/><path class="a" d="M114.84,70.56c6.78,0,13-4.72,19.02-9.28a77.569,77.569,0,0,1,8.56-5.93V53.52a71.963,71.963,0,0,0-9.54,6.47c-5.94,4.51-12.09,9.16-18.5,8.94-5.51-.19-8.82-5.08-12.32-10.26-1.07-1.59-2.16-3.19-3.33-4.67v2.68c.68.94,1.34,1.92,2,2.89.79,1.17,1.59,2.35,2.43,3.48-.25-.24-.5-.48-.75-.73-1.2-1.51-2.41-3.01-3.67-4.4v2.3c1.01.9,1.99,1.82,2.95,2.75.68.65,1.35,1.31,2,1.95,1.12,1.09,2.18,2.13,3.21,3.09.31.29.64.61.97.93q1.065,1.17,2.19,2.19c1.27,1.28,2.66,2.67,4.14,4.02,3.71,3.37,7.96,6.44,12.15,6.56h.29c5.87,0,10.45-5.35,14.87-10.52.31-.36.62-.72.92-1.07V68.64c-.55.63-1.1,1.27-1.66,1.92-4.35,5.09-8.84,10.35-14.39,10.18-3.25-.1-6.63-2.18-9.75-4.76a11.362,11.362,0,0,0,2.35.29h.24c6.49,0,11.99-4.91,17.3-9.66,2-1.79,3.94-3.52,5.9-4.99V60.43a82.356,82.356,0,0,0-6.55,5.46c-5.18,4.63-10.53,9.41-16.66,9.41h-.22a10.988,10.988,0,0,1-4.28-.99c-1.52-1.39-2.96-2.84-4.25-4.14-.34-.34-.66-.67-.98-.99a10.549,10.549,0,0,0,4.85,1.35A4.49,4.49,0,0,0,114.84,70.56Z"/><path class="a" d="M129.87,86.59c-5.63-.11-12.2-6.45-17-11.08-1.26-1.21-2.45-2.36-3.49-3.27-1.22-1.07-2.49-2.24-3.83-3.47-2.15-1.98-4.44-4.1-6.82-6.03v2.52c1.9,1.61,3.75,3.32,5.5,4.94,1.35,1.25,2.62,2.42,3.87,3.51,1.01.88,2.18,2.01,3.42,3.21,5.03,4.85,11.92,11.5,18.31,11.62h.19c5.24,0,8.97-4.15,12.4-8.77V76.48C138.79,81.52,135.02,86.71,129.87,86.59Z"/><path class="a" d="M125.01,93.53c-5.62-.21-11.35-5.95-15.95-10.57-1.06-1.06-2.07-2.07-2.97-2.91q-1.56-1.44-3.25-3.11c-1.31-1.27-2.68-2.6-4.09-3.89v1.32c1.17,1.09,2.32,2.2,3.42,3.27,1.14,1.11,2.22,2.16,3.27,3.13.89.82,1.89,1.82,2.94,2.88,4.72,4.73,10.6,10.62,16.6,10.85.13.01.26.01.39.01,5.83,0,10.66-5.06,15.33-9.96.59-.61,1.17-1.22,1.74-1.81V81.36c-.81.82-1.62,1.67-2.44,2.53C135.36,88.73,130.56,93.74,125.01,93.53Z"/><path class="a" d="M116.74,99.35c-4.99-.2-9.63-5.27-13.36-9.34-.79-.86-1.53-1.67-2.22-2.37-.77-.78-1.57-1.65-2.42-2.56v1.89c.51.55,1.01,1.08,1.5,1.57.68.69,1.41,1.49,2.19,2.34,3.89,4.25,8.73,9.53,14.26,9.76,6.69.27,12.73-4.09,18.56-8.31a83.082,83.082,0,0,1,7.18-4.84V86.02a78.416,78.416,0,0,0-7.93,5.27C128.84,95.38,123,99.61,116.74,99.35Z"/><path class="a" d="M112.49,105.73c-5.7-.27-9.69-4.87-13.75-10.06v2.6c3.79,4.68,7.93,8.81,13.67,9.08,6.99.34,13.83-3.68,20.43-7.55a85,85,0,0,1,9.58-5.11V92.95a79.819,79.819,0,0,0-10.4,5.46C125.62,102.15,119.01,106.04,112.49,105.73Z"/><path class="a" d="M130.49,106.31c-1.28.57-2.66,1.27-4.13,2.01-5.23,2.62-11.16,5.59-16.18,5.26-5.04-.33-8.45-4.3-11.44-8.99v1.77c2.94,4.35,6.37,7.87,11.38,8.19,5.29.34,11.34-2.69,16.67-5.36,1.46-.73,2.84-1.42,4.1-1.99,1.34-.6,2.7-1.24,4.02-1.86,2.46-1.16,4.97-2.33,7.52-3.35v-1.04c-2.7,1.06-5.34,2.3-7.93,3.52C133.18,105.08,131.82,105.72,130.49,106.31Z"/><path class="a" d="M123.36,54.55c2.53-.03,4.56-1.34,6.28-3.4h-1.3a6.913,6.913,0,0,1-4.99,2.43h-.06a9.4,9.4,0,0,1-5.65-2.43h-1.53c2.22,1.99,4.63,3.4,7.17,3.4Z"/><path class="a" d="M130.63,113.09c-1.46.57-3.14,1.33-4.92,2.15h3.95c.55-.23,1.07-.45,1.56-.65,1.69-.66,3.4-1.36,5.06-2.04,2.02-.83,4.08-1.66,6.15-2.46v-1.73c-2.28.86-4.53,1.78-6.76,2.69C134.01,111.73,132.3,112.43,130.63,113.09Z"/></g></svg>