<svg xmlns="http://www.w3.org/2000/svg" xmlns:xlink="http://www.w3.org/1999/xlink" width="1850" height="1080" viewBox="0 0 1850 1080"><defs><style>.a,.ad{fill:#fff;}.a{stroke:#707070;}.b,.c{clip-rule:evenodd;}.c,.h{fill:#4d4d4d;}.d,.o{fill:#f07f57;}.e{clip-path:url(#a);}.f,.y{fill:#fbf6f1;}.g,.l,.z{fill:#0b0b0b;}.ab,.ad,.af,.ag,.g,.h,.k,.m,.o,.p,.r,.t,.u,.v,.y{fill-rule:evenodd;}.i{clip-path:url(#b);}.j,.t,.z{opacity:0.3;}.af,.k,.t{fill:#1d1d1f;}.m{fill:none;}.n{clip-path:url(#c);}.p{fill:#ebebeb;}.q{clip-path:url(#d);}.r{fill:#e5f3e0;}.s{clip-path:url(#e);}.u{fill:#60956e;}.w{clip-path:url(#f);}.x{opacity:0.6;}.aa{clip-path:url(#g);}.ab{fill:#ccddc6;}.ac{clip-path:url(#h);}.ae{clip-path:url(#i);}.af{opacity:0.304;}.ag{fill:#dbd7d7;}</style><clipPath id="a"><rect class="a" width="1850" height="1080" transform="translate(70)"/></clipPath><clipPath id="b"><path class="b" d="M353.514,485.444c7.518-3.193,14.76-1.719,23.886-.1s20.138,3.394,31.417,10.216,22.827,18.7,27.564,42.654,2.662,60,.847,93.443-3.371,64.3-8.038,82.45-12.445,23.594-17.842,30.479-8.41,15.209-22.8-12.144S348.4,642.06,336.809,598.1s-8.993-68.852-3.8-85.227S346,488.636,353.514,485.444Z" transform="translate(-328.608 -483.554)"/></clipPath><clipPath id="c"><path class="b" d="M376.313,647.957c4.895,18.6,13.272,54.127,20.189,85.424s12.374,58.367,10.916,74.766-9.833,22.129-24.083,29.4a488.339,488.339,0,0,1-47.981,21.031c-13.6,4.944-20.683,6.015-24.657,5.536s-4.843-2.507-7.693-21.392-7.679-54.627-10.674-80.177-4.154-40.91-2.187-58.9,7.059-38.622,15.8-53.088a64.9,64.9,0,0,1,31.1-26.73c9.965-3.96,17.5-3.578,22.357-2.491a16.4,16.4,0,0,1,8.818,4.608c1.792,1.734,3.2,3.415,8.1,22.017Z" transform="translate(-289.169 -620.597)"/></clipPath><clipPath id="d"><path class="b" d="M273.422,455.5c-3.2,7.694,2.1,17.095,5.487,23.5s4.853,9.81,5.254,13.482-.265,7.608.1,10.962,1.746,6.126,5.406,9.009a25.8,25.8,0,0,0,18.213,5.295c8.621-.582,19.931-4.74,26.057-11.088s7.069-14.887,7.426-20.127.128-7.182-.787-8.928-2.515-3.3-3.689-10.721-1.919-20.722-7.99-26.875-17.467-5.166-29.017-1.677-23.255,9.475-26.456,17.17Z" transform="translate(-272.433 -435.549)"/></clipPath><clipPath id="e"><path class="b" d="M278.149,513.119c.254-5.5,2.481-9.063,4.2-10.653s2.925-1.208,7.25,1.176,11.766,6.773,18.73,10.239,13.451,6.01,18.761,1.717,9.445-15.423,12.37-22.641,4.643-10.526,7.187-11.416,5.915.636,8.49,1.844,4.357,2.1,5.311,6.074,1.081,11.034,1.24,25.725.35,37.015.35,50.688-.191,18.7-1.822,22.2-4.7,5.495-10.52,5.94a35.782,35.782,0,0,1-21.756-5.527c-7.368-4.873-13.538-13.522-21.106-23.317s-16.535-20.733-21.877-29.923-7.06-16.631-6.805-22.132Z" transform="translate(-278.126 -481.276)"/></clipPath><clipPath id="f"><path class="b" d="M348.428,478.939c3.479.763,8.767,1.591,11.651,2.679s3.366,2.434,4.929,10.081,4.209,21.594,5.483,28.809,1.178,7.7-.788,8.314-5.8,1.377-7.694,2.093-1.845,1.388-.193,2.428,4.912,2.447,6.661,3.607,1.989,2.074,1.793,6.959A177.082,177.082,0,0,1,367.8,566.8c-1.643,9.155-4.294,18.611-6.7,23.625s-4.569,5.587-6.382,4.505-3.276-3.816-3.963-7.925-.6-9.59-.629-23.458-.184-36.119-1.061-51.24-2.474-23.112-3.835-27.845-2.487-6.211-2.215-6.6,1.941.31,5.42,1.073Z" transform="translate(-342.968 -477.755)"/></clipPath><clipPath id="g"><path class="c" d="M282.87,503.218c-1.4.132-5.6,3.49-9.25,7.689s-6.76,9.237-10.832,14.359a112.571,112.571,0,0,1-14.7,15.115c-5.584,4.786-11.714,9.153-15.618,13.309a23.249,23.249,0,0,0-6.424,13.226,52.144,52.144,0,0,0-.084,15.744c.755,4.325,2.267,6.676,3.516,20.218s2.233,38.276,3.1,58.41,1.626,35.669,3.893,44.906,6.046,12.176,11.5,15.325a56.536,56.536,0,0,0,21.287,7.6c8.691,1.092,18.935-.084,31.489-9.489s27.417-27.039,40.852-42.49,25.443-28.718,31.825-35.9,7.138-8.271,6.76-9.489-1.889-2.561-3.694-4.241-3.9-3.694-7.935-10.245-9.993-17.634-13.1-22.965-3.355-4.909-4.419-3.594-2.941,3.524-4.017,4.6-1.353,1.022-9.929-9.863-25.454-32.6-36.11-47.1-15.092-21.785-16.609-26.975-.116-8.285-1.514-8.153Z" transform="translate(-225.41 -503.214)"/></clipPath><clipPath id="h"><path class="b" d="M321.034,512.007c3.594,2.953,10.672,8.983,14.547,12.046s4.549,3.159,5.078,2.246.913-2.837,1.947-10.265,2.717-20.361,3.149-27.476-.385-8.413-1.514-9.976a28.38,28.38,0,0,0-3.51-4.183c-.937-.794-1.37-.553-3.51,3.077s-5.985,10.648-9.6,16.518-7.008,10.588-8.649,12.886-1.529,2.173,2.064,5.127Z" transform="translate(-317.953 -474.028)"/></clipPath><clipPath id="i"><path class="b" d="M253.958,434.673a78.373,78.373,0,0,0,9.717,22.645,97.752,97.752,0,0,0,16.982,20.58,118.927,118.927,0,0,0,19.777,14.541c4.961,2.813,6.9,2.979,11.129,1.873s10.762-3.486,14.5-5.893,4.675-4.841,5.889-9.7a126.352,126.352,0,0,0,3.389-21.581,150.325,150.325,0,0,0-1.194-32.716c-1.77-11.648-5.2-23.323-9.96-31.983S313.34,378.139,302,378.361s-27.944,6.308-37.378,12.478-11.7,12.423-12.5,19.84a71.506,71.506,0,0,0,1.842,23.995Z" transform="translate(-251.786 -378.354)"/></clipPath></defs><g transform="translate(-70)"><rect class="d" width="1850" height="1080" transform="translate(70)"/><g class="e"><g transform="translate(878.89 0)"><path class="f" d="M0,0H418.743V1122.466H0Z" transform="translate(119.07 0)"/><path class="g" d="M397.3,883.939c-.866,44.608-3.185,128.09-5.594,169.9s-4.908,41.961-16.1,41.535-31.072-1.426-41.087-2.367-10.161-1.823-13.249-40.417-9.116-114.9-11.836-155.48-2.132-45.431,4.337-53.444,18.82-19.186,32.42-25.729,28.449-8.454,37.124-6.028,11.174,9.189,12.718,15.437,2.132,11.983,1.267,56.591Z" transform="translate(17.676 46.552)"/><path class="h" d="M353.514,485.444c7.518-3.193,14.76-1.719,23.886-.1s20.138,3.394,31.417,10.216,22.827,18.7,27.564,42.654,2.662,60,.847,93.443-3.371,64.3-8.038,82.45-12.445,23.594-17.842,30.479-8.41,15.209-22.8-12.144S348.4,642.06,336.809,598.1s-8.993-68.852-3.8-85.227S346,488.636,353.514,485.444Z" transform="translate(18.865 27.76)"/><g class="i" transform="translate(347.473 511.314)"><g class="j" transform="translate(-2.096 -45.155)"><path class="k" d="M328.513,472.5c-1.114,5.847-2.064,12-1.859,16.362s1.564,6.934,4.548,11.084a116.882,116.882,0,0,0,12.376,14.536A56.719,56.719,0,0,0,359.141,525.5c5.831,2.767,12.543,4.709,19.314,4.418s13.6-2.815,18.5-11.129,7.869-22.419,3.712-35.038-15.44-23.755-25.536-31.253-19-11.358-26.217-11.629-12.728,3.047-15.234,6.1-2,5.825-2.387,9.986-1.665,9.7-2.779,15.551Z" transform="translate(-326.626 -440.85)"/></g><path class="l" d="M43.637,182.415s4.386,31.91,11.966,48.759,7.238,21.276,17.316,21.495S86.8,240.34,91.236,223.919,82.944,154.6,79.358,139.28s-1-33.612-15.12-38.185S47.084,89.58,37.9,98.943s-14.422,22.35-8.5,42.53S43.637,182.415,43.637,182.415Z"/></g><path class="m" d="M353.514,485.444c7.518-3.193,14.76-1.719,23.886-.1s20.138,3.394,31.417,10.216,22.827,18.7,27.564,42.654,2.662,60,.847,93.443-3.371,64.3-8.038,82.45-12.445,23.594-17.842,30.479-8.41,15.209-22.8-12.144S348.4,642.06,336.809,598.1s-8.993-68.852-3.8-85.227S346,488.636,353.514,485.444Z" transform="translate(18.865 27.76)"/><path class="h" d="M376.313,647.957c4.895,18.6,13.272,54.127,20.189,85.424s12.374,58.367,10.916,74.766-9.833,22.129-24.083,29.4a488.339,488.339,0,0,1-47.981,21.031c-13.6,4.944-20.683,6.015-24.657,5.536s-4.843-2.507-7.693-21.392-7.679-54.627-10.674-80.177-4.154-40.91-2.187-58.9,7.059-38.622,15.8-53.088a64.9,64.9,0,0,1,31.1-26.73c9.965-3.96,17.5-3.578,22.357-2.491a16.4,16.4,0,0,1,8.818,4.608c1.792,1.734,3.2,3.415,8.1,22.017Z" transform="translate(16.6 35.627)"/><g class="n" transform="translate(305.77 656.224)"><g transform="translate(-8.876 -7.798)"><path class="g" d="M403.373,691.48c3.325,17.39,3.241,38.364.689,44.9s-7.568-1.358-13.288-12.594-12.14-25.811-16.259-35.335-5.936-13.993-10.6-12.649-12.165,8.506-22.305,19.974-22.917,27.244-29.083,40.631-5.721,24.386-3.832,37.273,5.221,27.663,8.832,44.55,7.5,35.884,8.888,45.717.278,10.5-5.666,10.887-16.72.5-24-12.831S285.7,821.9,283.147,795.29s-3.888-53.049.445-81.767,14.331-59.714,28.329-77.323,32-21.831,45.384-22.775,22.164,1.389,26.274,7.443,3.555,15.831,6.645,27.623,9.825,25.6,13.15,42.989Z" transform="translate(-280.775 -613.222)"/></g></g><path class="m" d="M376.313,647.957c4.895,18.6,13.272,54.127,20.189,85.424s12.374,58.367,10.916,74.766-9.833,22.129-24.083,29.4a488.339,488.339,0,0,1-47.981,21.031c-13.6,4.944-20.683,6.015-24.657,5.536s-4.843-2.507-7.693-21.392-7.679-54.627-10.674-80.177-4.154-40.91-2.187-58.9,7.059-38.622,15.8-53.088a64.9,64.9,0,0,1,31.1-26.73c9.965-3.96,17.5-3.578,22.357-2.491a16.4,16.4,0,0,1,8.818,4.608c1.792,1.734,3.2,3.415,8.1,22.017Z" transform="translate(16.6 35.627)"/><path class="g" d="M338.672,734.115c2.021,2.276,5.619,6.864,7.432,9.419s1.841,3.077,1.058,4.162-2.376,2.734-8.519,6.609-16.832,9.979-23,13.109-7.81,3.288-9.484,2.941A8.069,8.069,0,0,1,301.8,768c-.984-1.156-1.246-2.616-1.43-4.759a59.51,59.51,0,0,1-.205-6.782c.085-1.812.359-2.611,1.082-3.434a20.627,20.627,0,0,1,4.284-3.191c2.389-1.521,5.994-3.715,10.428-6.369s9.7-5.767,13.138-7.769,5.057-2.893,6.087-3.357,1.471-.5,3.492,1.778Z" transform="translate(17.23 42.027)"/><path class="h" d="M330.927,734.607c-6.239,3.65-18.6,10.961-24.785,14.782s-6.182,4.156-6.161,6.077.063,5.43.23,7.581.459,2.945,1.086,3.112,1.588-.292,5.577-2.548,11.007-6.307,16.457-9.44,9.336-5.346,11.487-6.746,2.569-1.984,2.709-4.591,0-7.233-.122-9.552-.239-2.327-6.478,1.324Z" transform="translate(17.221 42.004)"/><path class="h" d="M333.04,897.115c2.167,30.481,6.578,91.056,9.592,127.518s4.631,48.813,7.425,54.915,6.763,5.954,10,5.292,5.734-1.837,7.425-4.337,2.573-6.322,4.337-34.183,4.411-79.762,5.514-109.976.661-38.741-1.176-45.21a23.069,23.069,0,0,0-10.807-14.409c-5.734-3.529-13.967-6.175-20.1-7.839a72.276,72.276,0,0,0-12.235-2.492c-2.058-.147-2.135.241.031,30.722Z" transform="translate(19.027 49.737)"/><path class="o" d="M412.951,1122.466c-1.354-156.48-2.709-312.96-3.932-409.628s-2.313-133.522-5.234-160.411-7.671-43.814-17.328-68.842-24.221-58.161-43.122-97.965S301.2,299.344,282.166,260.934s-33.858-68.757-43.614-94.646-14.445-47.32-17.575-74.78S216.276,33.489,214.7,0V1122.466H412.951ZM0,0H821.11V1122.466H0Z"/><path class="g" d="M408.2,512.229c2.79-.545,4.136.929,4.425,2.533s-.481,3.334-.994,4.938a11.085,11.085,0,0,0-.609,4.617A10.427,10.427,0,0,0,412.782,529c1.027,1.539,2.5,3.014,2.982,4.456s-.032,2.854-.673,4.264-1.411,2.822-2.116,4.617a16.97,16.97,0,0,0-1.25,7.118c.1,3.142.93,7.246,1.314,12.408s.321,11.383-1.571,16.962-5.611,10.517-10.141,15.5-9.872,10.026-12.93,12.829-3.832,3.369-4.689,1.652-1.794-5.719-2.391-13.523a267.621,267.621,0,0,1-.341-30.409c.513-11,1.8-21.386,4.585-29.114a39.726,39.726,0,0,1,11.351-16.609c4.265-3.816,8.5-6.381,11.287-6.926Z" transform="translate(21.855 29.399)"/><path class="p" d="M273.422,455.5c-3.2,7.694,2.1,17.095,5.487,23.5s4.853,9.81,5.254,13.482-.265,7.608.1,10.962,1.746,6.126,5.406,9.009a25.8,25.8,0,0,0,18.213,5.295c8.621-.582,19.931-4.74,26.057-11.088s7.069-14.887,7.426-20.127.128-7.182-.787-8.928-2.515-3.3-3.689-10.721-1.919-20.722-7.99-26.875-17.467-5.166-29.017-1.677-23.255,9.475-26.456,17.17Z" transform="translate(15.64 25.004)"/><path class="m" d="M273.422,455.5c-3.2,7.694,2.1,17.095,5.487,23.5s4.853,9.81,5.254,13.482-.265,7.608.1,10.962,1.746,6.126,5.406,9.009a25.8,25.8,0,0,0,18.213,5.295c8.621-.582,19.931-4.74,26.057-11.088s7.069-14.887,7.426-20.127.128-7.182-.787-8.928-2.515-3.3-3.689-10.721-1.919-20.722-7.99-26.875-17.467-5.166-29.017-1.677-23.255,9.475-26.456,17.17Z" transform="translate(15.64 25.004)"/><path class="r" d="M278.149,513.119c.254-5.5,2.481-9.063,4.2-10.653s2.925-1.208,7.25,1.176,11.766,6.773,18.73,10.239,13.451,6.01,18.761,1.717,9.445-15.423,12.37-22.641,4.643-10.526,7.187-11.416,5.915.636,8.49,1.844,4.357,2.1,5.311,6.074,1.081,11.034,1.24,25.725.35,37.015.35,50.688-.191,18.7-1.822,22.2-4.7,5.495-10.52,5.94a35.782,35.782,0,0,1-21.756-5.527c-7.368-4.873-13.538-13.522-21.106-23.317s-16.535-20.733-21.877-29.923-7.06-16.631-6.805-22.132Z" transform="translate(15.966 27.629)"/><g class="s" transform="translate(294.092 508.905)"><g transform="translate(51.285 -42.746)"><path class="t" d="M328.513,472.5c-1.114,5.847-2.064,12-1.859,16.362s1.564,6.934,4.548,11.084a116.882,116.882,0,0,0,12.376,14.536A56.719,56.719,0,0,0,359.141,525.5c5.831,2.767,12.543,4.709,19.314,4.418s13.6-2.815,18.5-11.129,7.869-22.419,3.712-35.038-15.44-23.755-25.536-31.253-19-11.358-26.217-11.629-12.728,3.047-15.234,6.1-2,5.825-2.387,9.986-1.665,9.7-2.779,15.551Z" transform="translate(-326.626 -440.85)"/></g></g><path class="m" d="M278.149,513.119c.254-5.5,2.481-9.063,4.2-10.653s2.925-1.208,7.25,1.176,11.766,6.773,18.73,10.239,13.451,6.01,18.761,1.717,9.445-15.423,12.37-22.641,4.643-10.526,7.187-11.416,5.915.636,8.49,1.844,4.357,2.1,5.311,6.074,1.081,11.034,1.24,25.725.35,37.015.35,50.688-.191,18.7-1.822,22.2-4.7,5.495-10.52,5.94a35.782,35.782,0,0,1-21.756-5.527c-7.368-4.873-13.538-13.522-21.106-23.317s-16.535-20.733-21.877-29.923-7.06-16.631-6.805-22.132Z" transform="translate(15.966 27.629)"/><path class="u" d="M314.148,521.6c1.489,1.945,4.248,5,5.858,7s2.07,2.968,4.4,13.519,6.52,30.691,9.777,42.724,5.581,15.959,8.926,18.558,7.714,3.87,10.589,3.567,4.258-2.184,5-4.866.857-6.165-.083-11.445-2.931-12.358-7.742-22.81-12.441-24.274-16.257-31.6S330.8,528.092,331.3,525.6s1.493-6.636,1.88-8.9.166-2.654-1.521-4.119a66.437,66.437,0,0,0-6.991-5.342c-2.153-1.333-3.307-1.455-4.613-1.144a18.149,18.149,0,0,0-3.789,1.586,3.659,3.659,0,0,0-2.224,2.528,34.245,34.245,0,0,0-1.405,6.661c-.2,1.94.023,2.78,1.511,4.726Z" transform="translate(17.944 29.046)"/><path class="v" d="M348.428,478.939c3.479.763,8.767,1.591,11.651,2.679s3.366,2.434,4.929,10.081,4.209,21.594,5.483,28.809,1.178,7.7-.788,8.314-5.8,1.377-7.694,2.093-1.845,1.388-.193,2.428,4.912,2.447,6.661,3.607,1.989,2.074,1.793,6.959A177.082,177.082,0,0,1,367.8,566.8c-1.643,9.155-4.294,18.611-6.7,23.625s-4.569,5.587-6.382,4.505-3.276-3.816-3.963-7.925-.6-9.59-.629-23.458-.184-36.119-1.061-51.24-2.474-23.112-3.835-27.845-2.487-6.211-2.215-6.6,1.941.31,5.42,1.073Z" transform="translate(19.689 27.427)"/><g class="w" transform="translate(362.656 505.181)"><g class="x" transform="translate(-17.28 -39.023)"><path class="v" d="M328.513,472.5c-1.114,5.847-2.064,12-1.859,16.362s1.564,6.934,4.548,11.084a116.882,116.882,0,0,0,12.376,14.536A56.719,56.719,0,0,0,359.141,525.5c5.831,2.767,12.543,4.709,19.314,4.418s13.6-2.815,18.5-11.129,7.869-22.419,3.712-35.038-15.44-23.755-25.536-31.253-19-11.358-26.217-11.629-12.728,3.047-15.234,6.1-2,5.825-2.387,9.986-1.665,9.7-2.779,15.551Z" transform="translate(-326.626 -440.85)"/></g></g><path class="m" d="M348.428,478.939c3.479.763,8.767,1.591,11.651,2.679s3.366,2.434,4.929,10.081,4.209,21.594,5.483,28.809,1.178,7.7-.788,8.314-5.8,1.377-7.694,2.093-1.845,1.388-.193,2.428,4.912,2.447,6.661,3.607,1.989,2.074,1.793,6.959A177.082,177.082,0,0,1,367.8,566.8c-1.643,9.155-4.294,18.611-6.7,23.625s-4.569,5.587-6.382,4.505-3.276-3.816-3.963-7.925-.6-9.59-.629-23.458-.184-36.119-1.061-51.24-2.474-23.112-3.835-27.845-2.487-6.211-2.215-6.6,1.941.31,5.42,1.073Z" transform="translate(19.689 27.427)"/><path class="y" d="M375.328,610.538c.764-2.27,1.675-6.137,3.9-9.383s5.764-5.873,10.1-9.412a181.211,181.211,0,0,0,13.8-12.35,77.7,77.7,0,0,0,9.985-12.054c2.183-3.422,3.063-5.994,2.982-7.918a3.645,3.645,0,0,0-2.471-3.593c-1.352-.392-3.015.1-2.66-.838s2.731-3.309,4.182-5.06,1.98-2.881,1.632-3.958a4.914,4.914,0,0,0-2.807-2.592c-1.232-.493-2.473-.456-2.347-.936s1.619-1.475,3.094-2.84a13.281,13.281,0,0,0,3.545-4.819,4.134,4.134,0,0,0-.61-4.371c-.983-.934-2.711-1.089-5.218.02s-5.789,3.479-8.033,4.683-3.447,1.241-3.831.292.055-2.882,2.391-5.833,6.572-6.921,9.1-10.3,3.348-6.181,2.709-8-2.737-2.657-4.688-2.846-3.754.273-7.3,3.126-8.831,8.1-12.083,11.139-4.468,3.881-4.8,3.125.21-3.1-.263-5.811-1.965-5.769-2.762-5.917-.9,2.623-1.643,5.329-2.128,5.35-2.715,9.23-.378,9-.839,13.949a73.36,73.36,0,0,1-3,14.39,56.632,56.632,0,0,1-5.2,12.669c-2.119,3.482-4.678,5.916-6.495,8.749a28.523,28.523,0,0,0-3.388,8.042c-.5,1.974-.412,2.688,1.287,6.128s5.014,9.608,7.358,13.659,3.719,5.986,4.713,6.616,1.61-.044,2.373-2.314Z" transform="translate(20.628 29.185)"/><path class="r" d="M369.938,622.447c2.243-1.131,5.6-4.414,7.531-6.62s2.444-3.337,2.5-4.522-.346-2.426-3.811-8.444-9.994-16.814-13.732-22.632-4.687-6.656-6.073-5.854-3.209,3.246-5.033,5.562-3.647,4.5-4.632,5.781-1.13,1.642-.747,3.247,1.295,4.45,4.632,10.085,9.1,14.06,12.547,18.783,4.577,5.745,6.821,4.615Z" transform="translate(19.848 32.959)"/><path class="z" d="M289.379,492.69a26.985,26.985,0,0,0,3.82,7.7c2.535,3.3,3.366,5.366,6.85,8.027s4.619,4.237,10.481,7.435a27.836,27.836,0,0,0,16.191,3.336c5.292-.326,10.291-5.536,13.31-5.018s4.007,3.258,3.9,5.792-.423,8.926-2.531,12.468,12.811-9.213,15.167-12.261.562-15.729.562-15.729L354,498.484l-1.3-5.331-1.785-12.47s-1.774-7.929-1.9-8.519-.552-3.117-2.014-1.393-13.7,14.653-16.631,16.848-19.867,8.061-24.276,6.186S289.379,492.69,289.379,492.69Z"/><path class="h" d="M282.87,503.218c-1.4.132-5.6,3.49-9.25,7.689s-6.76,9.237-10.832,14.359a112.571,112.571,0,0,1-14.7,15.115c-5.584,4.786-11.714,9.153-15.618,13.309a23.249,23.249,0,0,0-6.424,13.226,52.144,52.144,0,0,0-.084,15.744c.755,4.325,2.267,6.676,3.516,20.218s2.233,38.276,3.1,58.41,1.626,35.669,3.893,44.906,6.046,12.176,11.5,15.325a56.536,56.536,0,0,0,21.287,7.6c8.691,1.092,18.935-.084,31.489-9.489s27.417-27.039,40.852-42.49,25.443-28.718,31.825-35.9,7.138-8.271,6.76-9.489-1.889-2.561-3.694-4.241-3.9-3.694-7.935-10.245-9.993-17.634-13.1-22.965-3.355-4.909-4.419-3.594-2.941,3.524-4.017,4.6-1.353,1.022-9.929-9.863-25.454-32.6-36.11-47.1-15.092-21.785-16.609-26.975-.116-8.285-1.514-8.153Z" transform="translate(12.94 28.888)"/><g class="aa" transform="translate(238.35 532.102)"><g transform="translate(-5.454 -2.126)"><path class="k" d="M373.26,595.554c-4.25,2.994-11.494,10.046-16.228,16.324a55.543,55.543,0,0,0-8.452,16.13c-1.5,4.347-2.269,7.535-11.011,14.586s-25.452,17.967-40.81,28.447-29.365,20.526-36.271,24.535-6.713,1.98-5.844-2.8,2.414-12.315,5.844-18.448,8.741-10.867,12.9-13.91,7.148-4.395,8.066-7.728-.242-8.645-3.913-15.5-9.852-15.261-19.415-28.156-22.507-30.282-29.51-38.3-8.066-6.664-8.307,6.231.338,37.333,1.883,63.027,4.057,52.643,9.949,69.451S247.3,732.91,263.723,736.29s39.99,3.477,61.385-6.375,40.618-29.653,50.809-48.876,11.349-37.864,10.528-52.16-3.622-24.245-5.65-29.751-3.285-6.568-7.534-3.574Z" transform="translate(-220.252 -497.498)"/><path class="k" d="M267.705,517.1c2.216,5.374,6.734,14.652,10.868,22.919s7.883,15.527,10.071,19.228,2.812,3.846,4.83,3.115,5.427-2.336,7.655-3.3,3.273-1.275,3.754-1.131.4.748-.557,3.222-2.777,6.82-3.545,9.521-.479,3.759,3.73,8.427,12.339,12.948,19.711,16.4a25.123,25.123,0,0,0,17.275,1.273c3.286-.818,3.243-1.088,3.307-1.24a1.622,1.622,0,0,0,.354-.808c.118-.621.181-1.829-10.47-17.524s-32.019-45.875-42.924-61.156-11.351-15.663-13.958-14.391a52.4,52.4,0,0,0-9.8,6.393c-2.427,2.2-2.515,3.668-.3,9.042Z" transform="translate(-217.619 -501.203)"/></g></g><path class="m" d="M282.87,503.218c-1.4.132-5.6,3.49-9.25,7.689s-6.76,9.237-10.832,14.359a112.571,112.571,0,0,1-14.7,15.115c-5.584,4.786-11.714,9.153-15.618,13.309a23.249,23.249,0,0,0-6.424,13.226,52.144,52.144,0,0,0-.084,15.744c.755,4.325,2.267,6.676,3.516,20.218s2.233,38.276,3.1,58.41,1.626,35.669,3.893,44.906,6.046,12.176,11.5,15.325a56.536,56.536,0,0,0,21.287,7.6c8.691,1.092,18.935-.084,31.489-9.489s27.417-27.039,40.852-42.49,25.443-28.718,31.825-35.9,7.138-8.271,6.76-9.489-1.889-2.561-3.694-4.241-3.9-3.694-7.935-10.245-9.993-17.634-13.1-22.965-3.355-4.909-4.419-3.594-2.941,3.524-4.017,4.6-1.353,1.022-9.929-9.863-25.454-32.6-36.11-47.1-15.092-21.785-16.609-26.975-.116-8.285-1.514-8.153Z" transform="translate(12.94 28.888)"/><path class="ab" d="M282.523,491.616c1,1.3,2.592,3.679,8.759,6.532s16.913,6.177,22.526,7.873,6.1,1.765,5.969,2.841-.861,3.16-1.855,7-2.248,9.445-2.792,12.852-.376,4.619-.648,5.163-.982.418-4.6-2.195-10.138-7.713-15.5-11.895-9.564-7.445-11.8-10.518-2.508-5.955-2.5-9.151a49.54,49.54,0,0,1,.659-8.36c.355-1.651.773-1.442,1.777-.146Z" transform="translate(16.079 28.163)"/><path class="ab" d="M321.034,512.007c3.594,2.953,10.672,8.983,14.547,12.046s4.549,3.159,5.078,2.246.913-2.837,1.947-10.265,2.717-20.361,3.149-27.476-.385-8.413-1.514-9.976a28.38,28.38,0,0,0-3.51-4.183c-.937-.794-1.37-.553-3.51,3.077s-5.985,10.648-9.6,16.518-7.008,10.588-8.649,12.886-1.529,2.173,2.064,5.127Z" transform="translate(18.253 27.213)"/><g class="ac" transform="translate(336.206 501.241)"><g transform="translate(9.171 -35.082)"><path class="t" d="M328.513,472.5c-1.114,5.847-2.064,12-1.859,16.362s1.564,6.934,4.548,11.084a116.882,116.882,0,0,0,12.376,14.536A56.719,56.719,0,0,0,359.141,525.5c5.831,2.767,12.543,4.709,19.314,4.418s13.6-2.815,18.5-11.129,7.869-22.419,3.712-35.038-15.44-23.755-25.536-31.253-19-11.358-26.217-11.629-12.728,3.047-15.234,6.1-2,5.825-2.387,9.986-1.665,9.7-2.779,15.551Z" transform="translate(-326.626 -440.85)"/></g></g><path class="m" d="M321.034,512.007c3.594,2.953,10.672,8.983,14.547,12.046s4.549,3.159,5.078,2.246.913-2.837,1.947-10.265,2.717-20.361,3.149-27.476-.385-8.413-1.514-9.976a28.38,28.38,0,0,0-3.51-4.183c-.937-.794-1.37-.553-3.51,3.077s-5.985,10.648-9.6,16.518-7.008,10.588-8.649,12.886-1.529,2.173,2.064,5.127Z" transform="translate(18.253 27.213)"/><path class="p" d="M329.6,415.6a3.422,3.422,0,0,1,2.3-.982,3.71,3.71,0,0,1,2.942.978c.664.773.732,2.051.807,5.75s.158,9.82.227,14.341.124,7.443.1,9.139-.138,2.164-.772,2.481a4.706,4.706,0,0,1-2.715.29c-.924-.193-1.613-.744-2.137-3.169a88.233,88.233,0,0,1-1.146-11.535c-.262-4.811-.427-10.134-.388-13.123s.282-3.645.789-4.17Z" transform="translate(18.876 23.802)"/><path class="p" d="M256.124,438.834a8.5,8.5,0,0,0-3.418-2.377c-.988-.19-1.62.525-2.042,1.346s-.634,1.746.458,4.559a103.19,103.19,0,0,0,5.9,11.739,66.667,66.667,0,0,0,6.693,10.029c1.824,2.044,3.023,2.376,3.965,2.31a2.179,2.179,0,0,0,2-1.454c.374-.921.438-2.3-1.413-6.187s-5.617-10.288-7.919-14.034-3.139-4.838-4.228-5.93Z" transform="translate(14.37 25.054)"/><path class="ad" d="M253.958,434.673a78.373,78.373,0,0,0,9.717,22.645,97.752,97.752,0,0,0,16.982,20.58,118.927,118.927,0,0,0,19.777,14.541c4.961,2.813,6.9,2.979,11.129,1.873s10.762-3.486,14.5-5.893,4.675-4.841,5.889-9.7a126.352,126.352,0,0,0,3.389-21.581,150.325,150.325,0,0,0-1.194-32.716c-1.77-11.648-5.2-23.323-9.96-31.983S313.34,378.139,302,378.361s-27.944,6.308-37.378,12.478-11.7,12.423-12.5,19.84a71.506,71.506,0,0,0,1.842,23.995Z" transform="translate(14.454 21.72)"/><g class="ae" transform="translate(266.24 400.075)"><g transform="translate(36.84 -2.039)"><path class="af" d="M291.445,390.678c-2.154,5.59,14.061,28.546,16.607,29.214s6.809-.986,10.15-1.686,5.759-.446,7.287.668,2.164,3.086,2.514,5.314a17.117,17.117,0,0,1-.255,7.159,15.933,15.933,0,0,1-3.787,6.65,12.525,12.525,0,0,1-6.2,3.532c-2.45.6-5.314.668-6.809,1.05s-2.131.879-2.036,1.579,2.527,2.19,5.326,1.7a8.287,8.287,0,0,1,5.812.709c1.955.832,2.7,2.376,3.849,4.348a100.228,100.228,0,0,1,4.391,9.355c1.719,4.009,3.627,8.655,5.441,8.719s3.532-4.455,4.264-13.492A203.772,203.772,0,0,0,337,419.685c-1.472-13.221-4.162-26.109-12.053-33.714s-20.984-9.927-28.549-9.5S293.6,385.088,291.445,390.678Z" transform="translate(-286.626 -376.426)"/></g></g><path class="m" d="M253.958,434.673a78.373,78.373,0,0,0,9.717,22.645,97.752,97.752,0,0,0,16.982,20.58,118.927,118.927,0,0,0,19.777,14.541c4.961,2.813,6.9,2.979,11.129,1.873s10.762-3.486,14.5-5.893,4.675-4.841,5.889-9.7a126.352,126.352,0,0,0,3.389-21.581,150.325,150.325,0,0,0-1.194-32.716c-1.77-11.648-5.2-23.323-9.96-31.983S313.34,378.139,302,378.361s-27.944,6.308-37.378,12.478-11.7,12.423-12.5,19.84a71.506,71.506,0,0,0,1.842,23.995Z" transform="translate(14.454 21.72)"/><path class="v" d="M305.606,377.969c.929,1.33,3.137,2.367,3.809,3.426s-.19,2.141-.219,3.513.777,3.031,2.525,4.678,4.442,3.28,6.475,5.87,3.405,6.133,4.874,9.155,3.032,5.52,3.922,7.536a26.686,26.686,0,0,1,1.495,5.069c.384,1.521.934,3.029,1.684,2.586s1.7-2.84,2.228-4.675.634-3.11.063-7.076a46.873,46.873,0,0,0-5.516-16.956A55.75,55.75,0,0,0,313.1,375.855c-4-2.9-5.863-2.678-6.969-1.759a2.845,2.845,0,0,0-.526,3.872Z" transform="translate(17.513 21.441)"/><path class="v" d="M248.317,394.158a21.925,21.925,0,0,0-5.565,12.876c-.673,6.056.528,13.7,1.988,18.958s3.182,8.15,4.856,9.939,3.3,2.48,4.518,3.515,2.019,2.415,2.607,2.7.959-.51.535-3.033-1.644-6.773-1.8-11.745.756-10.672.72-13.594-1.018-3.067-1.6-3.319-.758-.611-1.028-1.464a5.009,5.009,0,0,1,.227-4c.861-1.8,2.947-4.064,3.348-6.41a6.117,6.117,0,0,0-2.6-5.885c-1.716-1.107-3.863-.888-6.209,1.458Z" transform="translate(13.925 22.507)"/><path class="ag" d="M292.91,463.553c2.777-.38,7.246-.543,11-1.465a26.37,26.37,0,0,0,9.074-4.243,35.823,35.823,0,0,0,4.649-4.071c.851-.841,1.031-.932.515.687a22.8,22.8,0,0,1-3.772,7.373,14.348,14.348,0,0,1-8.2,4.632,32.389,32.389,0,0,1-10.05.181c-3.1-.362-5.636-.941-6.359-1.529s.362-1.185,3.139-1.565Z" transform="translate(16.622 26.016)"/><path class="ag" d="M296.181,453.788c1.447-.407,4.487-.5,6.413-1.366a7.268,7.268,0,0,0,3.266-3.4c.525-.887.76-1.013,1.185-.515a3.772,3.772,0,0,1,.769,3.094,8.741,8.741,0,0,1-2.641,4.369,4.967,4.967,0,0,1-4.179,1.194,13.82,13.82,0,0,1-4.975-1.547c-1.14-.7-1.285-1.42.163-1.827Z" transform="translate(16.943 25.731)"/><path class="v" d="M257.658,437.867c.151,1.4.9,3.382,3.034,6.264a57.094,57.094,0,0,0,8.262,8.814c2.612,2.144,4.318,2.643,7.066,2.227a38.986,38.986,0,0,0,9.189-2.976,12.6,12.6,0,0,0,5.172-3.7c1-1.353,1.477-2.935,1.738-5.891s.3-7.284,1.009-9.678,2.081-2.851,3.8-2.071,3.777,2.8,5.682,4.856a59.574,59.574,0,0,0,5.1,5.3c1.449,1.15,2.6,1.355,5.076,1.376a43.666,43.666,0,0,0,9.133-.8,17.594,17.594,0,0,0,6.346-2.9,7.578,7.578,0,0,0,3.637-5.191,37.451,37.451,0,0,0,.432-11.841,23.331,23.331,0,0,0-2.377-7.662c-.724-1.488-1.01-2.031-1.891-2.251a11.272,11.272,0,0,0-4.486.333,54.5,54.5,0,0,0-8.558,2.681,123.586,123.586,0,0,0-11.522,5.272,60.648,60.648,0,0,0-6.979,4.268c-1.418,1-2.051,1.528-3.29,1.666s-3.084-.11-6.2-.121a41.414,41.414,0,0,0-12.5,1.75,67.311,67.311,0,0,0-13.564,6.21c-3.009,1.836-3.455,2.668-3.3,4.072Z" transform="translate(14.79 23.63)"/><path class="ad" d="M286.014,429.144a22.459,22.459,0,0,0-7.987.22,31.764,31.764,0,0,0-8.915,3.394,20.52,20.52,0,0,0-5.449,4.158c-.961,1.158-.961,1.914.468,4.043a51.671,51.671,0,0,0,6.37,7.557c2.081,1.924,3.386,2.268,4.491,2.359a7.377,7.377,0,0,0,3.94-.924,51.151,51.151,0,0,0,6.675-3.6c1.793-1.2,2.427-2.074,2.717-3.179a21.682,21.682,0,0,0,.271-4.556,62.174,62.174,0,0,0-.043-6.746c-.206-1.755-.743-2.385-2.54-2.732Z" transform="translate(15.098 24.621)"/><path class="ad" d="M305.615,421.407a13.407,13.407,0,0,0-4.17,2.906,4.919,4.919,0,0,0-.875,3.8c.156,1.187.552,2.146,2.083,3.739a26.981,26.981,0,0,0,6.3,4.865c2.1,1.041,3.645.9,5.833.2a20.063,20.063,0,0,0,6.75-3.5,7.244,7.244,0,0,0,2.4-5.677,22.337,22.337,0,0,0-1.063-6.677c-.562-1.719-1.146-2.469-2-2.854s-1.979-.407-4-.094a64.548,64.548,0,0,0-6.887,1.521,20.559,20.559,0,0,0-4.373,1.771Z" transform="translate(17.251 23.99)"/><path class="v" d="M303.872,356.588a28.157,28.157,0,0,1,7.752,5.777,12.273,12.273,0,0,1,3.319,8.025,15.418,15.418,0,0,1-4.117,11.512c-3.634,4.117-10.231,8.235-20.167,12.232s-23.214,7.873-30.021,10.211-7.143,3.136-6.995,4.538.777,3.407.966,4.557-.062,1.444-2.163.057a35.65,35.65,0,0,1-8.424-7.752,13.982,13.982,0,0,1-2.521-10.923,17.406,17.406,0,0,1,8.382-12.332c5.63-3.571,14.79-6.05,23.844-7.9s18-3.067,23.36-4.306,7.122-2.5,7.839-4.026a4.772,4.772,0,0,0-.884-4.993,31.905,31.905,0,0,0-4.774-4.339c-1.285-1.1-1.639-1.739-.807-1.869s2.848.248,5.411,1.53Z" transform="translate(13.851 20.382)"/></g></g></g></svg>